%TF.GenerationSoftware,KiCad,Pcbnew,(5.1.9)-1*%
%TF.CreationDate,2021-07-20T21:45:38-05:00*%
%TF.ProjectId,Control de Gabinetes,436f6e74-726f-46c2-9064-652047616269,rev?*%
%TF.SameCoordinates,Original*%
%TF.FileFunction,Legend,Top*%
%TF.FilePolarity,Positive*%
%FSLAX46Y46*%
G04 Gerber Fmt 4.6, Leading zero omitted, Abs format (unit mm)*
G04 Created by KiCad (PCBNEW (5.1.9)-1) date 2021-07-20 21:45:38*
%MOMM*%
%LPD*%
G01*
G04 APERTURE LIST*
%ADD10C,0.300000*%
%ADD11C,0.010000*%
%ADD12C,0.200000*%
%ADD13C,0.120000*%
%ADD14C,0.127000*%
%ADD15C,0.150000*%
G04 APERTURE END LIST*
D10*
X156683809Y-64640714D02*
X155716190Y-64640714D01*
X156200000Y-65124523D02*
X156200000Y-64156904D01*
X144383809Y-64690714D02*
X143416190Y-64690714D01*
X143900000Y-65174523D02*
X143900000Y-64206904D01*
X189483809Y-49340714D02*
X188516190Y-49340714D01*
X189000000Y-49824523D02*
X189000000Y-48856904D01*
X195883809Y-49390714D02*
X194916190Y-49390714D01*
X195400000Y-49874523D02*
X195400000Y-48906904D01*
D11*
%TO.C,U9*%
G36*
X112650000Y-112838180D02*
G01*
X112650000Y-112425000D01*
X113043130Y-112425000D01*
X113043130Y-112838180D01*
X112650000Y-112838180D01*
G37*
X112650000Y-112838180D02*
X112650000Y-112425000D01*
X113043130Y-112425000D01*
X113043130Y-112838180D01*
X112650000Y-112838180D01*
G36*
X113750000Y-110831260D02*
G01*
X113750000Y-110225000D01*
X114347360Y-110225000D01*
X114347360Y-110831260D01*
X113750000Y-110831260D01*
G37*
X113750000Y-110831260D02*
X113750000Y-110225000D01*
X114347360Y-110225000D01*
X114347360Y-110831260D01*
X113750000Y-110831260D01*
D12*
X113073606Y-112625000D02*
G75*
G03*
X113073606Y-112625000I-223606J0D01*
G01*
X114410553Y-110525000D02*
G75*
G03*
X114410553Y-110525000I-360553J0D01*
G01*
X117800000Y-111475000D02*
X113100000Y-111475000D01*
X117800000Y-104975000D02*
X117800000Y-111475000D01*
X113100000Y-104975000D02*
X117800000Y-104975000D01*
X113100000Y-111475000D02*
X113100000Y-104975000D01*
D11*
%TO.C,U8*%
G36*
X112550000Y-99563180D02*
G01*
X112550000Y-99150000D01*
X112943130Y-99150000D01*
X112943130Y-99563180D01*
X112550000Y-99563180D01*
G37*
X112550000Y-99563180D02*
X112550000Y-99150000D01*
X112943130Y-99150000D01*
X112943130Y-99563180D01*
X112550000Y-99563180D01*
G36*
X113650000Y-97556260D02*
G01*
X113650000Y-96950000D01*
X114247360Y-96950000D01*
X114247360Y-97556260D01*
X113650000Y-97556260D01*
G37*
X113650000Y-97556260D02*
X113650000Y-96950000D01*
X114247360Y-96950000D01*
X114247360Y-97556260D01*
X113650000Y-97556260D01*
D12*
X112973606Y-99350000D02*
G75*
G03*
X112973606Y-99350000I-223606J0D01*
G01*
X114310553Y-97250000D02*
G75*
G03*
X114310553Y-97250000I-360553J0D01*
G01*
X117700000Y-98200000D02*
X113000000Y-98200000D01*
X117700000Y-91700000D02*
X117700000Y-98200000D01*
X113000000Y-91700000D02*
X117700000Y-91700000D01*
X113000000Y-98200000D02*
X113000000Y-91700000D01*
D11*
%TO.C,U7*%
G36*
X112700000Y-86113180D02*
G01*
X112700000Y-85700000D01*
X113093130Y-85700000D01*
X113093130Y-86113180D01*
X112700000Y-86113180D01*
G37*
X112700000Y-86113180D02*
X112700000Y-85700000D01*
X113093130Y-85700000D01*
X113093130Y-86113180D01*
X112700000Y-86113180D01*
G36*
X113800000Y-84106260D02*
G01*
X113800000Y-83500000D01*
X114397360Y-83500000D01*
X114397360Y-84106260D01*
X113800000Y-84106260D01*
G37*
X113800000Y-84106260D02*
X113800000Y-83500000D01*
X114397360Y-83500000D01*
X114397360Y-84106260D01*
X113800000Y-84106260D01*
D12*
X113123606Y-85900000D02*
G75*
G03*
X113123606Y-85900000I-223606J0D01*
G01*
X114460553Y-83800000D02*
G75*
G03*
X114460553Y-83800000I-360553J0D01*
G01*
X117850000Y-84750000D02*
X113150000Y-84750000D01*
X117850000Y-78250000D02*
X117850000Y-84750000D01*
X113150000Y-78250000D02*
X117850000Y-78250000D01*
X113150000Y-84750000D02*
X113150000Y-78250000D01*
D11*
%TO.C,U6*%
G36*
X112696879Y-71813180D02*
G01*
X112696879Y-71400000D01*
X113090009Y-71400000D01*
X113090009Y-71813180D01*
X112696879Y-71813180D01*
G37*
X112696879Y-71813180D02*
X112696879Y-71400000D01*
X113090009Y-71400000D01*
X113090009Y-71813180D01*
X112696879Y-71813180D01*
G36*
X113796879Y-69806260D02*
G01*
X113796879Y-69200000D01*
X114394239Y-69200000D01*
X114394239Y-69806260D01*
X113796879Y-69806260D01*
G37*
X113796879Y-69806260D02*
X113796879Y-69200000D01*
X114394239Y-69200000D01*
X114394239Y-69806260D01*
X113796879Y-69806260D01*
D12*
X113120485Y-71600000D02*
G75*
G03*
X113120485Y-71600000I-223606J0D01*
G01*
X114457432Y-69500000D02*
G75*
G03*
X114457432Y-69500000I-360553J0D01*
G01*
X117846879Y-70450000D02*
X113146879Y-70450000D01*
X117846879Y-63950000D02*
X117846879Y-70450000D01*
X113146879Y-63950000D02*
X117846879Y-63950000D01*
X113146879Y-70450000D02*
X113146879Y-63950000D01*
D13*
%TO.C,J10*%
X66840000Y-111380000D02*
X66840000Y-121540000D01*
X74460000Y-111380000D02*
X66840000Y-111380000D01*
X74460000Y-121540000D02*
X74460000Y-111380000D01*
X66840000Y-121540000D02*
X74460000Y-121540000D01*
X68110000Y-121540000D02*
X68110000Y-111380000D01*
%TO.C,J9*%
X66840000Y-92356666D02*
X66840000Y-102516666D01*
X74460000Y-92356666D02*
X66840000Y-92356666D01*
X74460000Y-102516666D02*
X74460000Y-92356666D01*
X66840000Y-102516666D02*
X74460000Y-102516666D01*
X68110000Y-102516666D02*
X68110000Y-92356666D01*
%TO.C,J8*%
X66840000Y-73333333D02*
X66840000Y-83493333D01*
X74460000Y-73333333D02*
X66840000Y-73333333D01*
X74460000Y-83493333D02*
X74460000Y-73333333D01*
X66840000Y-83493333D02*
X74460000Y-83493333D01*
X68110000Y-83493333D02*
X68110000Y-73333333D01*
%TO.C,J7*%
X66840000Y-54310000D02*
X66840000Y-64470000D01*
X74460000Y-54310000D02*
X66840000Y-54310000D01*
X74460000Y-64470000D02*
X74460000Y-54310000D01*
X66840000Y-64470000D02*
X74460000Y-64470000D01*
X68110000Y-64470000D02*
X68110000Y-54310000D01*
%TO.C,U5*%
X213400000Y-122550000D02*
X173400000Y-122550000D01*
X213400000Y-82550000D02*
X213400000Y-122550000D01*
X173400000Y-82550000D02*
X213400000Y-82550000D01*
X173400000Y-122550000D02*
X173400000Y-82550000D01*
%TO.C,K1*%
X96050000Y-58100000D02*
X96050000Y-51600000D01*
X96050000Y-67000000D02*
X96050000Y-60500000D01*
X96050000Y-67000000D02*
X76850000Y-67000000D01*
X76850000Y-67000000D02*
X76850000Y-51600000D01*
X76850000Y-51600000D02*
X96050000Y-51600000D01*
X80350000Y-55000000D02*
X80350000Y-57300000D01*
X80350000Y-63600000D02*
X80350000Y-61300000D01*
X90850000Y-53300000D02*
X88550000Y-53300000D01*
X91950000Y-59300000D02*
X92850000Y-59300000D01*
X88550000Y-65300000D02*
X90850000Y-65300000D01*
X85050000Y-59300000D02*
X83550000Y-59300000D01*
X83550000Y-59300000D02*
X79050000Y-62000000D01*
X85050000Y-55600000D02*
X91950000Y-55600000D01*
X85050000Y-59300000D02*
X85050000Y-55600000D01*
X91950000Y-59300000D02*
X91950000Y-55600000D01*
X88550000Y-65300000D02*
X88550000Y-60800000D01*
X88550000Y-57800000D02*
X88550000Y-53300000D01*
X86050000Y-57800000D02*
X91050000Y-60800000D01*
X91050000Y-57800000D02*
X91050000Y-60800000D01*
X91050000Y-60800000D02*
X86050000Y-60800000D01*
X86050000Y-60800000D02*
X86050000Y-57800000D01*
X86050000Y-57800000D02*
X91050000Y-57800000D01*
D14*
%TO.C,U4*%
X203375000Y-76575000D02*
X202200000Y-76575000D01*
X180225000Y-56625000D02*
X181600000Y-56625000D01*
X180225000Y-76575000D02*
X181600000Y-76575000D01*
X203375000Y-56625000D02*
X202200000Y-56625000D01*
D10*
X200850000Y-56000000D02*
G75*
G03*
X200850000Y-56000000I-150000J0D01*
G01*
D14*
X203375000Y-76575000D02*
X203375000Y-56625000D01*
X180225000Y-56625000D02*
X180225000Y-76575000D01*
D13*
%TO.C,C8*%
X168015000Y-96061252D02*
X168015000Y-95538748D01*
X169485000Y-96061252D02*
X169485000Y-95538748D01*
%TO.C,C7*%
X169535000Y-79988748D02*
X169535000Y-80511252D01*
X168065000Y-79988748D02*
X168065000Y-80511252D01*
%TO.C,K3*%
X96050000Y-96566666D02*
X96050000Y-90066666D01*
X96050000Y-105466666D02*
X96050000Y-98966666D01*
X96050000Y-105466666D02*
X76850000Y-105466666D01*
X76850000Y-105466666D02*
X76850000Y-90066666D01*
X76850000Y-90066666D02*
X96050000Y-90066666D01*
X80350000Y-93466666D02*
X80350000Y-95766666D01*
X80350000Y-102066666D02*
X80350000Y-99766666D01*
X90850000Y-91766666D02*
X88550000Y-91766666D01*
X91950000Y-97766666D02*
X92850000Y-97766666D01*
X88550000Y-103766666D02*
X90850000Y-103766666D01*
X85050000Y-97766666D02*
X83550000Y-97766666D01*
X83550000Y-97766666D02*
X79050000Y-100466666D01*
X85050000Y-94066666D02*
X91950000Y-94066666D01*
X85050000Y-97766666D02*
X85050000Y-94066666D01*
X91950000Y-97766666D02*
X91950000Y-94066666D01*
X88550000Y-103766666D02*
X88550000Y-99266666D01*
X88550000Y-96266666D02*
X88550000Y-91766666D01*
X86050000Y-96266666D02*
X91050000Y-99266666D01*
X91050000Y-96266666D02*
X91050000Y-99266666D01*
X91050000Y-99266666D02*
X86050000Y-99266666D01*
X86050000Y-99266666D02*
X86050000Y-96266666D01*
X86050000Y-96266666D02*
X91050000Y-96266666D01*
%TO.C,D3*%
X103000000Y-63850000D02*
X99700000Y-63850000D01*
X99700000Y-63850000D02*
X99700000Y-69250000D01*
X103000000Y-63850000D02*
X103000000Y-69250000D01*
%TO.C,Q2*%
X105823334Y-66057500D02*
X107283334Y-66057500D01*
X105823334Y-69217500D02*
X107983334Y-69217500D01*
X105823334Y-69217500D02*
X105823334Y-68287500D01*
X105823334Y-66057500D02*
X105823334Y-66987500D01*
%TO.C,R25*%
X111185000Y-65222936D02*
X111185000Y-65677064D01*
X109715000Y-65222936D02*
X109715000Y-65677064D01*
%TO.C,R21*%
X109715000Y-69964564D02*
X109715000Y-69510436D01*
X111185000Y-69964564D02*
X111185000Y-69510436D01*
%TO.C,Q8*%
X159445000Y-65510000D02*
X159445000Y-64050000D01*
X162605000Y-65510000D02*
X162605000Y-63350000D01*
X162605000Y-65510000D02*
X161675000Y-65510000D01*
X159445000Y-65510000D02*
X160375000Y-65510000D01*
%TO.C,Q7*%
X166170000Y-65510000D02*
X166170000Y-64050000D01*
X169330000Y-65510000D02*
X169330000Y-63350000D01*
X169330000Y-65510000D02*
X168400000Y-65510000D01*
X166170000Y-65510000D02*
X167100000Y-65510000D01*
%TO.C,Q6*%
X172895000Y-65510000D02*
X172895000Y-64050000D01*
X176055000Y-65510000D02*
X176055000Y-63350000D01*
X176055000Y-65510000D02*
X175125000Y-65510000D01*
X172895000Y-65510000D02*
X173825000Y-65510000D01*
%TO.C,Q5*%
X105640000Y-106520000D02*
X107100000Y-106520000D01*
X105640000Y-109680000D02*
X107800000Y-109680000D01*
X105640000Y-109680000D02*
X105640000Y-108750000D01*
X105640000Y-106520000D02*
X105640000Y-107450000D01*
%TO.C,Q4*%
X105273334Y-93753332D02*
X106733334Y-93753332D01*
X105273334Y-96913332D02*
X107433334Y-96913332D01*
X105273334Y-96913332D02*
X105273334Y-95983332D01*
X105273334Y-93753332D02*
X105273334Y-94683332D01*
%TO.C,Q3*%
X105673334Y-80136666D02*
X107133334Y-80136666D01*
X105673334Y-83296666D02*
X107833334Y-83296666D01*
X105673334Y-83296666D02*
X105673334Y-82366666D01*
X105673334Y-80136666D02*
X105673334Y-81066666D01*
%TO.C,U1*%
X129930000Y-77400000D02*
X129550000Y-77400000D01*
X129930000Y-76980000D02*
X129930000Y-77400000D01*
X148170000Y-76980000D02*
X148170000Y-77400000D01*
X129930000Y-76980000D02*
X148170000Y-76980000D01*
X148170000Y-96420000D02*
X147170000Y-96420000D01*
X148170000Y-95800000D02*
X148170000Y-96420000D01*
X129930000Y-96420000D02*
X130930000Y-96420000D01*
X129930000Y-95800000D02*
X129930000Y-96420000D01*
%TO.C,D8*%
X191610000Y-50390000D02*
X188925000Y-50390000D01*
X191610000Y-52310000D02*
X191610000Y-50390000D01*
X188925000Y-52310000D02*
X191610000Y-52310000D01*
%TO.C,D7*%
X192740000Y-52310000D02*
X195425000Y-52310000D01*
X192740000Y-50390000D02*
X192740000Y-52310000D01*
X195425000Y-50390000D02*
X192740000Y-50390000D01*
%TO.C,J6*%
X161115000Y-50120000D02*
X161115000Y-56140000D01*
X161115000Y-56140000D02*
X174035000Y-56140000D01*
X174035000Y-56140000D02*
X174035000Y-50120000D01*
X174035000Y-50120000D02*
X161115000Y-50120000D01*
X160825000Y-51150000D02*
X160825000Y-55150000D01*
X162495000Y-56140000D02*
X162495000Y-55140000D01*
X162495000Y-55140000D02*
X172655000Y-55140000D01*
X172655000Y-55140000D02*
X172655000Y-56140000D01*
X162495000Y-55140000D02*
X162745000Y-54610000D01*
X162745000Y-54610000D02*
X172405000Y-54610000D01*
X172405000Y-54610000D02*
X172655000Y-55140000D01*
X162745000Y-56140000D02*
X162745000Y-55140000D01*
X172405000Y-56140000D02*
X172405000Y-55140000D01*
X161695000Y-50120000D02*
X161695000Y-50720000D01*
X161695000Y-50720000D02*
X163295000Y-50720000D01*
X163295000Y-50720000D02*
X163295000Y-50120000D01*
X164235000Y-50120000D02*
X164235000Y-50720000D01*
X164235000Y-50720000D02*
X165835000Y-50720000D01*
X165835000Y-50720000D02*
X165835000Y-50120000D01*
X166775000Y-50120000D02*
X166775000Y-50720000D01*
X166775000Y-50720000D02*
X168375000Y-50720000D01*
X168375000Y-50720000D02*
X168375000Y-50120000D01*
X169315000Y-50120000D02*
X169315000Y-50720000D01*
X169315000Y-50720000D02*
X170915000Y-50720000D01*
X170915000Y-50720000D02*
X170915000Y-50120000D01*
X171855000Y-50120000D02*
X171855000Y-50720000D01*
X171855000Y-50720000D02*
X173455000Y-50720000D01*
X173455000Y-50720000D02*
X173455000Y-50120000D01*
%TO.C,J13*%
X159695000Y-74220000D02*
X162355000Y-74220000D01*
X159695000Y-71620000D02*
X159695000Y-74220000D01*
X162355000Y-71620000D02*
X162355000Y-74220000D01*
X159695000Y-71620000D02*
X162355000Y-71620000D01*
X159695000Y-70350000D02*
X159695000Y-69020000D01*
X159695000Y-69020000D02*
X161025000Y-69020000D01*
%TO.C,J12*%
X166445000Y-74220000D02*
X169105000Y-74220000D01*
X166445000Y-71620000D02*
X166445000Y-74220000D01*
X169105000Y-71620000D02*
X169105000Y-74220000D01*
X166445000Y-71620000D02*
X169105000Y-71620000D01*
X166445000Y-70350000D02*
X166445000Y-69020000D01*
X166445000Y-69020000D02*
X167775000Y-69020000D01*
%TO.C,J11*%
X173145000Y-74220000D02*
X175805000Y-74220000D01*
X173145000Y-71620000D02*
X173145000Y-74220000D01*
X175805000Y-71620000D02*
X175805000Y-74220000D01*
X173145000Y-71620000D02*
X175805000Y-71620000D01*
X173145000Y-70350000D02*
X173145000Y-69020000D01*
X173145000Y-69020000D02*
X174475000Y-69020000D01*
%TO.C,R31*%
X160290000Y-59602064D02*
X160290000Y-59147936D01*
X161760000Y-59602064D02*
X161760000Y-59147936D01*
%TO.C,R30*%
X167015000Y-59602064D02*
X167015000Y-59147936D01*
X168485000Y-59602064D02*
X168485000Y-59147936D01*
%TO.C,R29*%
X173740000Y-59602064D02*
X173740000Y-59147936D01*
X175210000Y-59602064D02*
X175210000Y-59147936D01*
%TO.C,SW2*%
X160275000Y-98025000D02*
X160725000Y-98475000D01*
X163675000Y-98025000D02*
X163225000Y-98475000D01*
X163675000Y-93425000D02*
X163225000Y-92975000D01*
X160275000Y-93425000D02*
X160725000Y-92975000D01*
X164725000Y-94725000D02*
X164725000Y-96725000D01*
X160725000Y-98475000D02*
X163225000Y-98475000D01*
X159225000Y-94725000D02*
X159225000Y-96725000D01*
X160725000Y-92975000D02*
X163225000Y-92975000D01*
%TO.C,R28*%
X110485000Y-105797936D02*
X110485000Y-106252064D01*
X109015000Y-105797936D02*
X109015000Y-106252064D01*
%TO.C,R27*%
X110635000Y-93010436D02*
X110635000Y-93464564D01*
X109165000Y-93010436D02*
X109165000Y-93464564D01*
%TO.C,R26*%
X111035000Y-79422936D02*
X111035000Y-79877064D01*
X109565000Y-79422936D02*
X109565000Y-79877064D01*
%TO.C,R24*%
X109015000Y-110439564D02*
X109015000Y-109985436D01*
X110485000Y-110439564D02*
X110485000Y-109985436D01*
%TO.C,R23*%
X109165000Y-97639564D02*
X109165000Y-97185436D01*
X110635000Y-97639564D02*
X110635000Y-97185436D01*
%TO.C,R22*%
X109565000Y-84139564D02*
X109565000Y-83685436D01*
X111035000Y-84139564D02*
X111035000Y-83685436D01*
%TO.C,R20*%
X121285000Y-107922936D02*
X121285000Y-108377064D01*
X119815000Y-107922936D02*
X119815000Y-108377064D01*
%TO.C,R19*%
X121260000Y-94422936D02*
X121260000Y-94877064D01*
X119790000Y-94422936D02*
X119790000Y-94877064D01*
%TO.C,R18*%
X121435000Y-78772936D02*
X121435000Y-79227064D01*
X119965000Y-78772936D02*
X119965000Y-79227064D01*
%TO.C,R17*%
X121135000Y-66822936D02*
X121135000Y-67277064D01*
X119665000Y-66822936D02*
X119665000Y-67277064D01*
%TO.C,K4*%
X96050000Y-115800000D02*
X96050000Y-109300000D01*
X96050000Y-124700000D02*
X96050000Y-118200000D01*
X96050000Y-124700000D02*
X76850000Y-124700000D01*
X76850000Y-124700000D02*
X76850000Y-109300000D01*
X76850000Y-109300000D02*
X96050000Y-109300000D01*
X80350000Y-112700000D02*
X80350000Y-115000000D01*
X80350000Y-121300000D02*
X80350000Y-119000000D01*
X90850000Y-111000000D02*
X88550000Y-111000000D01*
X91950000Y-117000000D02*
X92850000Y-117000000D01*
X88550000Y-123000000D02*
X90850000Y-123000000D01*
X85050000Y-117000000D02*
X83550000Y-117000000D01*
X83550000Y-117000000D02*
X79050000Y-119700000D01*
X85050000Y-113300000D02*
X91950000Y-113300000D01*
X85050000Y-117000000D02*
X85050000Y-113300000D01*
X91950000Y-117000000D02*
X91950000Y-113300000D01*
X88550000Y-123000000D02*
X88550000Y-118500000D01*
X88550000Y-115500000D02*
X88550000Y-111000000D01*
X86050000Y-115500000D02*
X91050000Y-118500000D01*
X91050000Y-115500000D02*
X91050000Y-118500000D01*
X91050000Y-118500000D02*
X86050000Y-118500000D01*
X86050000Y-118500000D02*
X86050000Y-115500000D01*
X86050000Y-115500000D02*
X91050000Y-115500000D01*
%TO.C,K2*%
X96050000Y-77333333D02*
X96050000Y-70833333D01*
X96050000Y-86233333D02*
X96050000Y-79733333D01*
X96050000Y-86233333D02*
X76850000Y-86233333D01*
X76850000Y-86233333D02*
X76850000Y-70833333D01*
X76850000Y-70833333D02*
X96050000Y-70833333D01*
X80350000Y-74233333D02*
X80350000Y-76533333D01*
X80350000Y-82833333D02*
X80350000Y-80533333D01*
X90850000Y-72533333D02*
X88550000Y-72533333D01*
X91950000Y-78533333D02*
X92850000Y-78533333D01*
X88550000Y-84533333D02*
X90850000Y-84533333D01*
X85050000Y-78533333D02*
X83550000Y-78533333D01*
X83550000Y-78533333D02*
X79050000Y-81233333D01*
X85050000Y-74833333D02*
X91950000Y-74833333D01*
X85050000Y-78533333D02*
X85050000Y-74833333D01*
X91950000Y-78533333D02*
X91950000Y-74833333D01*
X88550000Y-84533333D02*
X88550000Y-80033333D01*
X88550000Y-77033333D02*
X88550000Y-72533333D01*
X86050000Y-77033333D02*
X91050000Y-80033333D01*
X91050000Y-77033333D02*
X91050000Y-80033333D01*
X91050000Y-80033333D02*
X86050000Y-80033333D01*
X86050000Y-80033333D02*
X86050000Y-77033333D01*
X86050000Y-77033333D02*
X91050000Y-77033333D01*
%TO.C,D6*%
X102300000Y-104700000D02*
X99000000Y-104700000D01*
X99000000Y-104700000D02*
X99000000Y-110100000D01*
X102300000Y-104700000D02*
X102300000Y-110100000D01*
%TO.C,D5*%
X102450000Y-91933332D02*
X99150000Y-91933332D01*
X99150000Y-91933332D02*
X99150000Y-97333332D01*
X102450000Y-91933332D02*
X102450000Y-97333332D01*
%TO.C,D4*%
X102850000Y-78316666D02*
X99550000Y-78316666D01*
X99550000Y-78316666D02*
X99550000Y-83716666D01*
X102850000Y-78316666D02*
X102850000Y-83716666D01*
%TO.C,R16*%
X189810000Y-102752064D02*
X189810000Y-102297936D01*
X188340000Y-102752064D02*
X188340000Y-102297936D01*
%TO.C,R15*%
X191615000Y-102297936D02*
X191615000Y-102752064D01*
X193085000Y-102297936D02*
X193085000Y-102752064D01*
%TO.C,Q1*%
X184290000Y-100945000D02*
X185750000Y-100945000D01*
X184290000Y-104105000D02*
X186450000Y-104105000D01*
X184290000Y-104105000D02*
X184290000Y-103175000D01*
X184290000Y-100945000D02*
X184290000Y-101875000D01*
%TO.C,R14*%
X190152064Y-53065000D02*
X189697936Y-53065000D01*
X190152064Y-54535000D02*
X189697936Y-54535000D01*
%TO.C,R13*%
X194157936Y-54535000D02*
X194612064Y-54535000D01*
X194157936Y-53065000D02*
X194612064Y-53065000D01*
%TO.C,SW1*%
X160775000Y-77575000D02*
X163275000Y-77575000D01*
X159275000Y-79325000D02*
X159275000Y-81325000D01*
X160775000Y-83075000D02*
X163275000Y-83075000D01*
X164775000Y-79325000D02*
X164775000Y-81325000D01*
X160325000Y-78025000D02*
X160775000Y-77575000D01*
X163725000Y-78025000D02*
X163275000Y-77575000D01*
X163725000Y-82625000D02*
X163275000Y-83075000D01*
X160325000Y-82625000D02*
X160775000Y-83075000D01*
%TO.C,R12*%
X158215000Y-113397936D02*
X158215000Y-113852064D01*
X159685000Y-113397936D02*
X159685000Y-113852064D01*
%TO.C,R11*%
X155665000Y-113397936D02*
X155665000Y-113852064D01*
X157135000Y-113397936D02*
X157135000Y-113852064D01*
%TO.C,R9*%
X140360000Y-109152064D02*
X140360000Y-108697936D01*
X138890000Y-109152064D02*
X138890000Y-108697936D01*
%TO.C,R8*%
X129360000Y-109152064D02*
X129360000Y-108697936D01*
X127890000Y-109152064D02*
X127890000Y-108697936D01*
%TO.C,R7*%
X129360000Y-113852064D02*
X129360000Y-113397936D01*
X127890000Y-113852064D02*
X127890000Y-113397936D01*
%TO.C,R6*%
X140360000Y-113852064D02*
X140360000Y-113397936D01*
X138890000Y-113852064D02*
X138890000Y-113397936D01*
%TO.C,R5*%
X153582936Y-68710000D02*
X154037064Y-68710000D01*
X153582936Y-67240000D02*
X154037064Y-67240000D01*
%TO.C,R4*%
X141272936Y-69060000D02*
X141727064Y-69060000D01*
X141272936Y-67590000D02*
X141727064Y-67590000D01*
%TO.C,R3*%
X154037064Y-60390000D02*
X153582936Y-60390000D01*
X154037064Y-61860000D02*
X153582936Y-61860000D01*
%TO.C,R2*%
X141272936Y-61910000D02*
X141727064Y-61910000D01*
X141272936Y-60440000D02*
X141727064Y-60440000D01*
%TO.C,D2*%
X152165000Y-65510000D02*
X154850000Y-65510000D01*
X152165000Y-63590000D02*
X152165000Y-65510000D01*
X154850000Y-63590000D02*
X152165000Y-63590000D01*
%TO.C,D1*%
X139855000Y-65710000D02*
X142540000Y-65710000D01*
X139855000Y-63790000D02*
X139855000Y-65710000D01*
X142540000Y-63790000D02*
X139855000Y-63790000D01*
%TO.C,C6*%
X128060000Y-79336252D02*
X128060000Y-78813748D01*
X126590000Y-79336252D02*
X126590000Y-78813748D01*
%TO.C,C5*%
X123790000Y-78813748D02*
X123790000Y-79336252D01*
X125260000Y-78813748D02*
X125260000Y-79336252D01*
%TO.C,U3*%
X153110000Y-52265000D02*
X151850000Y-52265000D01*
X146290000Y-52265000D02*
X147550000Y-52265000D01*
X153110000Y-56025000D02*
X153110000Y-52265000D01*
X146290000Y-58275000D02*
X146290000Y-52265000D01*
%TO.C,U2*%
X140760000Y-52365000D02*
X139500000Y-52365000D01*
X133940000Y-52365000D02*
X135200000Y-52365000D01*
X140760000Y-56125000D02*
X140760000Y-52365000D01*
X133940000Y-58375000D02*
X133940000Y-52365000D01*
%TO.C,R1*%
X147215000Y-113852064D02*
X147215000Y-113397936D01*
X148685000Y-113852064D02*
X148685000Y-113397936D01*
%TO.C,J5*%
X143523333Y-123805000D02*
X143523333Y-117785000D01*
X143523333Y-117785000D02*
X135683333Y-117785000D01*
X135683333Y-117785000D02*
X135683333Y-123805000D01*
X135683333Y-123805000D02*
X143523333Y-123805000D01*
X143813333Y-122775000D02*
X143813333Y-118775000D01*
X142143333Y-117785000D02*
X142143333Y-118785000D01*
X142143333Y-118785000D02*
X137063333Y-118785000D01*
X137063333Y-118785000D02*
X137063333Y-117785000D01*
X142143333Y-118785000D02*
X141893333Y-119315000D01*
X141893333Y-119315000D02*
X137313333Y-119315000D01*
X137313333Y-119315000D02*
X137063333Y-118785000D01*
X141893333Y-117785000D02*
X141893333Y-118785000D01*
X137313333Y-117785000D02*
X137313333Y-118785000D01*
X142943333Y-123805000D02*
X142943333Y-123205000D01*
X142943333Y-123205000D02*
X141343333Y-123205000D01*
X141343333Y-123205000D02*
X141343333Y-123805000D01*
X140403333Y-123805000D02*
X140403333Y-123205000D01*
X140403333Y-123205000D02*
X138803333Y-123205000D01*
X138803333Y-123205000D02*
X138803333Y-123805000D01*
X137863333Y-123805000D02*
X137863333Y-123205000D01*
X137863333Y-123205000D02*
X136263333Y-123205000D01*
X136263333Y-123205000D02*
X136263333Y-123805000D01*
%TO.C,J4*%
X165420000Y-123805000D02*
X165420000Y-117785000D01*
X165420000Y-117785000D02*
X155040000Y-117785000D01*
X155040000Y-117785000D02*
X155040000Y-123805000D01*
X155040000Y-123805000D02*
X165420000Y-123805000D01*
X165710000Y-122775000D02*
X165710000Y-118775000D01*
X164040000Y-117785000D02*
X164040000Y-118785000D01*
X164040000Y-118785000D02*
X156420000Y-118785000D01*
X156420000Y-118785000D02*
X156420000Y-117785000D01*
X164040000Y-118785000D02*
X163790000Y-119315000D01*
X163790000Y-119315000D02*
X156670000Y-119315000D01*
X156670000Y-119315000D02*
X156420000Y-118785000D01*
X163790000Y-117785000D02*
X163790000Y-118785000D01*
X156670000Y-117785000D02*
X156670000Y-118785000D01*
X164840000Y-123805000D02*
X164840000Y-123205000D01*
X164840000Y-123205000D02*
X163240000Y-123205000D01*
X163240000Y-123205000D02*
X163240000Y-123805000D01*
X162300000Y-123805000D02*
X162300000Y-123205000D01*
X162300000Y-123205000D02*
X160700000Y-123205000D01*
X160700000Y-123205000D02*
X160700000Y-123805000D01*
X159760000Y-123805000D02*
X159760000Y-123205000D01*
X159760000Y-123205000D02*
X158160000Y-123205000D01*
X158160000Y-123205000D02*
X158160000Y-123805000D01*
X157220000Y-123805000D02*
X157220000Y-123205000D01*
X157220000Y-123205000D02*
X155620000Y-123205000D01*
X155620000Y-123205000D02*
X155620000Y-123805000D01*
%TO.C,J3*%
X132545000Y-123805000D02*
X132545000Y-117785000D01*
X132545000Y-117785000D02*
X124705000Y-117785000D01*
X124705000Y-117785000D02*
X124705000Y-123805000D01*
X124705000Y-123805000D02*
X132545000Y-123805000D01*
X132835000Y-122775000D02*
X132835000Y-118775000D01*
X131165000Y-117785000D02*
X131165000Y-118785000D01*
X131165000Y-118785000D02*
X126085000Y-118785000D01*
X126085000Y-118785000D02*
X126085000Y-117785000D01*
X131165000Y-118785000D02*
X130915000Y-119315000D01*
X130915000Y-119315000D02*
X126335000Y-119315000D01*
X126335000Y-119315000D02*
X126085000Y-118785000D01*
X130915000Y-117785000D02*
X130915000Y-118785000D01*
X126335000Y-117785000D02*
X126335000Y-118785000D01*
X131965000Y-123805000D02*
X131965000Y-123205000D01*
X131965000Y-123205000D02*
X130365000Y-123205000D01*
X130365000Y-123205000D02*
X130365000Y-123805000D01*
X129425000Y-123805000D02*
X129425000Y-123205000D01*
X129425000Y-123205000D02*
X127825000Y-123205000D01*
X127825000Y-123205000D02*
X127825000Y-123805000D01*
X126885000Y-123805000D02*
X126885000Y-123205000D01*
X126885000Y-123205000D02*
X125285000Y-123205000D01*
X125285000Y-123205000D02*
X125285000Y-123805000D01*
%TO.C,J2*%
X151931666Y-123805000D02*
X151931666Y-117785000D01*
X151931666Y-117785000D02*
X146631666Y-117785000D01*
X146631666Y-117785000D02*
X146631666Y-123805000D01*
X146631666Y-123805000D02*
X151931666Y-123805000D01*
X152221666Y-122775000D02*
X152221666Y-118775000D01*
X150551666Y-117785000D02*
X150551666Y-118785000D01*
X150551666Y-118785000D02*
X148011666Y-118785000D01*
X148011666Y-118785000D02*
X148011666Y-117785000D01*
X150551666Y-118785000D02*
X150301666Y-119315000D01*
X150301666Y-119315000D02*
X148261666Y-119315000D01*
X148261666Y-119315000D02*
X148011666Y-118785000D01*
X150301666Y-117785000D02*
X150301666Y-118785000D01*
X148261666Y-117785000D02*
X148261666Y-118785000D01*
X151351666Y-123805000D02*
X151351666Y-123205000D01*
X151351666Y-123205000D02*
X149751666Y-123205000D01*
X149751666Y-123205000D02*
X149751666Y-123805000D01*
X148811666Y-123805000D02*
X148811666Y-123205000D01*
X148811666Y-123205000D02*
X147211666Y-123205000D01*
X147211666Y-123205000D02*
X147211666Y-123805000D01*
%TO.C,J1*%
X122830000Y-50120000D02*
X122830000Y-56140000D01*
X122830000Y-56140000D02*
X130670000Y-56140000D01*
X130670000Y-56140000D02*
X130670000Y-50120000D01*
X130670000Y-50120000D02*
X122830000Y-50120000D01*
X122540000Y-51150000D02*
X122540000Y-55150000D01*
X124210000Y-56140000D02*
X124210000Y-55140000D01*
X124210000Y-55140000D02*
X129290000Y-55140000D01*
X129290000Y-55140000D02*
X129290000Y-56140000D01*
X124210000Y-55140000D02*
X124460000Y-54610000D01*
X124460000Y-54610000D02*
X129040000Y-54610000D01*
X129040000Y-54610000D02*
X129290000Y-55140000D01*
X124460000Y-56140000D02*
X124460000Y-55140000D01*
X129040000Y-56140000D02*
X129040000Y-55140000D01*
X123410000Y-50120000D02*
X123410000Y-50720000D01*
X123410000Y-50720000D02*
X125010000Y-50720000D01*
X125010000Y-50720000D02*
X125010000Y-50120000D01*
X125950000Y-50120000D02*
X125950000Y-50720000D01*
X125950000Y-50720000D02*
X127550000Y-50720000D01*
X127550000Y-50720000D02*
X127550000Y-50120000D01*
X128490000Y-50120000D02*
X128490000Y-50720000D01*
X128490000Y-50720000D02*
X130090000Y-50720000D01*
X130090000Y-50720000D02*
X130090000Y-50120000D01*
%TO.C,C4*%
X136261252Y-61910000D02*
X135738748Y-61910000D01*
X136261252Y-60440000D02*
X135738748Y-60440000D01*
%TO.C,C3*%
X148611252Y-61860000D02*
X148088748Y-61860000D01*
X148611252Y-60390000D02*
X148088748Y-60390000D01*
%TO.C,C2*%
X148611252Y-65560000D02*
X148088748Y-65560000D01*
X148611252Y-64090000D02*
X148088748Y-64090000D01*
%TO.C,C1*%
X136261252Y-65560000D02*
X135738748Y-65560000D01*
X136261252Y-64090000D02*
X135738748Y-64090000D01*
%TO.C,U9*%
D15*
X111170677Y-108954274D02*
X111982719Y-108954274D01*
X112078253Y-108906507D01*
X112126020Y-108858740D01*
X112173787Y-108763205D01*
X112173787Y-108572137D01*
X112126020Y-108476602D01*
X112078253Y-108428835D01*
X111982719Y-108381068D01*
X111170677Y-108381068D01*
X112173787Y-107855630D02*
X112173787Y-107664561D01*
X112126020Y-107569027D01*
X112078253Y-107521260D01*
X111934952Y-107425725D01*
X111743883Y-107377958D01*
X111361746Y-107377958D01*
X111266212Y-107425725D01*
X111218445Y-107473492D01*
X111170677Y-107569027D01*
X111170677Y-107760095D01*
X111218445Y-107855630D01*
X111266212Y-107903397D01*
X111361746Y-107951164D01*
X111600582Y-107951164D01*
X111696116Y-107903397D01*
X111743883Y-107855630D01*
X111791650Y-107760095D01*
X111791650Y-107569027D01*
X111743883Y-107473492D01*
X111696116Y-107425725D01*
X111600582Y-107377958D01*
%TO.C,U8*%
X111310677Y-95654274D02*
X112122719Y-95654274D01*
X112218253Y-95606507D01*
X112266020Y-95558740D01*
X112313787Y-95463205D01*
X112313787Y-95272137D01*
X112266020Y-95176602D01*
X112218253Y-95128835D01*
X112122719Y-95081068D01*
X111310677Y-95081068D01*
X111740582Y-94460095D02*
X111692815Y-94555630D01*
X111645047Y-94603397D01*
X111549513Y-94651164D01*
X111501746Y-94651164D01*
X111406212Y-94603397D01*
X111358445Y-94555630D01*
X111310677Y-94460095D01*
X111310677Y-94269027D01*
X111358445Y-94173492D01*
X111406212Y-94125725D01*
X111501746Y-94077958D01*
X111549513Y-94077958D01*
X111645047Y-94125725D01*
X111692815Y-94173492D01*
X111740582Y-94269027D01*
X111740582Y-94460095D01*
X111788349Y-94555630D01*
X111836116Y-94603397D01*
X111931650Y-94651164D01*
X112122719Y-94651164D01*
X112218253Y-94603397D01*
X112266020Y-94555630D01*
X112313787Y-94460095D01*
X112313787Y-94269027D01*
X112266020Y-94173492D01*
X112218253Y-94125725D01*
X112122719Y-94077958D01*
X111931650Y-94077958D01*
X111836116Y-94125725D01*
X111788349Y-94173492D01*
X111740582Y-94269027D01*
%TO.C,U7*%
X111510677Y-82284274D02*
X112322719Y-82284274D01*
X112418253Y-82236507D01*
X112466020Y-82188740D01*
X112513787Y-82093205D01*
X112513787Y-81902137D01*
X112466020Y-81806602D01*
X112418253Y-81758835D01*
X112322719Y-81711068D01*
X111510677Y-81711068D01*
X111510677Y-81328931D02*
X111510677Y-80660191D01*
X112513787Y-81090095D01*
%TO.C,U6*%
X111630677Y-67994274D02*
X112442719Y-67994274D01*
X112538253Y-67946507D01*
X112586020Y-67898740D01*
X112633787Y-67803205D01*
X112633787Y-67612137D01*
X112586020Y-67516602D01*
X112538253Y-67468835D01*
X112442719Y-67421068D01*
X111630677Y-67421068D01*
X111630677Y-66513492D02*
X111630677Y-66704561D01*
X111678445Y-66800095D01*
X111726212Y-66847862D01*
X111869513Y-66943397D01*
X112060582Y-66991164D01*
X112442719Y-66991164D01*
X112538253Y-66943397D01*
X112586020Y-66895630D01*
X112633787Y-66800095D01*
X112633787Y-66609027D01*
X112586020Y-66513492D01*
X112538253Y-66465725D01*
X112442719Y-66417958D01*
X112203883Y-66417958D01*
X112108349Y-66465725D01*
X112060582Y-66513492D01*
X112012815Y-66609027D01*
X112012815Y-66800095D01*
X112060582Y-66895630D01*
X112108349Y-66943397D01*
X112203883Y-66991164D01*
%TO.C,AE1*%
X206666666Y-56066666D02*
X206666666Y-55590476D01*
X206952380Y-56161904D02*
X205952380Y-55828571D01*
X206952380Y-55495238D01*
X206428571Y-55161904D02*
X206428571Y-54828571D01*
X206952380Y-54685714D02*
X206952380Y-55161904D01*
X205952380Y-55161904D01*
X205952380Y-54685714D01*
X206952380Y-53733333D02*
X206952380Y-54304761D01*
X206952380Y-54019047D02*
X205952380Y-54019047D01*
X206095238Y-54114285D01*
X206190476Y-54209523D01*
X206238095Y-54304761D01*
%TO.C,H3*%
X104168095Y-119292380D02*
X104168095Y-118292380D01*
X104168095Y-118768571D02*
X104739523Y-118768571D01*
X104739523Y-119292380D02*
X104739523Y-118292380D01*
X105120476Y-118292380D02*
X105739523Y-118292380D01*
X105406190Y-118673333D01*
X105549047Y-118673333D01*
X105644285Y-118720952D01*
X105691904Y-118768571D01*
X105739523Y-118863809D01*
X105739523Y-119101904D01*
X105691904Y-119197142D01*
X105644285Y-119244761D01*
X105549047Y-119292380D01*
X105263333Y-119292380D01*
X105168095Y-119244761D01*
X105120476Y-119197142D01*
%TO.C,H2*%
X216588095Y-116052380D02*
X216588095Y-115052380D01*
X216588095Y-115528571D02*
X217159523Y-115528571D01*
X217159523Y-116052380D02*
X217159523Y-115052380D01*
X217588095Y-115147619D02*
X217635714Y-115100000D01*
X217730952Y-115052380D01*
X217969047Y-115052380D01*
X218064285Y-115100000D01*
X218111904Y-115147619D01*
X218159523Y-115242857D01*
X218159523Y-115338095D01*
X218111904Y-115480952D01*
X217540476Y-116052380D01*
X218159523Y-116052380D01*
%TO.C,H1*%
X108938095Y-49602380D02*
X108938095Y-48602380D01*
X108938095Y-49078571D02*
X109509523Y-49078571D01*
X109509523Y-49602380D02*
X109509523Y-48602380D01*
X110509523Y-49602380D02*
X109938095Y-49602380D01*
X110223809Y-49602380D02*
X110223809Y-48602380D01*
X110128571Y-48745238D01*
X110033333Y-48840476D01*
X109938095Y-48888095D01*
%TO.C,J10*%
X75182380Y-117269523D02*
X75896666Y-117269523D01*
X76039523Y-117317142D01*
X76134761Y-117412380D01*
X76182380Y-117555238D01*
X76182380Y-117650476D01*
X76182380Y-116269523D02*
X76182380Y-116840952D01*
X76182380Y-116555238D02*
X75182380Y-116555238D01*
X75325238Y-116650476D01*
X75420476Y-116745714D01*
X75468095Y-116840952D01*
X75182380Y-115650476D02*
X75182380Y-115555238D01*
X75230000Y-115460000D01*
X75277619Y-115412380D01*
X75372857Y-115364761D01*
X75563333Y-115317142D01*
X75801428Y-115317142D01*
X75991904Y-115364761D01*
X76087142Y-115412380D01*
X76134761Y-115460000D01*
X76182380Y-115555238D01*
X76182380Y-115650476D01*
X76134761Y-115745714D01*
X76087142Y-115793333D01*
X75991904Y-115840952D01*
X75801428Y-115888571D01*
X75563333Y-115888571D01*
X75372857Y-115840952D01*
X75277619Y-115793333D01*
X75230000Y-115745714D01*
X75182380Y-115650476D01*
%TO.C,J9*%
X75182380Y-97769999D02*
X75896666Y-97769999D01*
X76039523Y-97817618D01*
X76134761Y-97912856D01*
X76182380Y-98055713D01*
X76182380Y-98150951D01*
X76182380Y-97246189D02*
X76182380Y-97055713D01*
X76134761Y-96960475D01*
X76087142Y-96912856D01*
X75944285Y-96817618D01*
X75753809Y-96769999D01*
X75372857Y-96769999D01*
X75277619Y-96817618D01*
X75230000Y-96865237D01*
X75182380Y-96960475D01*
X75182380Y-97150951D01*
X75230000Y-97246189D01*
X75277619Y-97293808D01*
X75372857Y-97341427D01*
X75610952Y-97341427D01*
X75706190Y-97293808D01*
X75753809Y-97246189D01*
X75801428Y-97150951D01*
X75801428Y-96960475D01*
X75753809Y-96865237D01*
X75706190Y-96817618D01*
X75610952Y-96769999D01*
%TO.C,J8*%
X75182380Y-78746666D02*
X75896666Y-78746666D01*
X76039523Y-78794285D01*
X76134761Y-78889523D01*
X76182380Y-79032380D01*
X76182380Y-79127618D01*
X75610952Y-78127618D02*
X75563333Y-78222856D01*
X75515714Y-78270475D01*
X75420476Y-78318094D01*
X75372857Y-78318094D01*
X75277619Y-78270475D01*
X75230000Y-78222856D01*
X75182380Y-78127618D01*
X75182380Y-77937142D01*
X75230000Y-77841904D01*
X75277619Y-77794285D01*
X75372857Y-77746666D01*
X75420476Y-77746666D01*
X75515714Y-77794285D01*
X75563333Y-77841904D01*
X75610952Y-77937142D01*
X75610952Y-78127618D01*
X75658571Y-78222856D01*
X75706190Y-78270475D01*
X75801428Y-78318094D01*
X75991904Y-78318094D01*
X76087142Y-78270475D01*
X76134761Y-78222856D01*
X76182380Y-78127618D01*
X76182380Y-77937142D01*
X76134761Y-77841904D01*
X76087142Y-77794285D01*
X75991904Y-77746666D01*
X75801428Y-77746666D01*
X75706190Y-77794285D01*
X75658571Y-77841904D01*
X75610952Y-77937142D01*
%TO.C,J7*%
X65277380Y-59618333D02*
X65991666Y-59618333D01*
X66134523Y-59665952D01*
X66229761Y-59761190D01*
X66277380Y-59904047D01*
X66277380Y-59999285D01*
X65277380Y-59237380D02*
X65277380Y-58570714D01*
X66277380Y-58999285D01*
%TO.C,U5*%
X192130095Y-120544380D02*
X192130095Y-121353904D01*
X192177714Y-121449142D01*
X192225333Y-121496761D01*
X192320571Y-121544380D01*
X192511047Y-121544380D01*
X192606285Y-121496761D01*
X192653904Y-121449142D01*
X192701523Y-121353904D01*
X192701523Y-120544380D01*
X193653904Y-120544380D02*
X193177714Y-120544380D01*
X193130095Y-121020571D01*
X193177714Y-120972952D01*
X193272952Y-120925333D01*
X193511047Y-120925333D01*
X193606285Y-120972952D01*
X193653904Y-121020571D01*
X193701523Y-121115809D01*
X193701523Y-121353904D01*
X193653904Y-121449142D01*
X193606285Y-121496761D01*
X193511047Y-121544380D01*
X193272952Y-121544380D01*
X193177714Y-121496761D01*
X193130095Y-121449142D01*
%TO.C,K1*%
X85711904Y-50552380D02*
X85711904Y-49552380D01*
X86283333Y-50552380D02*
X85854761Y-49980952D01*
X86283333Y-49552380D02*
X85711904Y-50123809D01*
X87235714Y-50552380D02*
X86664285Y-50552380D01*
X86950000Y-50552380D02*
X86950000Y-49552380D01*
X86854761Y-49695238D01*
X86759523Y-49790476D01*
X86664285Y-49838095D01*
%TO.C,U4*%
X178382371Y-58818004D02*
X179517126Y-58818004D01*
X179650627Y-58751254D01*
X179717377Y-58684504D01*
X179784127Y-58551003D01*
X179784127Y-58284002D01*
X179717377Y-58150501D01*
X179650627Y-58083751D01*
X179517126Y-58017001D01*
X178382371Y-58017001D01*
X178849623Y-56748745D02*
X179784127Y-56748745D01*
X178315621Y-57082497D02*
X179316875Y-57416248D01*
X179316875Y-56548494D01*
%TO.C,C8*%
X169007142Y-93216666D02*
X169054761Y-93264285D01*
X169102380Y-93407142D01*
X169102380Y-93502380D01*
X169054761Y-93645238D01*
X168959523Y-93740476D01*
X168864285Y-93788095D01*
X168673809Y-93835714D01*
X168530952Y-93835714D01*
X168340476Y-93788095D01*
X168245238Y-93740476D01*
X168150000Y-93645238D01*
X168102380Y-93502380D01*
X168102380Y-93407142D01*
X168150000Y-93264285D01*
X168197619Y-93216666D01*
X168530952Y-92645238D02*
X168483333Y-92740476D01*
X168435714Y-92788095D01*
X168340476Y-92835714D01*
X168292857Y-92835714D01*
X168197619Y-92788095D01*
X168150000Y-92740476D01*
X168102380Y-92645238D01*
X168102380Y-92454761D01*
X168150000Y-92359523D01*
X168197619Y-92311904D01*
X168292857Y-92264285D01*
X168340476Y-92264285D01*
X168435714Y-92311904D01*
X168483333Y-92359523D01*
X168530952Y-92454761D01*
X168530952Y-92645238D01*
X168578571Y-92740476D01*
X168626190Y-92788095D01*
X168721428Y-92835714D01*
X168911904Y-92835714D01*
X169007142Y-92788095D01*
X169054761Y-92740476D01*
X169102380Y-92645238D01*
X169102380Y-92454761D01*
X169054761Y-92359523D01*
X169007142Y-92311904D01*
X168911904Y-92264285D01*
X168721428Y-92264285D01*
X168626190Y-92311904D01*
X168578571Y-92359523D01*
X168530952Y-92454761D01*
%TO.C,C7*%
X169207142Y-77716666D02*
X169254761Y-77764285D01*
X169302380Y-77907142D01*
X169302380Y-78002380D01*
X169254761Y-78145238D01*
X169159523Y-78240476D01*
X169064285Y-78288095D01*
X168873809Y-78335714D01*
X168730952Y-78335714D01*
X168540476Y-78288095D01*
X168445238Y-78240476D01*
X168350000Y-78145238D01*
X168302380Y-78002380D01*
X168302380Y-77907142D01*
X168350000Y-77764285D01*
X168397619Y-77716666D01*
X168302380Y-77383333D02*
X168302380Y-76716666D01*
X169302380Y-77145238D01*
%TO.C,K3*%
X85711904Y-89019046D02*
X85711904Y-88019046D01*
X86283333Y-89019046D02*
X85854761Y-88447618D01*
X86283333Y-88019046D02*
X85711904Y-88590475D01*
X86616666Y-88019046D02*
X87235714Y-88019046D01*
X86902380Y-88399999D01*
X87045238Y-88399999D01*
X87140476Y-88447618D01*
X87188095Y-88495237D01*
X87235714Y-88590475D01*
X87235714Y-88828570D01*
X87188095Y-88923808D01*
X87140476Y-88971427D01*
X87045238Y-89019046D01*
X86759523Y-89019046D01*
X86664285Y-88971427D01*
X86616666Y-88923808D01*
%TO.C,D3*%
X104302380Y-67988095D02*
X103302380Y-67988095D01*
X103302380Y-67750000D01*
X103350000Y-67607142D01*
X103445238Y-67511904D01*
X103540476Y-67464285D01*
X103730952Y-67416666D01*
X103873809Y-67416666D01*
X104064285Y-67464285D01*
X104159523Y-67511904D01*
X104254761Y-67607142D01*
X104302380Y-67750000D01*
X104302380Y-67988095D01*
X103302380Y-67083333D02*
X103302380Y-66464285D01*
X103683333Y-66797619D01*
X103683333Y-66654761D01*
X103730952Y-66559523D01*
X103778571Y-66511904D01*
X103873809Y-66464285D01*
X104111904Y-66464285D01*
X104207142Y-66511904D01*
X104254761Y-66559523D01*
X104302380Y-66654761D01*
X104302380Y-66940476D01*
X104254761Y-67035714D01*
X104207142Y-67083333D01*
%TO.C,Q2*%
X106488095Y-70685119D02*
X106392857Y-70637500D01*
X106297619Y-70542261D01*
X106154762Y-70399404D01*
X106059524Y-70351785D01*
X105964286Y-70351785D01*
X106011905Y-70589880D02*
X105916667Y-70542261D01*
X105821429Y-70447023D01*
X105773810Y-70256547D01*
X105773810Y-69923214D01*
X105821429Y-69732738D01*
X105916667Y-69637500D01*
X106011905Y-69589880D01*
X106202381Y-69589880D01*
X106297619Y-69637500D01*
X106392857Y-69732738D01*
X106440476Y-69923214D01*
X106440476Y-70256547D01*
X106392857Y-70447023D01*
X106297619Y-70542261D01*
X106202381Y-70589880D01*
X106011905Y-70589880D01*
X106821429Y-69685119D02*
X106869048Y-69637500D01*
X106964286Y-69589880D01*
X107202381Y-69589880D01*
X107297619Y-69637500D01*
X107345238Y-69685119D01*
X107392857Y-69780357D01*
X107392857Y-69875595D01*
X107345238Y-70018452D01*
X106773810Y-70589880D01*
X107392857Y-70589880D01*
%TO.C,R25*%
X111002380Y-62992857D02*
X110526190Y-63326190D01*
X111002380Y-63564285D02*
X110002380Y-63564285D01*
X110002380Y-63183333D01*
X110050000Y-63088095D01*
X110097619Y-63040476D01*
X110192857Y-62992857D01*
X110335714Y-62992857D01*
X110430952Y-63040476D01*
X110478571Y-63088095D01*
X110526190Y-63183333D01*
X110526190Y-63564285D01*
X110097619Y-62611904D02*
X110050000Y-62564285D01*
X110002380Y-62469047D01*
X110002380Y-62230952D01*
X110050000Y-62135714D01*
X110097619Y-62088095D01*
X110192857Y-62040476D01*
X110288095Y-62040476D01*
X110430952Y-62088095D01*
X111002380Y-62659523D01*
X111002380Y-62040476D01*
X110002380Y-61135714D02*
X110002380Y-61611904D01*
X110478571Y-61659523D01*
X110430952Y-61611904D01*
X110383333Y-61516666D01*
X110383333Y-61278571D01*
X110430952Y-61183333D01*
X110478571Y-61135714D01*
X110573809Y-61088095D01*
X110811904Y-61088095D01*
X110907142Y-61135714D01*
X110954761Y-61183333D01*
X111002380Y-61278571D01*
X111002380Y-61516666D01*
X110954761Y-61611904D01*
X110907142Y-61659523D01*
%TO.C,R21*%
X111422380Y-73422857D02*
X110946190Y-73756190D01*
X111422380Y-73994285D02*
X110422380Y-73994285D01*
X110422380Y-73613333D01*
X110470000Y-73518095D01*
X110517619Y-73470476D01*
X110612857Y-73422857D01*
X110755714Y-73422857D01*
X110850952Y-73470476D01*
X110898571Y-73518095D01*
X110946190Y-73613333D01*
X110946190Y-73994285D01*
X110517619Y-73041904D02*
X110470000Y-72994285D01*
X110422380Y-72899047D01*
X110422380Y-72660952D01*
X110470000Y-72565714D01*
X110517619Y-72518095D01*
X110612857Y-72470476D01*
X110708095Y-72470476D01*
X110850952Y-72518095D01*
X111422380Y-73089523D01*
X111422380Y-72470476D01*
X111422380Y-71518095D02*
X111422380Y-72089523D01*
X111422380Y-71803809D02*
X110422380Y-71803809D01*
X110565238Y-71899047D01*
X110660476Y-71994285D01*
X110708095Y-72089523D01*
%TO.C,Q8*%
X164072619Y-64845238D02*
X164025000Y-64940476D01*
X163929761Y-65035714D01*
X163786904Y-65178571D01*
X163739285Y-65273809D01*
X163739285Y-65369047D01*
X163977380Y-65321428D02*
X163929761Y-65416666D01*
X163834523Y-65511904D01*
X163644047Y-65559523D01*
X163310714Y-65559523D01*
X163120238Y-65511904D01*
X163025000Y-65416666D01*
X162977380Y-65321428D01*
X162977380Y-65130952D01*
X163025000Y-65035714D01*
X163120238Y-64940476D01*
X163310714Y-64892857D01*
X163644047Y-64892857D01*
X163834523Y-64940476D01*
X163929761Y-65035714D01*
X163977380Y-65130952D01*
X163977380Y-65321428D01*
X163405952Y-64321428D02*
X163358333Y-64416666D01*
X163310714Y-64464285D01*
X163215476Y-64511904D01*
X163167857Y-64511904D01*
X163072619Y-64464285D01*
X163025000Y-64416666D01*
X162977380Y-64321428D01*
X162977380Y-64130952D01*
X163025000Y-64035714D01*
X163072619Y-63988095D01*
X163167857Y-63940476D01*
X163215476Y-63940476D01*
X163310714Y-63988095D01*
X163358333Y-64035714D01*
X163405952Y-64130952D01*
X163405952Y-64321428D01*
X163453571Y-64416666D01*
X163501190Y-64464285D01*
X163596428Y-64511904D01*
X163786904Y-64511904D01*
X163882142Y-64464285D01*
X163929761Y-64416666D01*
X163977380Y-64321428D01*
X163977380Y-64130952D01*
X163929761Y-64035714D01*
X163882142Y-63988095D01*
X163786904Y-63940476D01*
X163596428Y-63940476D01*
X163501190Y-63988095D01*
X163453571Y-64035714D01*
X163405952Y-64130952D01*
%TO.C,Q7*%
X170797619Y-64845238D02*
X170750000Y-64940476D01*
X170654761Y-65035714D01*
X170511904Y-65178571D01*
X170464285Y-65273809D01*
X170464285Y-65369047D01*
X170702380Y-65321428D02*
X170654761Y-65416666D01*
X170559523Y-65511904D01*
X170369047Y-65559523D01*
X170035714Y-65559523D01*
X169845238Y-65511904D01*
X169750000Y-65416666D01*
X169702380Y-65321428D01*
X169702380Y-65130952D01*
X169750000Y-65035714D01*
X169845238Y-64940476D01*
X170035714Y-64892857D01*
X170369047Y-64892857D01*
X170559523Y-64940476D01*
X170654761Y-65035714D01*
X170702380Y-65130952D01*
X170702380Y-65321428D01*
X169702380Y-64559523D02*
X169702380Y-63892857D01*
X170702380Y-64321428D01*
%TO.C,Q6*%
X177522619Y-64845238D02*
X177475000Y-64940476D01*
X177379761Y-65035714D01*
X177236904Y-65178571D01*
X177189285Y-65273809D01*
X177189285Y-65369047D01*
X177427380Y-65321428D02*
X177379761Y-65416666D01*
X177284523Y-65511904D01*
X177094047Y-65559523D01*
X176760714Y-65559523D01*
X176570238Y-65511904D01*
X176475000Y-65416666D01*
X176427380Y-65321428D01*
X176427380Y-65130952D01*
X176475000Y-65035714D01*
X176570238Y-64940476D01*
X176760714Y-64892857D01*
X177094047Y-64892857D01*
X177284523Y-64940476D01*
X177379761Y-65035714D01*
X177427380Y-65130952D01*
X177427380Y-65321428D01*
X176427380Y-64035714D02*
X176427380Y-64226190D01*
X176475000Y-64321428D01*
X176522619Y-64369047D01*
X176665476Y-64464285D01*
X176855952Y-64511904D01*
X177236904Y-64511904D01*
X177332142Y-64464285D01*
X177379761Y-64416666D01*
X177427380Y-64321428D01*
X177427380Y-64130952D01*
X177379761Y-64035714D01*
X177332142Y-63988095D01*
X177236904Y-63940476D01*
X176998809Y-63940476D01*
X176903571Y-63988095D01*
X176855952Y-64035714D01*
X176808333Y-64130952D01*
X176808333Y-64321428D01*
X176855952Y-64416666D01*
X176903571Y-64464285D01*
X176998809Y-64511904D01*
%TO.C,Q5*%
X106304761Y-111147619D02*
X106209523Y-111100000D01*
X106114285Y-111004761D01*
X105971428Y-110861904D01*
X105876190Y-110814285D01*
X105780952Y-110814285D01*
X105828571Y-111052380D02*
X105733333Y-111004761D01*
X105638095Y-110909523D01*
X105590476Y-110719047D01*
X105590476Y-110385714D01*
X105638095Y-110195238D01*
X105733333Y-110100000D01*
X105828571Y-110052380D01*
X106019047Y-110052380D01*
X106114285Y-110100000D01*
X106209523Y-110195238D01*
X106257142Y-110385714D01*
X106257142Y-110719047D01*
X106209523Y-110909523D01*
X106114285Y-111004761D01*
X106019047Y-111052380D01*
X105828571Y-111052380D01*
X107161904Y-110052380D02*
X106685714Y-110052380D01*
X106638095Y-110528571D01*
X106685714Y-110480952D01*
X106780952Y-110433333D01*
X107019047Y-110433333D01*
X107114285Y-110480952D01*
X107161904Y-110528571D01*
X107209523Y-110623809D01*
X107209523Y-110861904D01*
X107161904Y-110957142D01*
X107114285Y-111004761D01*
X107019047Y-111052380D01*
X106780952Y-111052380D01*
X106685714Y-111004761D01*
X106638095Y-110957142D01*
%TO.C,Q4*%
X105938095Y-98380951D02*
X105842857Y-98333332D01*
X105747619Y-98238093D01*
X105604762Y-98095236D01*
X105509524Y-98047617D01*
X105414286Y-98047617D01*
X105461905Y-98285712D02*
X105366667Y-98238093D01*
X105271429Y-98142855D01*
X105223810Y-97952379D01*
X105223810Y-97619046D01*
X105271429Y-97428570D01*
X105366667Y-97333332D01*
X105461905Y-97285712D01*
X105652381Y-97285712D01*
X105747619Y-97333332D01*
X105842857Y-97428570D01*
X105890476Y-97619046D01*
X105890476Y-97952379D01*
X105842857Y-98142855D01*
X105747619Y-98238093D01*
X105652381Y-98285712D01*
X105461905Y-98285712D01*
X106747619Y-97619046D02*
X106747619Y-98285712D01*
X106509524Y-97238093D02*
X106271429Y-97952379D01*
X106890476Y-97952379D01*
%TO.C,Q3*%
X106338095Y-84764285D02*
X106242857Y-84716666D01*
X106147619Y-84621427D01*
X106004762Y-84478570D01*
X105909524Y-84430951D01*
X105814286Y-84430951D01*
X105861905Y-84669046D02*
X105766667Y-84621427D01*
X105671429Y-84526189D01*
X105623810Y-84335713D01*
X105623810Y-84002380D01*
X105671429Y-83811904D01*
X105766667Y-83716666D01*
X105861905Y-83669046D01*
X106052381Y-83669046D01*
X106147619Y-83716666D01*
X106242857Y-83811904D01*
X106290476Y-84002380D01*
X106290476Y-84335713D01*
X106242857Y-84526189D01*
X106147619Y-84621427D01*
X106052381Y-84669046D01*
X105861905Y-84669046D01*
X106623810Y-83669046D02*
X107242857Y-83669046D01*
X106909524Y-84049999D01*
X107052381Y-84049999D01*
X107147619Y-84097618D01*
X107195238Y-84145237D01*
X107242857Y-84240475D01*
X107242857Y-84478570D01*
X107195238Y-84573808D01*
X107147619Y-84621427D01*
X107052381Y-84669046D01*
X106766667Y-84669046D01*
X106671429Y-84621427D01*
X106623810Y-84573808D01*
%TO.C,U1*%
X130708095Y-75652380D02*
X130708095Y-76461904D01*
X130755714Y-76557142D01*
X130803333Y-76604761D01*
X130898571Y-76652380D01*
X131089047Y-76652380D01*
X131184285Y-76604761D01*
X131231904Y-76557142D01*
X131279523Y-76461904D01*
X131279523Y-75652380D01*
X132279523Y-76652380D02*
X131708095Y-76652380D01*
X131993809Y-76652380D02*
X131993809Y-75652380D01*
X131898571Y-75795238D01*
X131803333Y-75890476D01*
X131708095Y-75938095D01*
%TO.C,D8*%
X186311904Y-52002380D02*
X186311904Y-51002380D01*
X186550000Y-51002380D01*
X186692857Y-51050000D01*
X186788095Y-51145238D01*
X186835714Y-51240476D01*
X186883333Y-51430952D01*
X186883333Y-51573809D01*
X186835714Y-51764285D01*
X186788095Y-51859523D01*
X186692857Y-51954761D01*
X186550000Y-52002380D01*
X186311904Y-52002380D01*
X187454761Y-51430952D02*
X187359523Y-51383333D01*
X187311904Y-51335714D01*
X187264285Y-51240476D01*
X187264285Y-51192857D01*
X187311904Y-51097619D01*
X187359523Y-51050000D01*
X187454761Y-51002380D01*
X187645238Y-51002380D01*
X187740476Y-51050000D01*
X187788095Y-51097619D01*
X187835714Y-51192857D01*
X187835714Y-51240476D01*
X187788095Y-51335714D01*
X187740476Y-51383333D01*
X187645238Y-51430952D01*
X187454761Y-51430952D01*
X187359523Y-51478571D01*
X187311904Y-51526190D01*
X187264285Y-51621428D01*
X187264285Y-51811904D01*
X187311904Y-51907142D01*
X187359523Y-51954761D01*
X187454761Y-52002380D01*
X187645238Y-52002380D01*
X187740476Y-51954761D01*
X187788095Y-51907142D01*
X187835714Y-51811904D01*
X187835714Y-51621428D01*
X187788095Y-51526190D01*
X187740476Y-51478571D01*
X187645238Y-51430952D01*
%TO.C,D7*%
X196511904Y-51852380D02*
X196511904Y-50852380D01*
X196750000Y-50852380D01*
X196892857Y-50900000D01*
X196988095Y-50995238D01*
X197035714Y-51090476D01*
X197083333Y-51280952D01*
X197083333Y-51423809D01*
X197035714Y-51614285D01*
X196988095Y-51709523D01*
X196892857Y-51804761D01*
X196750000Y-51852380D01*
X196511904Y-51852380D01*
X197416666Y-50852380D02*
X198083333Y-50852380D01*
X197654761Y-51852380D01*
%TO.C,J6*%
X167241666Y-48482380D02*
X167241666Y-49196666D01*
X167194047Y-49339523D01*
X167098809Y-49434761D01*
X166955952Y-49482380D01*
X166860714Y-49482380D01*
X168146428Y-48482380D02*
X167955952Y-48482380D01*
X167860714Y-48530000D01*
X167813095Y-48577619D01*
X167717857Y-48720476D01*
X167670238Y-48910952D01*
X167670238Y-49291904D01*
X167717857Y-49387142D01*
X167765476Y-49434761D01*
X167860714Y-49482380D01*
X168051190Y-49482380D01*
X168146428Y-49434761D01*
X168194047Y-49387142D01*
X168241666Y-49291904D01*
X168241666Y-49053809D01*
X168194047Y-48958571D01*
X168146428Y-48910952D01*
X168051190Y-48863333D01*
X167860714Y-48863333D01*
X167765476Y-48910952D01*
X167717857Y-48958571D01*
X167670238Y-49053809D01*
%TO.C,J13*%
X160215476Y-67472380D02*
X160215476Y-68186666D01*
X160167857Y-68329523D01*
X160072619Y-68424761D01*
X159929761Y-68472380D01*
X159834523Y-68472380D01*
X161215476Y-68472380D02*
X160644047Y-68472380D01*
X160929761Y-68472380D02*
X160929761Y-67472380D01*
X160834523Y-67615238D01*
X160739285Y-67710476D01*
X160644047Y-67758095D01*
X161548809Y-67472380D02*
X162167857Y-67472380D01*
X161834523Y-67853333D01*
X161977380Y-67853333D01*
X162072619Y-67900952D01*
X162120238Y-67948571D01*
X162167857Y-68043809D01*
X162167857Y-68281904D01*
X162120238Y-68377142D01*
X162072619Y-68424761D01*
X161977380Y-68472380D01*
X161691666Y-68472380D01*
X161596428Y-68424761D01*
X161548809Y-68377142D01*
%TO.C,J12*%
X166965476Y-67472380D02*
X166965476Y-68186666D01*
X166917857Y-68329523D01*
X166822619Y-68424761D01*
X166679761Y-68472380D01*
X166584523Y-68472380D01*
X167965476Y-68472380D02*
X167394047Y-68472380D01*
X167679761Y-68472380D02*
X167679761Y-67472380D01*
X167584523Y-67615238D01*
X167489285Y-67710476D01*
X167394047Y-67758095D01*
X168346428Y-67567619D02*
X168394047Y-67520000D01*
X168489285Y-67472380D01*
X168727380Y-67472380D01*
X168822619Y-67520000D01*
X168870238Y-67567619D01*
X168917857Y-67662857D01*
X168917857Y-67758095D01*
X168870238Y-67900952D01*
X168298809Y-68472380D01*
X168917857Y-68472380D01*
%TO.C,J11*%
X173665476Y-67472380D02*
X173665476Y-68186666D01*
X173617857Y-68329523D01*
X173522619Y-68424761D01*
X173379761Y-68472380D01*
X173284523Y-68472380D01*
X174665476Y-68472380D02*
X174094047Y-68472380D01*
X174379761Y-68472380D02*
X174379761Y-67472380D01*
X174284523Y-67615238D01*
X174189285Y-67710476D01*
X174094047Y-67758095D01*
X175617857Y-68472380D02*
X175046428Y-68472380D01*
X175332142Y-68472380D02*
X175332142Y-67472380D01*
X175236904Y-67615238D01*
X175141666Y-67710476D01*
X175046428Y-67758095D01*
%TO.C,R31*%
X159827380Y-60017857D02*
X159351190Y-60351190D01*
X159827380Y-60589285D02*
X158827380Y-60589285D01*
X158827380Y-60208333D01*
X158875000Y-60113095D01*
X158922619Y-60065476D01*
X159017857Y-60017857D01*
X159160714Y-60017857D01*
X159255952Y-60065476D01*
X159303571Y-60113095D01*
X159351190Y-60208333D01*
X159351190Y-60589285D01*
X158827380Y-59684523D02*
X158827380Y-59065476D01*
X159208333Y-59398809D01*
X159208333Y-59255952D01*
X159255952Y-59160714D01*
X159303571Y-59113095D01*
X159398809Y-59065476D01*
X159636904Y-59065476D01*
X159732142Y-59113095D01*
X159779761Y-59160714D01*
X159827380Y-59255952D01*
X159827380Y-59541666D01*
X159779761Y-59636904D01*
X159732142Y-59684523D01*
X159827380Y-58113095D02*
X159827380Y-58684523D01*
X159827380Y-58398809D02*
X158827380Y-58398809D01*
X158970238Y-58494047D01*
X159065476Y-58589285D01*
X159113095Y-58684523D01*
%TO.C,R30*%
X166552380Y-60017857D02*
X166076190Y-60351190D01*
X166552380Y-60589285D02*
X165552380Y-60589285D01*
X165552380Y-60208333D01*
X165600000Y-60113095D01*
X165647619Y-60065476D01*
X165742857Y-60017857D01*
X165885714Y-60017857D01*
X165980952Y-60065476D01*
X166028571Y-60113095D01*
X166076190Y-60208333D01*
X166076190Y-60589285D01*
X165552380Y-59684523D02*
X165552380Y-59065476D01*
X165933333Y-59398809D01*
X165933333Y-59255952D01*
X165980952Y-59160714D01*
X166028571Y-59113095D01*
X166123809Y-59065476D01*
X166361904Y-59065476D01*
X166457142Y-59113095D01*
X166504761Y-59160714D01*
X166552380Y-59255952D01*
X166552380Y-59541666D01*
X166504761Y-59636904D01*
X166457142Y-59684523D01*
X165552380Y-58446428D02*
X165552380Y-58351190D01*
X165600000Y-58255952D01*
X165647619Y-58208333D01*
X165742857Y-58160714D01*
X165933333Y-58113095D01*
X166171428Y-58113095D01*
X166361904Y-58160714D01*
X166457142Y-58208333D01*
X166504761Y-58255952D01*
X166552380Y-58351190D01*
X166552380Y-58446428D01*
X166504761Y-58541666D01*
X166457142Y-58589285D01*
X166361904Y-58636904D01*
X166171428Y-58684523D01*
X165933333Y-58684523D01*
X165742857Y-58636904D01*
X165647619Y-58589285D01*
X165600000Y-58541666D01*
X165552380Y-58446428D01*
%TO.C,R29*%
X173277380Y-60017857D02*
X172801190Y-60351190D01*
X173277380Y-60589285D02*
X172277380Y-60589285D01*
X172277380Y-60208333D01*
X172325000Y-60113095D01*
X172372619Y-60065476D01*
X172467857Y-60017857D01*
X172610714Y-60017857D01*
X172705952Y-60065476D01*
X172753571Y-60113095D01*
X172801190Y-60208333D01*
X172801190Y-60589285D01*
X172372619Y-59636904D02*
X172325000Y-59589285D01*
X172277380Y-59494047D01*
X172277380Y-59255952D01*
X172325000Y-59160714D01*
X172372619Y-59113095D01*
X172467857Y-59065476D01*
X172563095Y-59065476D01*
X172705952Y-59113095D01*
X173277380Y-59684523D01*
X173277380Y-59065476D01*
X173277380Y-58589285D02*
X173277380Y-58398809D01*
X173229761Y-58303571D01*
X173182142Y-58255952D01*
X173039285Y-58160714D01*
X172848809Y-58113095D01*
X172467857Y-58113095D01*
X172372619Y-58160714D01*
X172325000Y-58208333D01*
X172277380Y-58303571D01*
X172277380Y-58494047D01*
X172325000Y-58589285D01*
X172372619Y-58636904D01*
X172467857Y-58684523D01*
X172705952Y-58684523D01*
X172801190Y-58636904D01*
X172848809Y-58589285D01*
X172896428Y-58494047D01*
X172896428Y-58303571D01*
X172848809Y-58208333D01*
X172801190Y-58160714D01*
X172705952Y-58113095D01*
%TO.C,SW2*%
X160641666Y-92379761D02*
X160784523Y-92427380D01*
X161022619Y-92427380D01*
X161117857Y-92379761D01*
X161165476Y-92332142D01*
X161213095Y-92236904D01*
X161213095Y-92141666D01*
X161165476Y-92046428D01*
X161117857Y-91998809D01*
X161022619Y-91951190D01*
X160832142Y-91903571D01*
X160736904Y-91855952D01*
X160689285Y-91808333D01*
X160641666Y-91713095D01*
X160641666Y-91617857D01*
X160689285Y-91522619D01*
X160736904Y-91475000D01*
X160832142Y-91427380D01*
X161070238Y-91427380D01*
X161213095Y-91475000D01*
X161546428Y-91427380D02*
X161784523Y-92427380D01*
X161975000Y-91713095D01*
X162165476Y-92427380D01*
X162403571Y-91427380D01*
X162736904Y-91522619D02*
X162784523Y-91475000D01*
X162879761Y-91427380D01*
X163117857Y-91427380D01*
X163213095Y-91475000D01*
X163260714Y-91522619D01*
X163308333Y-91617857D01*
X163308333Y-91713095D01*
X163260714Y-91855952D01*
X162689285Y-92427380D01*
X163308333Y-92427380D01*
%TO.C,R28*%
X109542380Y-103322857D02*
X109066190Y-103656190D01*
X109542380Y-103894285D02*
X108542380Y-103894285D01*
X108542380Y-103513333D01*
X108590000Y-103418095D01*
X108637619Y-103370476D01*
X108732857Y-103322857D01*
X108875714Y-103322857D01*
X108970952Y-103370476D01*
X109018571Y-103418095D01*
X109066190Y-103513333D01*
X109066190Y-103894285D01*
X108637619Y-102941904D02*
X108590000Y-102894285D01*
X108542380Y-102799047D01*
X108542380Y-102560952D01*
X108590000Y-102465714D01*
X108637619Y-102418095D01*
X108732857Y-102370476D01*
X108828095Y-102370476D01*
X108970952Y-102418095D01*
X109542380Y-102989523D01*
X109542380Y-102370476D01*
X108970952Y-101799047D02*
X108923333Y-101894285D01*
X108875714Y-101941904D01*
X108780476Y-101989523D01*
X108732857Y-101989523D01*
X108637619Y-101941904D01*
X108590000Y-101894285D01*
X108542380Y-101799047D01*
X108542380Y-101608571D01*
X108590000Y-101513333D01*
X108637619Y-101465714D01*
X108732857Y-101418095D01*
X108780476Y-101418095D01*
X108875714Y-101465714D01*
X108923333Y-101513333D01*
X108970952Y-101608571D01*
X108970952Y-101799047D01*
X109018571Y-101894285D01*
X109066190Y-101941904D01*
X109161428Y-101989523D01*
X109351904Y-101989523D01*
X109447142Y-101941904D01*
X109494761Y-101894285D01*
X109542380Y-101799047D01*
X109542380Y-101608571D01*
X109494761Y-101513333D01*
X109447142Y-101465714D01*
X109351904Y-101418095D01*
X109161428Y-101418095D01*
X109066190Y-101465714D01*
X109018571Y-101513333D01*
X108970952Y-101608571D01*
%TO.C,R27*%
X109382380Y-90592857D02*
X108906190Y-90926190D01*
X109382380Y-91164285D02*
X108382380Y-91164285D01*
X108382380Y-90783333D01*
X108430000Y-90688095D01*
X108477619Y-90640476D01*
X108572857Y-90592857D01*
X108715714Y-90592857D01*
X108810952Y-90640476D01*
X108858571Y-90688095D01*
X108906190Y-90783333D01*
X108906190Y-91164285D01*
X108477619Y-90211904D02*
X108430000Y-90164285D01*
X108382380Y-90069047D01*
X108382380Y-89830952D01*
X108430000Y-89735714D01*
X108477619Y-89688095D01*
X108572857Y-89640476D01*
X108668095Y-89640476D01*
X108810952Y-89688095D01*
X109382380Y-90259523D01*
X109382380Y-89640476D01*
X108382380Y-89307142D02*
X108382380Y-88640476D01*
X109382380Y-89069047D01*
%TO.C,R26*%
X109902380Y-76992857D02*
X109426190Y-77326190D01*
X109902380Y-77564285D02*
X108902380Y-77564285D01*
X108902380Y-77183333D01*
X108950000Y-77088095D01*
X108997619Y-77040476D01*
X109092857Y-76992857D01*
X109235714Y-76992857D01*
X109330952Y-77040476D01*
X109378571Y-77088095D01*
X109426190Y-77183333D01*
X109426190Y-77564285D01*
X108997619Y-76611904D02*
X108950000Y-76564285D01*
X108902380Y-76469047D01*
X108902380Y-76230952D01*
X108950000Y-76135714D01*
X108997619Y-76088095D01*
X109092857Y-76040476D01*
X109188095Y-76040476D01*
X109330952Y-76088095D01*
X109902380Y-76659523D01*
X109902380Y-76040476D01*
X108902380Y-75183333D02*
X108902380Y-75373809D01*
X108950000Y-75469047D01*
X108997619Y-75516666D01*
X109140476Y-75611904D01*
X109330952Y-75659523D01*
X109711904Y-75659523D01*
X109807142Y-75611904D01*
X109854761Y-75564285D01*
X109902380Y-75469047D01*
X109902380Y-75278571D01*
X109854761Y-75183333D01*
X109807142Y-75135714D01*
X109711904Y-75088095D01*
X109473809Y-75088095D01*
X109378571Y-75135714D01*
X109330952Y-75183333D01*
X109283333Y-75278571D01*
X109283333Y-75469047D01*
X109330952Y-75564285D01*
X109378571Y-75611904D01*
X109473809Y-75659523D01*
%TO.C,R24*%
X110202380Y-114492857D02*
X109726190Y-114826190D01*
X110202380Y-115064285D02*
X109202380Y-115064285D01*
X109202380Y-114683333D01*
X109250000Y-114588095D01*
X109297619Y-114540476D01*
X109392857Y-114492857D01*
X109535714Y-114492857D01*
X109630952Y-114540476D01*
X109678571Y-114588095D01*
X109726190Y-114683333D01*
X109726190Y-115064285D01*
X109297619Y-114111904D02*
X109250000Y-114064285D01*
X109202380Y-113969047D01*
X109202380Y-113730952D01*
X109250000Y-113635714D01*
X109297619Y-113588095D01*
X109392857Y-113540476D01*
X109488095Y-113540476D01*
X109630952Y-113588095D01*
X110202380Y-114159523D01*
X110202380Y-113540476D01*
X109535714Y-112683333D02*
X110202380Y-112683333D01*
X109154761Y-112921428D02*
X109869047Y-113159523D01*
X109869047Y-112540476D01*
%TO.C,R23*%
X111492380Y-101342857D02*
X111016190Y-101676190D01*
X111492380Y-101914285D02*
X110492380Y-101914285D01*
X110492380Y-101533333D01*
X110540000Y-101438095D01*
X110587619Y-101390476D01*
X110682857Y-101342857D01*
X110825714Y-101342857D01*
X110920952Y-101390476D01*
X110968571Y-101438095D01*
X111016190Y-101533333D01*
X111016190Y-101914285D01*
X110587619Y-100961904D02*
X110540000Y-100914285D01*
X110492380Y-100819047D01*
X110492380Y-100580952D01*
X110540000Y-100485714D01*
X110587619Y-100438095D01*
X110682857Y-100390476D01*
X110778095Y-100390476D01*
X110920952Y-100438095D01*
X111492380Y-101009523D01*
X111492380Y-100390476D01*
X110492380Y-100057142D02*
X110492380Y-99438095D01*
X110873333Y-99771428D01*
X110873333Y-99628571D01*
X110920952Y-99533333D01*
X110968571Y-99485714D01*
X111063809Y-99438095D01*
X111301904Y-99438095D01*
X111397142Y-99485714D01*
X111444761Y-99533333D01*
X111492380Y-99628571D01*
X111492380Y-99914285D01*
X111444761Y-100009523D01*
X111397142Y-100057142D01*
%TO.C,R22*%
X111462380Y-87902857D02*
X110986190Y-88236190D01*
X111462380Y-88474285D02*
X110462380Y-88474285D01*
X110462380Y-88093333D01*
X110510000Y-87998095D01*
X110557619Y-87950476D01*
X110652857Y-87902857D01*
X110795714Y-87902857D01*
X110890952Y-87950476D01*
X110938571Y-87998095D01*
X110986190Y-88093333D01*
X110986190Y-88474285D01*
X110557619Y-87521904D02*
X110510000Y-87474285D01*
X110462380Y-87379047D01*
X110462380Y-87140952D01*
X110510000Y-87045714D01*
X110557619Y-86998095D01*
X110652857Y-86950476D01*
X110748095Y-86950476D01*
X110890952Y-86998095D01*
X111462380Y-87569523D01*
X111462380Y-86950476D01*
X110557619Y-86569523D02*
X110510000Y-86521904D01*
X110462380Y-86426666D01*
X110462380Y-86188571D01*
X110510000Y-86093333D01*
X110557619Y-86045714D01*
X110652857Y-85998095D01*
X110748095Y-85998095D01*
X110890952Y-86045714D01*
X111462380Y-86617142D01*
X111462380Y-85998095D01*
%TO.C,R20*%
X121002380Y-105692857D02*
X120526190Y-106026190D01*
X121002380Y-106264285D02*
X120002380Y-106264285D01*
X120002380Y-105883333D01*
X120050000Y-105788095D01*
X120097619Y-105740476D01*
X120192857Y-105692857D01*
X120335714Y-105692857D01*
X120430952Y-105740476D01*
X120478571Y-105788095D01*
X120526190Y-105883333D01*
X120526190Y-106264285D01*
X120097619Y-105311904D02*
X120050000Y-105264285D01*
X120002380Y-105169047D01*
X120002380Y-104930952D01*
X120050000Y-104835714D01*
X120097619Y-104788095D01*
X120192857Y-104740476D01*
X120288095Y-104740476D01*
X120430952Y-104788095D01*
X121002380Y-105359523D01*
X121002380Y-104740476D01*
X120002380Y-104121428D02*
X120002380Y-104026190D01*
X120050000Y-103930952D01*
X120097619Y-103883333D01*
X120192857Y-103835714D01*
X120383333Y-103788095D01*
X120621428Y-103788095D01*
X120811904Y-103835714D01*
X120907142Y-103883333D01*
X120954761Y-103930952D01*
X121002380Y-104026190D01*
X121002380Y-104121428D01*
X120954761Y-104216666D01*
X120907142Y-104264285D01*
X120811904Y-104311904D01*
X120621428Y-104359523D01*
X120383333Y-104359523D01*
X120192857Y-104311904D01*
X120097619Y-104264285D01*
X120050000Y-104216666D01*
X120002380Y-104121428D01*
%TO.C,R19*%
X121052380Y-92142857D02*
X120576190Y-92476190D01*
X121052380Y-92714285D02*
X120052380Y-92714285D01*
X120052380Y-92333333D01*
X120100000Y-92238095D01*
X120147619Y-92190476D01*
X120242857Y-92142857D01*
X120385714Y-92142857D01*
X120480952Y-92190476D01*
X120528571Y-92238095D01*
X120576190Y-92333333D01*
X120576190Y-92714285D01*
X121052380Y-91190476D02*
X121052380Y-91761904D01*
X121052380Y-91476190D02*
X120052380Y-91476190D01*
X120195238Y-91571428D01*
X120290476Y-91666666D01*
X120338095Y-91761904D01*
X121052380Y-90714285D02*
X121052380Y-90523809D01*
X121004761Y-90428571D01*
X120957142Y-90380952D01*
X120814285Y-90285714D01*
X120623809Y-90238095D01*
X120242857Y-90238095D01*
X120147619Y-90285714D01*
X120100000Y-90333333D01*
X120052380Y-90428571D01*
X120052380Y-90619047D01*
X120100000Y-90714285D01*
X120147619Y-90761904D01*
X120242857Y-90809523D01*
X120480952Y-90809523D01*
X120576190Y-90761904D01*
X120623809Y-90714285D01*
X120671428Y-90619047D01*
X120671428Y-90428571D01*
X120623809Y-90333333D01*
X120576190Y-90285714D01*
X120480952Y-90238095D01*
%TO.C,R18*%
X121252380Y-76142857D02*
X120776190Y-76476190D01*
X121252380Y-76714285D02*
X120252380Y-76714285D01*
X120252380Y-76333333D01*
X120300000Y-76238095D01*
X120347619Y-76190476D01*
X120442857Y-76142857D01*
X120585714Y-76142857D01*
X120680952Y-76190476D01*
X120728571Y-76238095D01*
X120776190Y-76333333D01*
X120776190Y-76714285D01*
X121252380Y-75190476D02*
X121252380Y-75761904D01*
X121252380Y-75476190D02*
X120252380Y-75476190D01*
X120395238Y-75571428D01*
X120490476Y-75666666D01*
X120538095Y-75761904D01*
X120680952Y-74619047D02*
X120633333Y-74714285D01*
X120585714Y-74761904D01*
X120490476Y-74809523D01*
X120442857Y-74809523D01*
X120347619Y-74761904D01*
X120300000Y-74714285D01*
X120252380Y-74619047D01*
X120252380Y-74428571D01*
X120300000Y-74333333D01*
X120347619Y-74285714D01*
X120442857Y-74238095D01*
X120490476Y-74238095D01*
X120585714Y-74285714D01*
X120633333Y-74333333D01*
X120680952Y-74428571D01*
X120680952Y-74619047D01*
X120728571Y-74714285D01*
X120776190Y-74761904D01*
X120871428Y-74809523D01*
X121061904Y-74809523D01*
X121157142Y-74761904D01*
X121204761Y-74714285D01*
X121252380Y-74619047D01*
X121252380Y-74428571D01*
X121204761Y-74333333D01*
X121157142Y-74285714D01*
X121061904Y-74238095D01*
X120871428Y-74238095D01*
X120776190Y-74285714D01*
X120728571Y-74333333D01*
X120680952Y-74428571D01*
%TO.C,R17*%
X120802380Y-64342857D02*
X120326190Y-64676190D01*
X120802380Y-64914285D02*
X119802380Y-64914285D01*
X119802380Y-64533333D01*
X119850000Y-64438095D01*
X119897619Y-64390476D01*
X119992857Y-64342857D01*
X120135714Y-64342857D01*
X120230952Y-64390476D01*
X120278571Y-64438095D01*
X120326190Y-64533333D01*
X120326190Y-64914285D01*
X120802380Y-63390476D02*
X120802380Y-63961904D01*
X120802380Y-63676190D02*
X119802380Y-63676190D01*
X119945238Y-63771428D01*
X120040476Y-63866666D01*
X120088095Y-63961904D01*
X119802380Y-63057142D02*
X119802380Y-62390476D01*
X120802380Y-62819047D01*
%TO.C,K4*%
X85711904Y-108252380D02*
X85711904Y-107252380D01*
X86283333Y-108252380D02*
X85854761Y-107680952D01*
X86283333Y-107252380D02*
X85711904Y-107823809D01*
X87140476Y-107585714D02*
X87140476Y-108252380D01*
X86902380Y-107204761D02*
X86664285Y-107919047D01*
X87283333Y-107919047D01*
%TO.C,K2*%
X85711904Y-69785713D02*
X85711904Y-68785713D01*
X86283333Y-69785713D02*
X85854761Y-69214285D01*
X86283333Y-68785713D02*
X85711904Y-69357142D01*
X86664285Y-68880952D02*
X86711904Y-68833333D01*
X86807142Y-68785713D01*
X87045238Y-68785713D01*
X87140476Y-68833333D01*
X87188095Y-68880952D01*
X87235714Y-68976190D01*
X87235714Y-69071428D01*
X87188095Y-69214285D01*
X86616666Y-69785713D01*
X87235714Y-69785713D01*
%TO.C,D6*%
X103602380Y-108838095D02*
X102602380Y-108838095D01*
X102602380Y-108600000D01*
X102650000Y-108457142D01*
X102745238Y-108361904D01*
X102840476Y-108314285D01*
X103030952Y-108266666D01*
X103173809Y-108266666D01*
X103364285Y-108314285D01*
X103459523Y-108361904D01*
X103554761Y-108457142D01*
X103602380Y-108600000D01*
X103602380Y-108838095D01*
X102602380Y-107409523D02*
X102602380Y-107600000D01*
X102650000Y-107695238D01*
X102697619Y-107742857D01*
X102840476Y-107838095D01*
X103030952Y-107885714D01*
X103411904Y-107885714D01*
X103507142Y-107838095D01*
X103554761Y-107790476D01*
X103602380Y-107695238D01*
X103602380Y-107504761D01*
X103554761Y-107409523D01*
X103507142Y-107361904D01*
X103411904Y-107314285D01*
X103173809Y-107314285D01*
X103078571Y-107361904D01*
X103030952Y-107409523D01*
X102983333Y-107504761D01*
X102983333Y-107695238D01*
X103030952Y-107790476D01*
X103078571Y-107838095D01*
X103173809Y-107885714D01*
%TO.C,D5*%
X103752380Y-96071427D02*
X102752380Y-96071427D01*
X102752380Y-95833332D01*
X102800000Y-95690474D01*
X102895238Y-95595236D01*
X102990476Y-95547617D01*
X103180952Y-95499998D01*
X103323809Y-95499998D01*
X103514285Y-95547617D01*
X103609523Y-95595236D01*
X103704761Y-95690474D01*
X103752380Y-95833332D01*
X103752380Y-96071427D01*
X102752380Y-94595236D02*
X102752380Y-95071427D01*
X103228571Y-95119046D01*
X103180952Y-95071427D01*
X103133333Y-94976189D01*
X103133333Y-94738093D01*
X103180952Y-94642855D01*
X103228571Y-94595236D01*
X103323809Y-94547617D01*
X103561904Y-94547617D01*
X103657142Y-94595236D01*
X103704761Y-94642855D01*
X103752380Y-94738093D01*
X103752380Y-94976189D01*
X103704761Y-95071427D01*
X103657142Y-95119046D01*
%TO.C,D4*%
X104152380Y-82454761D02*
X103152380Y-82454761D01*
X103152380Y-82216666D01*
X103200000Y-82073808D01*
X103295238Y-81978570D01*
X103390476Y-81930951D01*
X103580952Y-81883332D01*
X103723809Y-81883332D01*
X103914285Y-81930951D01*
X104009523Y-81978570D01*
X104104761Y-82073808D01*
X104152380Y-82216666D01*
X104152380Y-82454761D01*
X103485714Y-81026189D02*
X104152380Y-81026189D01*
X103104761Y-81264285D02*
X103819047Y-81502380D01*
X103819047Y-80883332D01*
%TO.C,R16*%
X189502380Y-99992857D02*
X189026190Y-100326190D01*
X189502380Y-100564285D02*
X188502380Y-100564285D01*
X188502380Y-100183333D01*
X188550000Y-100088095D01*
X188597619Y-100040476D01*
X188692857Y-99992857D01*
X188835714Y-99992857D01*
X188930952Y-100040476D01*
X188978571Y-100088095D01*
X189026190Y-100183333D01*
X189026190Y-100564285D01*
X189502380Y-99040476D02*
X189502380Y-99611904D01*
X189502380Y-99326190D02*
X188502380Y-99326190D01*
X188645238Y-99421428D01*
X188740476Y-99516666D01*
X188788095Y-99611904D01*
X188502380Y-98183333D02*
X188502380Y-98373809D01*
X188550000Y-98469047D01*
X188597619Y-98516666D01*
X188740476Y-98611904D01*
X188930952Y-98659523D01*
X189311904Y-98659523D01*
X189407142Y-98611904D01*
X189454761Y-98564285D01*
X189502380Y-98469047D01*
X189502380Y-98278571D01*
X189454761Y-98183333D01*
X189407142Y-98135714D01*
X189311904Y-98088095D01*
X189073809Y-98088095D01*
X188978571Y-98135714D01*
X188930952Y-98183333D01*
X188883333Y-98278571D01*
X188883333Y-98469047D01*
X188930952Y-98564285D01*
X188978571Y-98611904D01*
X189073809Y-98659523D01*
%TO.C,R15*%
X192702380Y-99892857D02*
X192226190Y-100226190D01*
X192702380Y-100464285D02*
X191702380Y-100464285D01*
X191702380Y-100083333D01*
X191750000Y-99988095D01*
X191797619Y-99940476D01*
X191892857Y-99892857D01*
X192035714Y-99892857D01*
X192130952Y-99940476D01*
X192178571Y-99988095D01*
X192226190Y-100083333D01*
X192226190Y-100464285D01*
X192702380Y-98940476D02*
X192702380Y-99511904D01*
X192702380Y-99226190D02*
X191702380Y-99226190D01*
X191845238Y-99321428D01*
X191940476Y-99416666D01*
X191988095Y-99511904D01*
X191702380Y-98035714D02*
X191702380Y-98511904D01*
X192178571Y-98559523D01*
X192130952Y-98511904D01*
X192083333Y-98416666D01*
X192083333Y-98178571D01*
X192130952Y-98083333D01*
X192178571Y-98035714D01*
X192273809Y-97988095D01*
X192511904Y-97988095D01*
X192607142Y-98035714D01*
X192654761Y-98083333D01*
X192702380Y-98178571D01*
X192702380Y-98416666D01*
X192654761Y-98511904D01*
X192607142Y-98559523D01*
%TO.C,Q1*%
X184954761Y-105572619D02*
X184859523Y-105525000D01*
X184764285Y-105429761D01*
X184621428Y-105286904D01*
X184526190Y-105239285D01*
X184430952Y-105239285D01*
X184478571Y-105477380D02*
X184383333Y-105429761D01*
X184288095Y-105334523D01*
X184240476Y-105144047D01*
X184240476Y-104810714D01*
X184288095Y-104620238D01*
X184383333Y-104525000D01*
X184478571Y-104477380D01*
X184669047Y-104477380D01*
X184764285Y-104525000D01*
X184859523Y-104620238D01*
X184907142Y-104810714D01*
X184907142Y-105144047D01*
X184859523Y-105334523D01*
X184764285Y-105429761D01*
X184669047Y-105477380D01*
X184478571Y-105477380D01*
X185859523Y-105477380D02*
X185288095Y-105477380D01*
X185573809Y-105477380D02*
X185573809Y-104477380D01*
X185478571Y-104620238D01*
X185383333Y-104715476D01*
X185288095Y-104763095D01*
%TO.C,R14*%
X186007142Y-54252380D02*
X185673809Y-53776190D01*
X185435714Y-54252380D02*
X185435714Y-53252380D01*
X185816666Y-53252380D01*
X185911904Y-53300000D01*
X185959523Y-53347619D01*
X186007142Y-53442857D01*
X186007142Y-53585714D01*
X185959523Y-53680952D01*
X185911904Y-53728571D01*
X185816666Y-53776190D01*
X185435714Y-53776190D01*
X186959523Y-54252380D02*
X186388095Y-54252380D01*
X186673809Y-54252380D02*
X186673809Y-53252380D01*
X186578571Y-53395238D01*
X186483333Y-53490476D01*
X186388095Y-53538095D01*
X187816666Y-53585714D02*
X187816666Y-54252380D01*
X187578571Y-53204761D02*
X187340476Y-53919047D01*
X187959523Y-53919047D01*
%TO.C,R13*%
X196957142Y-54252380D02*
X196623809Y-53776190D01*
X196385714Y-54252380D02*
X196385714Y-53252380D01*
X196766666Y-53252380D01*
X196861904Y-53300000D01*
X196909523Y-53347619D01*
X196957142Y-53442857D01*
X196957142Y-53585714D01*
X196909523Y-53680952D01*
X196861904Y-53728571D01*
X196766666Y-53776190D01*
X196385714Y-53776190D01*
X197909523Y-54252380D02*
X197338095Y-54252380D01*
X197623809Y-54252380D02*
X197623809Y-53252380D01*
X197528571Y-53395238D01*
X197433333Y-53490476D01*
X197338095Y-53538095D01*
X198242857Y-53252380D02*
X198861904Y-53252380D01*
X198528571Y-53633333D01*
X198671428Y-53633333D01*
X198766666Y-53680952D01*
X198814285Y-53728571D01*
X198861904Y-53823809D01*
X198861904Y-54061904D01*
X198814285Y-54157142D01*
X198766666Y-54204761D01*
X198671428Y-54252380D01*
X198385714Y-54252380D01*
X198290476Y-54204761D01*
X198242857Y-54157142D01*
%TO.C,SW1*%
X160691666Y-76979761D02*
X160834523Y-77027380D01*
X161072619Y-77027380D01*
X161167857Y-76979761D01*
X161215476Y-76932142D01*
X161263095Y-76836904D01*
X161263095Y-76741666D01*
X161215476Y-76646428D01*
X161167857Y-76598809D01*
X161072619Y-76551190D01*
X160882142Y-76503571D01*
X160786904Y-76455952D01*
X160739285Y-76408333D01*
X160691666Y-76313095D01*
X160691666Y-76217857D01*
X160739285Y-76122619D01*
X160786904Y-76075000D01*
X160882142Y-76027380D01*
X161120238Y-76027380D01*
X161263095Y-76075000D01*
X161596428Y-76027380D02*
X161834523Y-77027380D01*
X162025000Y-76313095D01*
X162215476Y-77027380D01*
X162453571Y-76027380D01*
X163358333Y-77027380D02*
X162786904Y-77027380D01*
X163072619Y-77027380D02*
X163072619Y-76027380D01*
X162977380Y-76170238D01*
X162882142Y-76265476D01*
X162786904Y-76313095D01*
%TO.C,R12*%
X161052380Y-114267857D02*
X160576190Y-114601190D01*
X161052380Y-114839285D02*
X160052380Y-114839285D01*
X160052380Y-114458333D01*
X160100000Y-114363095D01*
X160147619Y-114315476D01*
X160242857Y-114267857D01*
X160385714Y-114267857D01*
X160480952Y-114315476D01*
X160528571Y-114363095D01*
X160576190Y-114458333D01*
X160576190Y-114839285D01*
X161052380Y-113315476D02*
X161052380Y-113886904D01*
X161052380Y-113601190D02*
X160052380Y-113601190D01*
X160195238Y-113696428D01*
X160290476Y-113791666D01*
X160338095Y-113886904D01*
X160147619Y-112934523D02*
X160100000Y-112886904D01*
X160052380Y-112791666D01*
X160052380Y-112553571D01*
X160100000Y-112458333D01*
X160147619Y-112410714D01*
X160242857Y-112363095D01*
X160338095Y-112363095D01*
X160480952Y-112410714D01*
X161052380Y-112982142D01*
X161052380Y-112363095D01*
%TO.C,R11*%
X158502380Y-114267857D02*
X158026190Y-114601190D01*
X158502380Y-114839285D02*
X157502380Y-114839285D01*
X157502380Y-114458333D01*
X157550000Y-114363095D01*
X157597619Y-114315476D01*
X157692857Y-114267857D01*
X157835714Y-114267857D01*
X157930952Y-114315476D01*
X157978571Y-114363095D01*
X158026190Y-114458333D01*
X158026190Y-114839285D01*
X158502380Y-113315476D02*
X158502380Y-113886904D01*
X158502380Y-113601190D02*
X157502380Y-113601190D01*
X157645238Y-113696428D01*
X157740476Y-113791666D01*
X157788095Y-113886904D01*
X158502380Y-112363095D02*
X158502380Y-112934523D01*
X158502380Y-112648809D02*
X157502380Y-112648809D01*
X157645238Y-112744047D01*
X157740476Y-112839285D01*
X157788095Y-112934523D01*
%TO.C,R9*%
X138427380Y-109091666D02*
X137951190Y-109425000D01*
X138427380Y-109663095D02*
X137427380Y-109663095D01*
X137427380Y-109282142D01*
X137475000Y-109186904D01*
X137522619Y-109139285D01*
X137617857Y-109091666D01*
X137760714Y-109091666D01*
X137855952Y-109139285D01*
X137903571Y-109186904D01*
X137951190Y-109282142D01*
X137951190Y-109663095D01*
X138427380Y-108615476D02*
X138427380Y-108425000D01*
X138379761Y-108329761D01*
X138332142Y-108282142D01*
X138189285Y-108186904D01*
X137998809Y-108139285D01*
X137617857Y-108139285D01*
X137522619Y-108186904D01*
X137475000Y-108234523D01*
X137427380Y-108329761D01*
X137427380Y-108520238D01*
X137475000Y-108615476D01*
X137522619Y-108663095D01*
X137617857Y-108710714D01*
X137855952Y-108710714D01*
X137951190Y-108663095D01*
X137998809Y-108615476D01*
X138046428Y-108520238D01*
X138046428Y-108329761D01*
X137998809Y-108234523D01*
X137951190Y-108186904D01*
X137855952Y-108139285D01*
%TO.C,R8*%
X127427380Y-109091666D02*
X126951190Y-109425000D01*
X127427380Y-109663095D02*
X126427380Y-109663095D01*
X126427380Y-109282142D01*
X126475000Y-109186904D01*
X126522619Y-109139285D01*
X126617857Y-109091666D01*
X126760714Y-109091666D01*
X126855952Y-109139285D01*
X126903571Y-109186904D01*
X126951190Y-109282142D01*
X126951190Y-109663095D01*
X126855952Y-108520238D02*
X126808333Y-108615476D01*
X126760714Y-108663095D01*
X126665476Y-108710714D01*
X126617857Y-108710714D01*
X126522619Y-108663095D01*
X126475000Y-108615476D01*
X126427380Y-108520238D01*
X126427380Y-108329761D01*
X126475000Y-108234523D01*
X126522619Y-108186904D01*
X126617857Y-108139285D01*
X126665476Y-108139285D01*
X126760714Y-108186904D01*
X126808333Y-108234523D01*
X126855952Y-108329761D01*
X126855952Y-108520238D01*
X126903571Y-108615476D01*
X126951190Y-108663095D01*
X127046428Y-108710714D01*
X127236904Y-108710714D01*
X127332142Y-108663095D01*
X127379761Y-108615476D01*
X127427380Y-108520238D01*
X127427380Y-108329761D01*
X127379761Y-108234523D01*
X127332142Y-108186904D01*
X127236904Y-108139285D01*
X127046428Y-108139285D01*
X126951190Y-108186904D01*
X126903571Y-108234523D01*
X126855952Y-108329761D01*
%TO.C,R7*%
X127427380Y-113791666D02*
X126951190Y-114125000D01*
X127427380Y-114363095D02*
X126427380Y-114363095D01*
X126427380Y-113982142D01*
X126475000Y-113886904D01*
X126522619Y-113839285D01*
X126617857Y-113791666D01*
X126760714Y-113791666D01*
X126855952Y-113839285D01*
X126903571Y-113886904D01*
X126951190Y-113982142D01*
X126951190Y-114363095D01*
X126427380Y-113458333D02*
X126427380Y-112791666D01*
X127427380Y-113220238D01*
%TO.C,R6*%
X138427380Y-113791666D02*
X137951190Y-114125000D01*
X138427380Y-114363095D02*
X137427380Y-114363095D01*
X137427380Y-113982142D01*
X137475000Y-113886904D01*
X137522619Y-113839285D01*
X137617857Y-113791666D01*
X137760714Y-113791666D01*
X137855952Y-113839285D01*
X137903571Y-113886904D01*
X137951190Y-113982142D01*
X137951190Y-114363095D01*
X137427380Y-112934523D02*
X137427380Y-113125000D01*
X137475000Y-113220238D01*
X137522619Y-113267857D01*
X137665476Y-113363095D01*
X137855952Y-113410714D01*
X138236904Y-113410714D01*
X138332142Y-113363095D01*
X138379761Y-113315476D01*
X138427380Y-113220238D01*
X138427380Y-113029761D01*
X138379761Y-112934523D01*
X138332142Y-112886904D01*
X138236904Y-112839285D01*
X137998809Y-112839285D01*
X137903571Y-112886904D01*
X137855952Y-112934523D01*
X137808333Y-113029761D01*
X137808333Y-113220238D01*
X137855952Y-113315476D01*
X137903571Y-113363095D01*
X137998809Y-113410714D01*
%TO.C,R5*%
X153643333Y-66777380D02*
X153310000Y-66301190D01*
X153071904Y-66777380D02*
X153071904Y-65777380D01*
X153452857Y-65777380D01*
X153548095Y-65825000D01*
X153595714Y-65872619D01*
X153643333Y-65967857D01*
X153643333Y-66110714D01*
X153595714Y-66205952D01*
X153548095Y-66253571D01*
X153452857Y-66301190D01*
X153071904Y-66301190D01*
X154548095Y-65777380D02*
X154071904Y-65777380D01*
X154024285Y-66253571D01*
X154071904Y-66205952D01*
X154167142Y-66158333D01*
X154405238Y-66158333D01*
X154500476Y-66205952D01*
X154548095Y-66253571D01*
X154595714Y-66348809D01*
X154595714Y-66586904D01*
X154548095Y-66682142D01*
X154500476Y-66729761D01*
X154405238Y-66777380D01*
X154167142Y-66777380D01*
X154071904Y-66729761D01*
X154024285Y-66682142D01*
%TO.C,R4*%
X141333333Y-67127380D02*
X141000000Y-66651190D01*
X140761904Y-67127380D02*
X140761904Y-66127380D01*
X141142857Y-66127380D01*
X141238095Y-66175000D01*
X141285714Y-66222619D01*
X141333333Y-66317857D01*
X141333333Y-66460714D01*
X141285714Y-66555952D01*
X141238095Y-66603571D01*
X141142857Y-66651190D01*
X140761904Y-66651190D01*
X142190476Y-66460714D02*
X142190476Y-67127380D01*
X141952380Y-66079761D02*
X141714285Y-66794047D01*
X142333333Y-66794047D01*
%TO.C,R3*%
X153533333Y-59902380D02*
X153200000Y-59426190D01*
X152961904Y-59902380D02*
X152961904Y-58902380D01*
X153342857Y-58902380D01*
X153438095Y-58950000D01*
X153485714Y-58997619D01*
X153533333Y-59092857D01*
X153533333Y-59235714D01*
X153485714Y-59330952D01*
X153438095Y-59378571D01*
X153342857Y-59426190D01*
X152961904Y-59426190D01*
X153866666Y-58902380D02*
X154485714Y-58902380D01*
X154152380Y-59283333D01*
X154295238Y-59283333D01*
X154390476Y-59330952D01*
X154438095Y-59378571D01*
X154485714Y-59473809D01*
X154485714Y-59711904D01*
X154438095Y-59807142D01*
X154390476Y-59854761D01*
X154295238Y-59902380D01*
X154009523Y-59902380D01*
X153914285Y-59854761D01*
X153866666Y-59807142D01*
%TO.C,R2*%
X141333333Y-59977380D02*
X141000000Y-59501190D01*
X140761904Y-59977380D02*
X140761904Y-58977380D01*
X141142857Y-58977380D01*
X141238095Y-59025000D01*
X141285714Y-59072619D01*
X141333333Y-59167857D01*
X141333333Y-59310714D01*
X141285714Y-59405952D01*
X141238095Y-59453571D01*
X141142857Y-59501190D01*
X140761904Y-59501190D01*
X141714285Y-59072619D02*
X141761904Y-59025000D01*
X141857142Y-58977380D01*
X142095238Y-58977380D01*
X142190476Y-59025000D01*
X142238095Y-59072619D01*
X142285714Y-59167857D01*
X142285714Y-59263095D01*
X142238095Y-59405952D01*
X141666666Y-59977380D01*
X142285714Y-59977380D01*
%TO.C,D2*%
X153111904Y-63352380D02*
X153111904Y-62352380D01*
X153350000Y-62352380D01*
X153492857Y-62400000D01*
X153588095Y-62495238D01*
X153635714Y-62590476D01*
X153683333Y-62780952D01*
X153683333Y-62923809D01*
X153635714Y-63114285D01*
X153588095Y-63209523D01*
X153492857Y-63304761D01*
X153350000Y-63352380D01*
X153111904Y-63352380D01*
X154064285Y-62447619D02*
X154111904Y-62400000D01*
X154207142Y-62352380D01*
X154445238Y-62352380D01*
X154540476Y-62400000D01*
X154588095Y-62447619D01*
X154635714Y-62542857D01*
X154635714Y-62638095D01*
X154588095Y-62780952D01*
X154016666Y-63352380D01*
X154635714Y-63352380D01*
%TO.C,D1*%
X140801904Y-63552380D02*
X140801904Y-62552380D01*
X141040000Y-62552380D01*
X141182857Y-62600000D01*
X141278095Y-62695238D01*
X141325714Y-62790476D01*
X141373333Y-62980952D01*
X141373333Y-63123809D01*
X141325714Y-63314285D01*
X141278095Y-63409523D01*
X141182857Y-63504761D01*
X141040000Y-63552380D01*
X140801904Y-63552380D01*
X142325714Y-63552380D02*
X141754285Y-63552380D01*
X142040000Y-63552380D02*
X142040000Y-62552380D01*
X141944761Y-62695238D01*
X141849523Y-62790476D01*
X141754285Y-62838095D01*
%TO.C,C6*%
X127607142Y-76116666D02*
X127654761Y-76164285D01*
X127702380Y-76307142D01*
X127702380Y-76402380D01*
X127654761Y-76545238D01*
X127559523Y-76640476D01*
X127464285Y-76688095D01*
X127273809Y-76735714D01*
X127130952Y-76735714D01*
X126940476Y-76688095D01*
X126845238Y-76640476D01*
X126750000Y-76545238D01*
X126702380Y-76402380D01*
X126702380Y-76307142D01*
X126750000Y-76164285D01*
X126797619Y-76116666D01*
X126702380Y-75259523D02*
X126702380Y-75450000D01*
X126750000Y-75545238D01*
X126797619Y-75592857D01*
X126940476Y-75688095D01*
X127130952Y-75735714D01*
X127511904Y-75735714D01*
X127607142Y-75688095D01*
X127654761Y-75640476D01*
X127702380Y-75545238D01*
X127702380Y-75354761D01*
X127654761Y-75259523D01*
X127607142Y-75211904D01*
X127511904Y-75164285D01*
X127273809Y-75164285D01*
X127178571Y-75211904D01*
X127130952Y-75259523D01*
X127083333Y-75354761D01*
X127083333Y-75545238D01*
X127130952Y-75640476D01*
X127178571Y-75688095D01*
X127273809Y-75735714D01*
%TO.C,C5*%
X125007142Y-76166666D02*
X125054761Y-76214285D01*
X125102380Y-76357142D01*
X125102380Y-76452380D01*
X125054761Y-76595238D01*
X124959523Y-76690476D01*
X124864285Y-76738095D01*
X124673809Y-76785714D01*
X124530952Y-76785714D01*
X124340476Y-76738095D01*
X124245238Y-76690476D01*
X124150000Y-76595238D01*
X124102380Y-76452380D01*
X124102380Y-76357142D01*
X124150000Y-76214285D01*
X124197619Y-76166666D01*
X124102380Y-75261904D02*
X124102380Y-75738095D01*
X124578571Y-75785714D01*
X124530952Y-75738095D01*
X124483333Y-75642857D01*
X124483333Y-75404761D01*
X124530952Y-75309523D01*
X124578571Y-75261904D01*
X124673809Y-75214285D01*
X124911904Y-75214285D01*
X125007142Y-75261904D01*
X125054761Y-75309523D01*
X125102380Y-75404761D01*
X125102380Y-75642857D01*
X125054761Y-75738095D01*
X125007142Y-75785714D01*
%TO.C,U3*%
X144652380Y-54936904D02*
X145461904Y-54936904D01*
X145557142Y-54889285D01*
X145604761Y-54841666D01*
X145652380Y-54746428D01*
X145652380Y-54555952D01*
X145604761Y-54460714D01*
X145557142Y-54413095D01*
X145461904Y-54365476D01*
X144652380Y-54365476D01*
X144652380Y-53984523D02*
X144652380Y-53365476D01*
X145033333Y-53698809D01*
X145033333Y-53555952D01*
X145080952Y-53460714D01*
X145128571Y-53413095D01*
X145223809Y-53365476D01*
X145461904Y-53365476D01*
X145557142Y-53413095D01*
X145604761Y-53460714D01*
X145652380Y-53555952D01*
X145652380Y-53841666D01*
X145604761Y-53936904D01*
X145557142Y-53984523D01*
%TO.C,U2*%
X132302380Y-55036904D02*
X133111904Y-55036904D01*
X133207142Y-54989285D01*
X133254761Y-54941666D01*
X133302380Y-54846428D01*
X133302380Y-54655952D01*
X133254761Y-54560714D01*
X133207142Y-54513095D01*
X133111904Y-54465476D01*
X132302380Y-54465476D01*
X132397619Y-54036904D02*
X132350000Y-53989285D01*
X132302380Y-53894047D01*
X132302380Y-53655952D01*
X132350000Y-53560714D01*
X132397619Y-53513095D01*
X132492857Y-53465476D01*
X132588095Y-53465476D01*
X132730952Y-53513095D01*
X133302380Y-54084523D01*
X133302380Y-53465476D01*
%TO.C,R1*%
X146752380Y-113791666D02*
X146276190Y-114125000D01*
X146752380Y-114363095D02*
X145752380Y-114363095D01*
X145752380Y-113982142D01*
X145800000Y-113886904D01*
X145847619Y-113839285D01*
X145942857Y-113791666D01*
X146085714Y-113791666D01*
X146180952Y-113839285D01*
X146228571Y-113886904D01*
X146276190Y-113982142D01*
X146276190Y-114363095D01*
X146752380Y-112839285D02*
X146752380Y-113410714D01*
X146752380Y-113125000D02*
X145752380Y-113125000D01*
X145895238Y-113220238D01*
X145990476Y-113315476D01*
X146038095Y-113410714D01*
%TO.C,J5*%
X139269999Y-124347380D02*
X139269999Y-125061666D01*
X139222380Y-125204523D01*
X139127142Y-125299761D01*
X138984285Y-125347380D01*
X138889047Y-125347380D01*
X140222380Y-124347380D02*
X139746190Y-124347380D01*
X139698571Y-124823571D01*
X139746190Y-124775952D01*
X139841428Y-124728333D01*
X140079523Y-124728333D01*
X140174761Y-124775952D01*
X140222380Y-124823571D01*
X140269999Y-124918809D01*
X140269999Y-125156904D01*
X140222380Y-125252142D01*
X140174761Y-125299761D01*
X140079523Y-125347380D01*
X139841428Y-125347380D01*
X139746190Y-125299761D01*
X139698571Y-125252142D01*
%TO.C,J4*%
X159896666Y-124347380D02*
X159896666Y-125061666D01*
X159849047Y-125204523D01*
X159753809Y-125299761D01*
X159610952Y-125347380D01*
X159515714Y-125347380D01*
X160801428Y-124680714D02*
X160801428Y-125347380D01*
X160563333Y-124299761D02*
X160325238Y-125014047D01*
X160944285Y-125014047D01*
%TO.C,J3*%
X128291666Y-124347380D02*
X128291666Y-125061666D01*
X128244047Y-125204523D01*
X128148809Y-125299761D01*
X128005952Y-125347380D01*
X127910714Y-125347380D01*
X128672619Y-124347380D02*
X129291666Y-124347380D01*
X128958333Y-124728333D01*
X129101190Y-124728333D01*
X129196428Y-124775952D01*
X129244047Y-124823571D01*
X129291666Y-124918809D01*
X129291666Y-125156904D01*
X129244047Y-125252142D01*
X129196428Y-125299761D01*
X129101190Y-125347380D01*
X128815476Y-125347380D01*
X128720238Y-125299761D01*
X128672619Y-125252142D01*
%TO.C,J2*%
X148948332Y-124347380D02*
X148948332Y-125061666D01*
X148900713Y-125204523D01*
X148805475Y-125299761D01*
X148662618Y-125347380D01*
X148567380Y-125347380D01*
X149376904Y-124442619D02*
X149424523Y-124395000D01*
X149519761Y-124347380D01*
X149757856Y-124347380D01*
X149853094Y-124395000D01*
X149900713Y-124442619D01*
X149948332Y-124537857D01*
X149948332Y-124633095D01*
X149900713Y-124775952D01*
X149329285Y-125347380D01*
X149948332Y-125347380D01*
%TO.C,J1*%
X126416666Y-48482380D02*
X126416666Y-49196666D01*
X126369047Y-49339523D01*
X126273809Y-49434761D01*
X126130952Y-49482380D01*
X126035714Y-49482380D01*
X127416666Y-49482380D02*
X126845238Y-49482380D01*
X127130952Y-49482380D02*
X127130952Y-48482380D01*
X127035714Y-48625238D01*
X126940476Y-48720476D01*
X126845238Y-48768095D01*
%TO.C,C4*%
X135833333Y-63212142D02*
X135785714Y-63259761D01*
X135642857Y-63307380D01*
X135547619Y-63307380D01*
X135404761Y-63259761D01*
X135309523Y-63164523D01*
X135261904Y-63069285D01*
X135214285Y-62878809D01*
X135214285Y-62735952D01*
X135261904Y-62545476D01*
X135309523Y-62450238D01*
X135404761Y-62355000D01*
X135547619Y-62307380D01*
X135642857Y-62307380D01*
X135785714Y-62355000D01*
X135833333Y-62402619D01*
X136690476Y-62640714D02*
X136690476Y-63307380D01*
X136452380Y-62259761D02*
X136214285Y-62974047D01*
X136833333Y-62974047D01*
%TO.C,C3*%
X148183333Y-63162142D02*
X148135714Y-63209761D01*
X147992857Y-63257380D01*
X147897619Y-63257380D01*
X147754761Y-63209761D01*
X147659523Y-63114523D01*
X147611904Y-63019285D01*
X147564285Y-62828809D01*
X147564285Y-62685952D01*
X147611904Y-62495476D01*
X147659523Y-62400238D01*
X147754761Y-62305000D01*
X147897619Y-62257380D01*
X147992857Y-62257380D01*
X148135714Y-62305000D01*
X148183333Y-62352619D01*
X148516666Y-62257380D02*
X149135714Y-62257380D01*
X148802380Y-62638333D01*
X148945238Y-62638333D01*
X149040476Y-62685952D01*
X149088095Y-62733571D01*
X149135714Y-62828809D01*
X149135714Y-63066904D01*
X149088095Y-63162142D01*
X149040476Y-63209761D01*
X148945238Y-63257380D01*
X148659523Y-63257380D01*
X148564285Y-63209761D01*
X148516666Y-63162142D01*
%TO.C,C2*%
X148183333Y-66862142D02*
X148135714Y-66909761D01*
X147992857Y-66957380D01*
X147897619Y-66957380D01*
X147754761Y-66909761D01*
X147659523Y-66814523D01*
X147611904Y-66719285D01*
X147564285Y-66528809D01*
X147564285Y-66385952D01*
X147611904Y-66195476D01*
X147659523Y-66100238D01*
X147754761Y-66005000D01*
X147897619Y-65957380D01*
X147992857Y-65957380D01*
X148135714Y-66005000D01*
X148183333Y-66052619D01*
X148564285Y-66052619D02*
X148611904Y-66005000D01*
X148707142Y-65957380D01*
X148945238Y-65957380D01*
X149040476Y-66005000D01*
X149088095Y-66052619D01*
X149135714Y-66147857D01*
X149135714Y-66243095D01*
X149088095Y-66385952D01*
X148516666Y-66957380D01*
X149135714Y-66957380D01*
%TO.C,C1*%
X135833333Y-66862142D02*
X135785714Y-66909761D01*
X135642857Y-66957380D01*
X135547619Y-66957380D01*
X135404761Y-66909761D01*
X135309523Y-66814523D01*
X135261904Y-66719285D01*
X135214285Y-66528809D01*
X135214285Y-66385952D01*
X135261904Y-66195476D01*
X135309523Y-66100238D01*
X135404761Y-66005000D01*
X135547619Y-65957380D01*
X135642857Y-65957380D01*
X135785714Y-66005000D01*
X135833333Y-66052619D01*
X136785714Y-66957380D02*
X136214285Y-66957380D01*
X136500000Y-66957380D02*
X136500000Y-65957380D01*
X136404761Y-66100238D01*
X136309523Y-66195476D01*
X136214285Y-66243095D01*
%TD*%
M02*
