M48
; DRILL file {KiCad (5.1.9)-1} date 07/20/21 21:45:43
; FORMAT={-:-/ absolute / inch / decimal}
; #@! TF.CreationDate,2021-07-20T21:45:43-05:00
; #@! TF.GenerationSoftware,Kicad,Pcbnew,(5.1.9)-1
; #@! TF.FileFunction,Plated,1,2,PTH
FMAT,2
INCH
T1C0.0157
T2C0.0354
T3C0.0394
T4C0.0469
T5C0.0512
T6C0.0598
T7C0.0890
%
G90
G05
T1
X2.6575Y-1.9685
X2.6575Y-2.0669
X2.6575Y-2.5591
X2.6575Y-2.6575
X2.6575Y-2.7559
X2.6575Y-2.8543
X2.6575Y-2.9528
X2.6575Y-3.0512
X2.6575Y-3.1496
X2.6575Y-3.248
X2.6575Y-3.3465
X2.6575Y-3.4449
X2.6575Y-3.5433
X2.6575Y-3.6417
X2.6575Y-3.7402
X2.6575Y-3.8386
X2.6575Y-3.937
X2.6575Y-4.0354
X2.6575Y-4.1339
X2.6575Y-4.2323
X2.6575Y-4.3307
X2.6575Y-4.4291
X2.6575Y-4.5276
X2.6575Y-4.626
X2.6575Y-4.7244
X2.6575Y-4.8228
X2.6575Y-4.9213
X2.7559Y-1.9685
X2.7559Y-2.0669
X2.7559Y-2.5591
X2.7559Y-2.6575
X2.7559Y-2.7559
X2.7559Y-3.3465
X2.7559Y-3.4449
X2.7559Y-3.5433
X2.7559Y-4.1339
X2.7559Y-4.2323
X2.7559Y-4.3307
X2.7559Y-4.8228
X2.7559Y-4.9213
X2.8543Y-1.9685
X2.8543Y-2.5591
X2.8543Y-2.6575
X2.8543Y-2.7559
X2.8543Y-3.3465
X2.8543Y-3.4449
X2.8543Y-4.1339
X2.8543Y-4.2323
X2.8543Y-4.8228
X2.8543Y-4.9213
X2.9528Y-1.9685
X2.9528Y-2.5591
X2.9528Y-2.6575
X2.9528Y-3.3465
X2.9528Y-3.4449
X2.9528Y-4.1339
X2.9528Y-4.2323
X2.9528Y-4.8228
X2.9528Y-4.9213
X2.9764Y-3.7677
X2.9803Y-2.2638
X2.9803Y-4.5
X2.9843Y-3.0118
X3.0512Y-1.9685
X3.0512Y-2.5591
X3.0512Y-2.6575
X3.0512Y-3.4449
X3.0512Y-4.2323
X3.0512Y-4.8228
X3.0512Y-4.9213
X3.1496Y-1.9685
X3.1496Y-3.4449
X3.1496Y-4.2323
X3.1634Y-2.0984
X3.248Y-1.9685
X3.248Y-2.4606
X3.248Y-2.6575
X3.248Y-2.7559
X3.248Y-3.248
X3.248Y-3.4449
X3.248Y-4.0354
X3.248Y-4.2323
X3.248Y-4.7244
X3.248Y-4.9213
X3.3465Y-1.9685
X3.3465Y-2.0669
X3.3465Y-2.1654
X3.3465Y-2.4606
X3.3465Y-2.5591
X3.3465Y-2.6575
X3.3465Y-2.7559
X3.3465Y-2.8543
X3.3465Y-2.9528
X3.3465Y-3.248
X3.3465Y-3.3465
X3.3465Y-3.4449
X3.3465Y-3.5433
X3.3465Y-3.6417
X3.3465Y-4.0354
X3.3465Y-4.1339
X3.3465Y-4.2323
X3.3465Y-4.3307
X3.3465Y-4.4291
X3.3465Y-4.7244
X3.3465Y-4.8228
X3.3465Y-4.8228
X3.3465Y-4.9213
X3.4449Y-1.9685
X3.4449Y-2.0669
X3.4449Y-2.1654
X3.4449Y-2.4606
X3.4449Y-2.5591
X3.4449Y-2.6575
X3.4449Y-2.6575
X3.4449Y-2.7559
X3.4449Y-2.8543
X3.4449Y-2.9528
X3.4449Y-3.248
X3.4449Y-3.3465
X3.4449Y-3.4449
X3.4449Y-3.5433
X3.4449Y-3.6417
X3.4449Y-4.0354
X3.4449Y-4.1339
X3.4449Y-4.3307
X3.4449Y-4.4291
X3.4449Y-4.7244
X3.4449Y-4.8228
X3.4449Y-4.9213
X3.4449Y-4.9213
X3.5433Y-1.9685
X3.5433Y-2.1654
X3.5433Y-2.4606
X3.5433Y-2.6575
X3.5433Y-2.7559
X3.5433Y-3.248
X3.5433Y-3.4449
X3.5433Y-3.5433
X3.5433Y-4.0354
X3.5433Y-4.2323
X3.5433Y-4.7244
X3.5433Y-4.8228
X3.5433Y-4.9213
X3.6417Y-1.9685
X3.6417Y-2.4606
X3.6417Y-2.7559
X3.6417Y-3.4449
X3.6417Y-4.2323
X3.6417Y-4.7244
X3.7402Y-1.9685
X3.7402Y-2.1654
X3.7402Y-2.4606
X3.7402Y-2.6575
X3.7402Y-2.7559
X3.7402Y-3.4449
X3.7402Y-3.5433
X3.7402Y-4.0354
X3.7402Y-4.2323
X3.7402Y-4.7244
X3.7402Y-4.9213
X3.748Y-2.9449
X3.7992Y-3.2362
X3.8386Y-1.9685
X3.8386Y-2.2638
X3.8386Y-2.3622
X3.8386Y-2.4606
X3.8386Y-3.4449
X3.8386Y-3.5433
X3.8386Y-3.7402
X3.8386Y-3.8386
X3.8386Y-3.937
X3.8386Y-4.2323
X3.8386Y-4.4291
X3.8386Y-4.5276
X3.8386Y-4.626
X3.8386Y-4.7244
X3.8386Y-4.9213
X3.937Y-1.9685
X3.937Y-2.0669
X3.937Y-4.8228
X3.937Y-4.9213
X3.9626Y-4.6004
X4.0354Y-1.9685
X4.0354Y-2.0669
X4.0354Y-2.1654
X4.0354Y-2.8543
X4.0354Y-2.9528
X4.0354Y-2.9528
X4.0354Y-3.4449
X4.0354Y-3.5433
X4.0354Y-3.937
X4.0354Y-4.0354
X4.0354Y-4.2323
X4.0354Y-4.4291
X4.0354Y-4.5276
X4.0354Y-4.626
X4.0354Y-4.7244
X4.0354Y-4.8228
X4.0354Y-4.9213
X4.1339Y-1.9685
X4.1339Y-2.0669
X4.1339Y-2.1654
X4.1339Y-2.2638
X4.1339Y-2.3622
X4.1339Y-2.8543
X4.1339Y-2.9528
X4.1339Y-3.3465
X4.1339Y-3.4449
X4.1339Y-3.6417
X4.1339Y-3.937
X4.1339Y-4.0354
X4.1339Y-4.1339
X4.1339Y-4.4291
X4.1339Y-4.5276
X4.1339Y-4.626
X4.1339Y-4.7244
X4.1339Y-4.8228
X4.1339Y-4.9213
X4.1772Y-3.0984
X4.2323Y-2.2638
X4.2323Y-2.3622
X4.2323Y-2.8543
X4.2323Y-2.9528
X4.2323Y-3.3465
X4.2323Y-3.4449
X4.2323Y-3.937
X4.2323Y-4.0354
X4.2323Y-4.1339
X4.2323Y-4.4291
X4.2323Y-4.5276
X4.2323Y-4.626
X4.2323Y-4.8228
X4.2323Y-4.9213
X4.3307Y-2.2638
X4.3307Y-2.3622
X4.3307Y-3.4449
X4.3307Y-3.937
X4.3307Y-4.626
X4.3307Y-4.9213
X4.4291Y-1.9685
X4.4291Y-2.2638
X4.4291Y-2.3622
X4.4291Y-2.9528
X4.4291Y-3.6417
X4.4291Y-3.8386
X4.4291Y-4.0354
X4.4291Y-4.5276
X4.4291Y-4.626
X4.4291Y-4.7244
X4.4291Y-4.8228
X4.4291Y-4.9213
X4.437Y-3.2913
X4.4606Y-4.2638
X4.5079Y-3.2008
X4.5157Y-2.6693
X4.5276Y-1.9685
X4.5276Y-2.0669
X4.5276Y-2.1654
X4.5276Y-2.2638
X4.5276Y-2.9528
X4.5276Y-3.7402
X4.5276Y-4.5276
X4.5276Y-4.626
X4.5276Y-4.7244
X4.5276Y-4.8228
X4.5276Y-4.9213
X4.5354Y-4.2795
X4.5472Y-3.9921
X4.5748Y-3.1457
X4.5827Y-2.6024
X4.6024Y-4.2047
X4.6102Y-3.7244
X4.6181Y-3.2756
X4.626Y-1.9685
X4.626Y-2.0669
X4.626Y-2.1654
X4.626Y-2.2638
X4.626Y-2.9528
X4.626Y-3.6417
X4.626Y-4.5276
X4.626Y-4.626
X4.626Y-4.7244
X4.626Y-4.8228
X4.626Y-4.9213
X4.7244Y-1.9685
X4.7244Y-2.3622
X4.7244Y-2.7559
X4.7244Y-2.8543
X4.7244Y-3.248
X4.7244Y-3.3465
X4.7244Y-3.4449
X4.7244Y-3.8386
X4.7244Y-3.937
X4.7244Y-4.0354
X4.7244Y-4.4291
X4.7244Y-4.5276
X4.7244Y-4.626
X4.7244Y-4.7244
X4.7244Y-4.8228
X4.7244Y-4.9213
X4.8228Y-2.2638
X4.8228Y-2.3622
X4.8228Y-2.4606
X4.8228Y-2.5591
X4.8228Y-2.6575
X4.8228Y-3.3465
X4.8228Y-3.4449
X4.8228Y-3.8386
X4.8228Y-3.937
X4.8228Y-4.0354
X4.8228Y-4.5276
X4.8228Y-4.626
X4.8228Y-4.7244
X4.8228Y-4.8228
X4.8228Y-4.9213
X4.9213Y-2.2638
X4.9213Y-2.3622
X4.9213Y-2.4606
X4.9213Y-2.5591
X4.9213Y-2.6575
X4.9213Y-2.7559
X4.9213Y-2.7559
X4.9213Y-2.8543
X4.9213Y-4.3307
X4.9213Y-4.626
X4.9213Y-4.9213
X5.0197Y-2.2638
X5.0197Y-2.3622
X5.0197Y-2.4606
X5.0197Y-2.5591
X5.0197Y-2.6575
X5.0197Y-2.7559
X5.0197Y-2.8543
X5.0197Y-3.248
X5.0197Y-4.1339
X5.0197Y-4.9213
X5.1181Y-2.4606
X5.1181Y-2.5591
X5.1181Y-2.6575
X5.1181Y-2.7559
X5.1181Y-2.8543
X5.1181Y-2.9528
X5.1181Y-3.937
X5.1181Y-4.9213
X5.2087Y-2.2402
X5.2087Y-2.315
X5.2165Y-2.6575
X5.2165Y-2.7559
X5.2165Y-2.8543
X5.2165Y-2.9528
X5.2165Y-3.248
X5.2165Y-3.3465
X5.2165Y-3.4449
X5.2165Y-3.5433
X5.2165Y-3.6417
X5.2165Y-4.0354
X5.2165Y-4.3307
X5.2165Y-4.4291
X5.2165Y-4.5276
X5.2165Y-4.626
X5.2165Y-4.9213
X5.2362Y-3.0315
X5.315Y-2.6575
X5.315Y-2.7559
X5.315Y-2.8543
X5.315Y-2.9528
X5.315Y-3.0315
X5.315Y-3.6417
X5.315Y-4.0354
X5.315Y-4.4291
X5.315Y-4.5276
X5.315Y-4.626
X5.315Y-4.9213
X5.4134Y-2.6575
X5.4134Y-2.7559
X5.4134Y-2.8543
X5.4134Y-2.9528
X5.4134Y-3.5433
X5.4134Y-3.6417
X5.4134Y-4.0354
X5.4134Y-4.2323
X5.4134Y-4.4291
X5.4134Y-4.5276
X5.4134Y-4.626
X5.4134Y-4.9213
X5.4331Y-3.2283
X5.5118Y-2.8543
X5.5118Y-3.1496
X5.5118Y-3.6417
X5.5118Y-4.0354
X5.5118Y-4.9213
X5.5906Y-2.7953
X5.6102Y-3.0512
X5.6102Y-3.1496
X5.6102Y-3.248
X5.6102Y-3.3465
X5.6102Y-3.4449
X5.6102Y-3.5433
X5.6102Y-3.6417
X5.6102Y-4.0354
X5.6102Y-4.2323
X5.6102Y-4.3307
X5.6102Y-4.4291
X5.6102Y-4.5276
X5.6102Y-4.626
X5.6102Y-4.9213
X5.6693Y-2.0079
X5.6693Y-2.0866
X5.6693Y-2.1654
X5.6693Y-2.4803
X5.7087Y-2.3228
X5.7087Y-4.626
X5.7087Y-4.7244
X5.7087Y-4.9213
X5.7874Y-2.6378
X5.8071Y-2.7559
X5.8071Y-3.8386
X5.8071Y-4.2323
X5.8071Y-4.3307
X5.8071Y-4.9213
X5.872Y-2.827
X5.9055Y-2.7559
X5.9055Y-3.0512
X5.9055Y-3.3858
X5.9055Y-3.8386
X5.9055Y-3.937
X5.9055Y-4.2323
X5.9055Y-4.3307
X5.9055Y-4.4291
X5.9055Y-4.5276
X5.9055Y-4.9213
X5.9291Y-3.2638
X5.9449Y-2.5197
X5.9449Y-2.6378
X5.9606Y-3.189
X5.9626Y-3.3386
X6.0039Y-2.7559
X6.0039Y-3.0512
X6.0039Y-3.937
X6.0039Y-4.2323
X6.0039Y-4.3307
X6.0039Y-4.4291
X6.0039Y-4.626
X6.0039Y-4.7244
X6.0039Y-4.9213
X6.0236Y-3.7008
X6.0512Y-2.8189
X6.1004Y-3.1132
X6.1024Y-2.7559
X6.1024Y-3.0512
X6.1024Y-3.7402
X6.1024Y-3.7402
X6.1024Y-3.937
X6.1024Y-4.2323
X6.1024Y-4.3307
X6.1024Y-4.626
X6.1024Y-4.9213
X6.1281Y-2.8722
X6.186Y-3.0492
X6.2008Y-4.9213
X6.2244Y-2.9774
X6.2598Y-3.3858
X6.2992Y-1.9685
X6.2992Y-2.9528
X6.2992Y-3.1496
X6.2992Y-4.9213
X6.3386Y-3.3858
X6.3396Y-2.6516
X6.3898Y-2.2126
X6.3976Y-1.9685
X6.3976Y-2.9528
X6.3976Y-3.1496
X6.3976Y-3.7402
X6.3976Y-3.937
X6.3976Y-4.2323
X6.3976Y-4.3307
X6.3976Y-4.4291
X6.3976Y-4.5276
X6.3976Y-4.9213
X6.4173Y-2.4016
X6.4173Y-3.3858
X6.4921Y-2.2126
X6.4961Y-1.9685
X6.4961Y-2.3622
X6.4961Y-2.4606
X6.4961Y-2.7559
X6.4961Y-2.8543
X6.4961Y-2.9528
X6.4961Y-3.3858
X6.4961Y-3.937
X6.4961Y-4.2323
X6.4961Y-4.3307
X6.4961Y-4.4291
X6.4961Y-4.5276
X6.4961Y-4.9213
X6.5945Y-2.9528
X6.5945Y-3.0512
X6.5945Y-3.937
X6.5945Y-4.2323
X6.5945Y-4.3307
X6.5945Y-4.4291
X6.5945Y-4.5276
X6.5945Y-4.626
X6.5945Y-4.9213
X6.6043Y-2.6535
X6.6909Y-4.0846
X6.6929Y-1.9685
X6.6929Y-2.7559
X6.6929Y-2.8543
X6.6929Y-3.937
X6.6929Y-4.2323
X6.6929Y-4.3307
X6.6929Y-4.4291
X6.6929Y-4.5276
X6.6929Y-4.8228
X6.6929Y-4.9213
X6.7323Y-2.6378
X6.7343Y-3.8051
X6.7598Y-2.3386
X6.7717Y-2.4409
X6.7913Y-1.9685
X6.7913Y-2.5591
X6.7913Y-2.6575
X6.7913Y-2.7559
X6.7913Y-2.8543
X6.7913Y-2.9528
X6.7913Y-3.3465
X6.7913Y-3.4449
X6.7913Y-4.7244
X6.7913Y-4.8228
X6.7913Y-4.9213
X6.8622Y-2.185
X6.8898Y-1.9685
X6.8898Y-3.248
X6.8898Y-3.3465
X6.8898Y-3.4449
X6.8898Y-3.4449
X6.8898Y-4.5276
X6.8898Y-4.626
X6.8898Y-4.7244
X6.8898Y-4.8228
X6.8898Y-4.9213
X6.9882Y-1.9685
X6.9882Y-2.0669
X6.9882Y-2.1654
X6.9882Y-2.2638
X6.9882Y-2.3622
X6.9882Y-2.4606
X6.9882Y-2.6575
X6.9882Y-2.7559
X6.9882Y-2.8543
X6.9882Y-3.1496
X6.9882Y-3.248
X6.9882Y-3.3465
X6.9882Y-3.4449
X6.9882Y-3.6417
X6.9882Y-3.7402
X6.9882Y-3.8386
X6.9882Y-3.937
X6.9882Y-4.1339
X6.9882Y-4.2323
X6.9882Y-4.3307
X6.9882Y-4.5276
X6.9882Y-4.626
X6.9882Y-4.7244
X6.9882Y-4.8228
X6.9882Y-4.9213
X7.0866Y-1.9685
X7.0866Y-2.0669
X7.0866Y-2.1654
X7.0866Y-2.3622
X7.0866Y-2.4606
X7.0866Y-2.5591
X7.0866Y-2.6575
X7.0866Y-3.1496
X7.0866Y-3.248
X7.0866Y-3.3465
X7.0866Y-3.6417
X7.0866Y-3.7402
X7.0866Y-3.8386
X7.0866Y-3.937
X7.0866Y-4.1339
X7.0866Y-4.2323
X7.0866Y-4.3307
X7.0866Y-4.5276
X7.0866Y-4.626
X7.0866Y-4.7244
X7.0866Y-4.8228
X7.0866Y-4.9213
X7.185Y-1.9685
X7.185Y-2.0669
X7.185Y-2.1654
X7.185Y-2.4606
X7.185Y-2.5591
X7.185Y-2.6575
X7.185Y-2.7559
X7.185Y-3.1496
X7.185Y-3.1496
X7.185Y-3.248
X7.185Y-3.4449
X7.185Y-3.6417
X7.185Y-3.7402
X7.185Y-3.8386
X7.185Y-3.937
X7.185Y-4.1339
X7.185Y-4.2323
X7.185Y-4.3307
X7.185Y-4.5276
X7.185Y-4.626
X7.185Y-4.7244
X7.185Y-4.8228
X7.185Y-4.9213
X7.2835Y-1.9685
X7.2835Y-2.0669
X7.2835Y-2.1654
X7.2835Y-2.4606
X7.2835Y-2.5591
X7.2835Y-2.6575
X7.2835Y-2.7559
X7.2835Y-3.1496
X7.2835Y-3.3465
X7.2835Y-3.4449
X7.2835Y-3.6417
X7.2835Y-3.7402
X7.2835Y-3.8386
X7.2835Y-3.937
X7.2835Y-4.2323
X7.2835Y-4.5276
X7.2835Y-4.626
X7.2835Y-4.7244
X7.2835Y-4.8228
X7.2835Y-4.9213
X7.3819Y-2.4606
X7.3819Y-2.5591
X7.3819Y-2.7559
X7.3819Y-3.248
X7.3819Y-3.3465
X7.3819Y-3.4449
X7.3819Y-3.6417
X7.3819Y-3.7402
X7.3819Y-3.8386
X7.3819Y-3.937
X7.3819Y-4.1339
X7.3819Y-4.5276
X7.3819Y-4.626
X7.3819Y-4.7244
X7.3819Y-4.8228
X7.3819Y-4.9213
X7.4803Y-2.6575
X7.4803Y-3.1496
X7.4803Y-3.248
X7.4803Y-3.3465
X7.4803Y-3.5433
X7.4803Y-3.6417
X7.4803Y-3.7402
X7.4803Y-3.8386
X7.4803Y-3.937
X7.4803Y-4.4291
X7.4803Y-4.5276
X7.4803Y-4.626
X7.4803Y-4.7244
X7.4803Y-4.8228
X7.4803Y-4.9213
X7.5787Y-1.9685
X7.5787Y-2.5591
X7.5787Y-2.6575
X7.5787Y-2.7559
X7.5787Y-3.1496
X7.5787Y-3.248
X7.5787Y-3.4449
X7.5787Y-3.5433
X7.5787Y-3.6417
X7.5787Y-3.7402
X7.5787Y-3.8386
X7.5787Y-3.937
X7.5787Y-4.3307
X7.5787Y-4.4291
X7.5787Y-4.5276
X7.5787Y-4.626
X7.5787Y-4.7244
X7.5787Y-4.8228
X7.5787Y-4.9213
X7.6772Y-2.4606
X7.6772Y-2.6575
X7.6772Y-2.7559
X7.6772Y-3.1496
X7.6772Y-3.3465
X7.6772Y-3.4449
X7.6772Y-3.5433
X7.6772Y-3.6417
X7.6772Y-3.7402
X7.6772Y-3.8386
X7.6772Y-3.937
X7.6772Y-4.0354
X7.6772Y-4.2323
X7.6772Y-4.3307
X7.6772Y-4.4291
X7.6772Y-4.5276
X7.6772Y-4.626
X7.6772Y-4.7244
X7.6772Y-4.8228
X7.6772Y-4.9213
X7.7756Y-1.9685
X7.7756Y-2.1654
X7.7756Y-2.4606
X7.7756Y-2.5591
X7.7756Y-2.7559
X7.7756Y-3.248
X7.7756Y-3.3465
X7.7756Y-3.4449
X7.7756Y-3.5433
X7.7756Y-3.6417
X7.7756Y-3.7402
X7.7756Y-3.8386
X7.7756Y-3.937
X7.7756Y-4.1339
X7.7756Y-4.2323
X7.7756Y-4.3307
X7.7756Y-4.4291
X7.7756Y-4.5276
X7.7756Y-4.626
X7.7756Y-4.7244
X7.7756Y-4.8228
X7.7756Y-4.9213
X7.8268Y-2.8425
X7.874Y-1.9685
X7.874Y-2.0669
X7.874Y-2.4606
X7.874Y-2.5591
X7.874Y-2.6575
X7.874Y-3.1496
X7.874Y-3.248
X7.874Y-3.3465
X7.874Y-3.4449
X7.874Y-3.5433
X7.874Y-3.6417
X7.874Y-3.7402
X7.874Y-3.8386
X7.874Y-4.0354
X7.874Y-4.1339
X7.874Y-4.2323
X7.874Y-4.3307
X7.874Y-4.4291
X7.874Y-4.5276
X7.874Y-4.626
X7.874Y-4.7244
X7.874Y-4.8228
X7.874Y-4.9213
X7.9724Y-3.937
X7.9724Y-4.0354
X7.9724Y-4.1339
X7.9724Y-4.1339
X7.9724Y-4.2323
X7.9724Y-4.3307
X7.9724Y-4.4291
X7.9724Y-4.5276
X7.9724Y-4.626
X7.9724Y-4.7244
X7.9724Y-4.8228
X7.9724Y-4.9213
X8.0709Y-3.3465
X8.0709Y-3.4449
X8.0709Y-3.5433
X8.0709Y-3.6417
X8.0709Y-3.7402
X8.0709Y-3.8386
X8.0709Y-3.937
X8.0709Y-4.0354
X8.0709Y-4.1339
X8.0709Y-4.2323
X8.0709Y-4.3307
X8.0709Y-4.4291
X8.0709Y-4.5276
X8.0709Y-4.626
X8.0709Y-4.7244
X8.0709Y-4.8228
X8.0709Y-4.9213
X8.1693Y-3.3465
X8.1693Y-3.4449
X8.1693Y-3.5433
X8.1693Y-3.6417
X8.1693Y-3.7402
X8.1693Y-3.8386
X8.1693Y-3.937
X8.1693Y-4.0354
X8.1693Y-4.1339
X8.1693Y-4.2323
X8.1693Y-4.3307
X8.1693Y-4.4291
X8.1693Y-4.5276
X8.1693Y-4.8228
X8.1693Y-4.9213
X8.2677Y-3.5433
X8.2677Y-3.5433
X8.2677Y-3.6417
X8.2677Y-3.7402
X8.2677Y-3.8386
X8.2677Y-3.937
X8.2677Y-4.0354
X8.2677Y-4.1339
X8.2677Y-4.2323
X8.2677Y-4.3307
X8.2677Y-4.4291
X8.2677Y-4.5276
X8.2677Y-4.8228
X8.2677Y-4.9213
X8.3661Y-3.4449
X8.3661Y-3.5433
X8.3661Y-3.6417
X8.3661Y-3.7402
X8.3661Y-3.8386
X8.3661Y-3.937
X8.3661Y-4.0354
X8.3661Y-4.1339
X8.3661Y-4.2323
X8.3661Y-4.3307
X8.3661Y-4.4291
X8.3661Y-4.5276
X8.3661Y-4.8228
X8.3661Y-4.9213
X8.4213Y-2.122
X8.4213Y-2.2008
X8.4213Y-2.2795
X8.4213Y-2.3583
X8.4213Y-2.437
X8.4213Y-2.5157
X8.4213Y-2.5945
X8.4213Y-2.6732
X8.4213Y-2.752
X8.4646Y-3.3465
X8.4646Y-3.4449
X8.4646Y-3.5433
X8.4646Y-3.6417
X8.4646Y-3.7402
X8.4646Y-3.8386
X8.4646Y-3.937
X8.4646Y-4.0354
X8.4646Y-4.1339
X8.4646Y-4.2323
X8.4646Y-4.3307
X8.4646Y-4.4291
X8.4646Y-4.5276
X8.4646Y-4.8228
X8.4646Y-4.9213
X8.563Y-3.3465
X8.563Y-3.4449
X8.563Y-3.5433
X8.563Y-3.6417
X8.563Y-3.7402
X8.563Y-3.7402
X8.563Y-3.8386
X8.563Y-3.937
X8.563Y-4.0354
X8.563Y-4.1339
X8.563Y-4.2323
X8.563Y-4.3307
X8.563Y-4.4291
X8.563Y-4.5276
X8.563Y-4.9213
X8.6181Y-2.0433
X8.6181Y-2.122
X8.6181Y-2.2008
X8.6181Y-2.2795
X8.6181Y-2.3583
X8.6181Y-2.437
X8.6181Y-2.5157
X8.6181Y-2.5945
X8.6181Y-2.6732
X8.6181Y-2.752
X8.6614Y-3.3465
X8.6614Y-3.4449
X8.6614Y-3.5433
X8.6614Y-3.6417
X8.6614Y-3.7402
X8.6614Y-3.8386
X8.6614Y-3.937
X8.6614Y-4.0354
X8.6614Y-4.1339
X8.6614Y-4.2323
X8.6614Y-4.3307
X8.6614Y-4.4291
X8.6614Y-4.5276
X8.6614Y-4.9213
T2
X5.6319Y-2.2638
X5.7303Y-2.7067
X6.0906Y-2.2618
X6.9134Y-3.7374
X6.9134Y-3.8374
X6.9134Y-3.9374
X6.9134Y-4.0374
X6.9134Y-4.1374
X6.9134Y-4.2374
X6.9134Y-4.3374
X7.2144Y-2.3014
X7.2144Y-2.9427
X7.3144Y-2.3014
X7.3144Y-2.9427
X7.4144Y-2.3014
X7.4144Y-2.9427
X7.5144Y-2.3014
X7.5144Y-2.9427
X7.6144Y-2.3014
X7.6144Y-2.9427
X7.7144Y-2.3014
X7.7144Y-2.9427
X7.8144Y-2.3014
X7.8144Y-2.9427
X7.9144Y-2.3014
X7.9144Y-2.9427
T3
X6.3396Y-2.7697
X6.3396Y-2.8697
X6.6053Y-2.7697
X6.6053Y-2.8697
X6.8691Y-2.7697
X6.8691Y-2.8697
T4
X4.8902Y-2.0925
X4.964Y-4.7549
X4.9902Y-2.0925
X5.064Y-4.7549
X5.0902Y-2.0925
X5.164Y-4.7549
X5.3962Y-4.7549
X5.4962Y-4.7549
X5.5962Y-4.7549
X5.8272Y-4.7549
X5.9272Y-4.7549
X6.1583Y-4.7549
X6.2583Y-4.7549
X6.3583Y-4.7549
X6.3974Y-2.0925
X6.4583Y-4.7549
X6.4974Y-2.0925
X6.5974Y-2.0925
X6.6974Y-2.0925
X6.7974Y-2.0925
T5
X3.1634Y-2.0984
X3.1634Y-2.5709
X3.1634Y-2.8556
X3.1634Y-3.3281
X3.1634Y-3.6129
X3.1634Y-4.0853
X3.1634Y-4.3701
X3.1634Y-4.8425
X3.6437Y-2.0984
X3.6437Y-2.5709
X3.6437Y-2.8556
X3.6437Y-3.3281
X3.6437Y-3.6129
X3.6437Y-4.0853
X3.6437Y-4.3701
X3.6437Y-4.8425
X3.7224Y-2.3346
X3.7224Y-3.0919
X3.7224Y-3.8491
X3.7224Y-4.6063
T6
X2.7815Y-2.2382
X2.7815Y-2.4382
X2.7815Y-2.9871
X2.7815Y-3.1871
X2.7815Y-3.7361
X2.7815Y-3.9361
X2.7815Y-4.485
X2.7815Y-4.685
T7
X8.2835Y-3.3681
X8.2835Y-4.7067
T0
M30
