%TF.GenerationSoftware,KiCad,Pcbnew,(5.1.9)-1*%
%TF.CreationDate,2021-07-20T21:45:38-05:00*%
%TF.ProjectId,Control de Gabinetes,436f6e74-726f-46c2-9064-652047616269,rev?*%
%TF.SameCoordinates,Original*%
%TF.FileFunction,Soldermask,Bot*%
%TF.FilePolarity,Negative*%
%FSLAX46Y46*%
G04 Gerber Fmt 4.6, Leading zero omitted, Abs format (unit mm)*
G04 Created by KiCad (PCBNEW (5.1.9)-1) date 2021-07-20 21:45:38*
%MOMM*%
%LPD*%
G01*
G04 APERTURE LIST*
%ADD10R,3.000000X1.000000*%
%ADD11C,3.500000*%
%ADD12C,3.000000*%
%ADD13R,3.000000X3.000000*%
%ADD14C,4.000000*%
%ADD15C,1.800000*%
%ADD16R,1.780000X2.500000*%
%ADD17O,1.740000X2.190000*%
%ADD18O,1.700000X1.700000*%
%ADD19R,1.700000X1.700000*%
G04 APERTURE END LIST*
D10*
%TO.C,AE1*%
X206480000Y-51900000D03*
%TD*%
D11*
%TO.C,H3*%
X109700000Y-120300000D03*
%TD*%
%TO.C,H2*%
X217350000Y-120300000D03*
%TD*%
%TO.C,H1*%
X109700000Y-53650000D03*
%TD*%
D12*
%TO.C,J10*%
X70650000Y-119000000D03*
D13*
X70650000Y-113920000D03*
%TD*%
D12*
%TO.C,J9*%
X70650000Y-99976666D03*
D13*
X70650000Y-94896666D03*
%TD*%
D12*
%TO.C,J8*%
X70650000Y-80953333D03*
D13*
X70650000Y-75873333D03*
%TD*%
D12*
%TO.C,J7*%
X70650000Y-61930000D03*
D13*
X70650000Y-56850000D03*
%TD*%
D14*
%TO.C,U5*%
X210400000Y-119550000D03*
X210400000Y-85550000D03*
D15*
X175600000Y-110170000D03*
X175600000Y-107630000D03*
X175600000Y-105090000D03*
X175600000Y-102550000D03*
X175600000Y-100010000D03*
X175600000Y-97470000D03*
X175600000Y-94930000D03*
%TD*%
D12*
%TO.C,K1*%
X94550000Y-59300000D03*
X92550000Y-65300000D03*
X80350000Y-65300000D03*
X80350000Y-53300000D03*
X92550000Y-53300000D03*
%TD*%
D16*
%TO.C,U4*%
X201025000Y-75325000D03*
X198485000Y-75325000D03*
X195945000Y-75325000D03*
X193405000Y-75325000D03*
X190865000Y-75325000D03*
X188325000Y-75325000D03*
X185785000Y-75325000D03*
X183245000Y-75325000D03*
X183245000Y-57875000D03*
X185785000Y-57875000D03*
X188325000Y-57875000D03*
X201025000Y-57875000D03*
X198485000Y-57875000D03*
X190865000Y-57875000D03*
X195945000Y-57875000D03*
X193405000Y-57875000D03*
%TD*%
D12*
%TO.C,K3*%
X94550000Y-97766666D03*
X92550000Y-103766666D03*
X80350000Y-103766666D03*
X80350000Y-91766666D03*
X92550000Y-91766666D03*
%TD*%
D17*
%TO.C,J6*%
X172655000Y-53150000D03*
X170115000Y-53150000D03*
X167575000Y-53150000D03*
X165035000Y-53150000D03*
G36*
G01*
X161625000Y-53995001D02*
X161625000Y-52304999D01*
G75*
G02*
X161874999Y-52055000I249999J0D01*
G01*
X163115001Y-52055000D01*
G75*
G02*
X163365000Y-52304999I0J-249999D01*
G01*
X163365000Y-53995001D01*
G75*
G02*
X163115001Y-54245000I-249999J0D01*
G01*
X161874999Y-54245000D01*
G75*
G02*
X161625000Y-53995001I0J249999D01*
G01*
G37*
%TD*%
D18*
%TO.C,J13*%
X161025000Y-72890000D03*
D19*
X161025000Y-70350000D03*
%TD*%
D18*
%TO.C,J12*%
X167775000Y-72890000D03*
D19*
X167775000Y-70350000D03*
%TD*%
D18*
%TO.C,J11*%
X174475000Y-72890000D03*
D19*
X174475000Y-70350000D03*
%TD*%
D12*
%TO.C,K4*%
X94550000Y-117000000D03*
X92550000Y-123000000D03*
X80350000Y-123000000D03*
X80350000Y-111000000D03*
X92550000Y-111000000D03*
%TD*%
%TO.C,K2*%
X94550000Y-78533333D03*
X92550000Y-84533333D03*
X80350000Y-84533333D03*
X80350000Y-72533333D03*
X92550000Y-72533333D03*
%TD*%
D17*
%TO.C,J5*%
X137063333Y-120775000D03*
X139603333Y-120775000D03*
G36*
G01*
X143013333Y-119929999D02*
X143013333Y-121620001D01*
G75*
G02*
X142763334Y-121870000I-249999J0D01*
G01*
X141523332Y-121870000D01*
G75*
G02*
X141273333Y-121620001I0J249999D01*
G01*
X141273333Y-119929999D01*
G75*
G02*
X141523332Y-119680000I249999J0D01*
G01*
X142763334Y-119680000D01*
G75*
G02*
X143013333Y-119929999I0J-249999D01*
G01*
G37*
%TD*%
%TO.C,J4*%
X156420000Y-120775000D03*
X158960000Y-120775000D03*
X161500000Y-120775000D03*
G36*
G01*
X164910000Y-119929999D02*
X164910000Y-121620001D01*
G75*
G02*
X164660001Y-121870000I-249999J0D01*
G01*
X163419999Y-121870000D01*
G75*
G02*
X163170000Y-121620001I0J249999D01*
G01*
X163170000Y-119929999D01*
G75*
G02*
X163419999Y-119680000I249999J0D01*
G01*
X164660001Y-119680000D01*
G75*
G02*
X164910000Y-119929999I0J-249999D01*
G01*
G37*
%TD*%
%TO.C,J3*%
X126085000Y-120775000D03*
X128625000Y-120775000D03*
G36*
G01*
X132035000Y-119929999D02*
X132035000Y-121620001D01*
G75*
G02*
X131785001Y-121870000I-249999J0D01*
G01*
X130544999Y-121870000D01*
G75*
G02*
X130295000Y-121620001I0J249999D01*
G01*
X130295000Y-119929999D01*
G75*
G02*
X130544999Y-119680000I249999J0D01*
G01*
X131785001Y-119680000D01*
G75*
G02*
X132035000Y-119929999I0J-249999D01*
G01*
G37*
%TD*%
%TO.C,J2*%
X148011666Y-120775000D03*
G36*
G01*
X151421666Y-119929999D02*
X151421666Y-121620001D01*
G75*
G02*
X151171667Y-121870000I-249999J0D01*
G01*
X149931665Y-121870000D01*
G75*
G02*
X149681666Y-121620001I0J249999D01*
G01*
X149681666Y-119929999D01*
G75*
G02*
X149931665Y-119680000I249999J0D01*
G01*
X151171667Y-119680000D01*
G75*
G02*
X151421666Y-119929999I0J-249999D01*
G01*
G37*
%TD*%
%TO.C,J1*%
X129290000Y-53150000D03*
X126750000Y-53150000D03*
G36*
G01*
X123340000Y-53995001D02*
X123340000Y-52304999D01*
G75*
G02*
X123589999Y-52055000I249999J0D01*
G01*
X124830001Y-52055000D01*
G75*
G02*
X125080000Y-52304999I0J-249999D01*
G01*
X125080000Y-53995001D01*
G75*
G02*
X124830001Y-54245000I-249999J0D01*
G01*
X123589999Y-54245000D01*
G75*
G02*
X123340000Y-53995001I0J249999D01*
G01*
G37*
%TD*%
M02*
