%TF.GenerationSoftware,KiCad,Pcbnew,(5.1.9)-1*%
%TF.CreationDate,2021-07-20T21:45:38-05:00*%
%TF.ProjectId,Control de Gabinetes,436f6e74-726f-46c2-9064-652047616269,rev?*%
%TF.SameCoordinates,Original*%
%TF.FileFunction,Soldermask,Top*%
%TF.FilePolarity,Negative*%
%FSLAX46Y46*%
G04 Gerber Fmt 4.6, Leading zero omitted, Abs format (unit mm)*
G04 Created by KiCad (PCBNEW (5.1.9)-1) date 2021-07-20 21:45:38*
%MOMM*%
%LPD*%
G01*
G04 APERTURE LIST*
%ADD10O,1.450000X1.850000*%
%ADD11R,3.000000X1.000000*%
%ADD12C,3.500000*%
%ADD13C,3.000000*%
%ADD14R,3.000000X3.000000*%
%ADD15C,4.000000*%
%ADD16C,1.800000*%
%ADD17R,1.780000X2.500000*%
%ADD18R,1.800000X2.500000*%
%ADD19R,0.900000X0.800000*%
%ADD20R,0.800000X0.900000*%
%ADD21R,2.000000X0.900000*%
%ADD22R,0.900000X2.000000*%
%ADD23R,5.000000X5.000000*%
%ADD24O,1.740000X2.190000*%
%ADD25O,1.700000X1.700000*%
%ADD26R,1.700000X1.700000*%
%ADD27R,1.700000X1.000000*%
%ADD28R,1.500000X2.000000*%
%ADD29R,3.800000X2.000000*%
G04 APERTURE END LIST*
D10*
%TO.C,U9*%
X114180000Y-103775000D03*
X116720000Y-103775000D03*
X116720000Y-112675000D03*
X114180000Y-112675000D03*
%TD*%
%TO.C,U8*%
X114080000Y-90500000D03*
X116620000Y-90500000D03*
X116620000Y-99400000D03*
X114080000Y-99400000D03*
%TD*%
%TO.C,U7*%
X114230000Y-77050000D03*
X116770000Y-77050000D03*
X116770000Y-85950000D03*
X114230000Y-85950000D03*
%TD*%
%TO.C,U6*%
X114226879Y-62750000D03*
X116766879Y-62750000D03*
X116766879Y-71650000D03*
X114226879Y-71650000D03*
%TD*%
D11*
%TO.C,AE1*%
X206480000Y-51900000D03*
%TD*%
D12*
%TO.C,H3*%
X109700000Y-120300000D03*
%TD*%
%TO.C,H2*%
X217350000Y-120300000D03*
%TD*%
%TO.C,H1*%
X109700000Y-53650000D03*
%TD*%
D13*
%TO.C,J10*%
X70650000Y-119000000D03*
D14*
X70650000Y-113920000D03*
%TD*%
D13*
%TO.C,J9*%
X70650000Y-99976666D03*
D14*
X70650000Y-94896666D03*
%TD*%
D13*
%TO.C,J8*%
X70650000Y-80953333D03*
D14*
X70650000Y-75873333D03*
%TD*%
D13*
%TO.C,J7*%
X70650000Y-61930000D03*
D14*
X70650000Y-56850000D03*
%TD*%
D15*
%TO.C,U5*%
X210400000Y-119550000D03*
X210400000Y-85550000D03*
D16*
X175600000Y-110170000D03*
X175600000Y-107630000D03*
X175600000Y-105090000D03*
X175600000Y-102550000D03*
X175600000Y-100010000D03*
X175600000Y-97470000D03*
X175600000Y-94930000D03*
%TD*%
D13*
%TO.C,K1*%
X94550000Y-59300000D03*
X92550000Y-65300000D03*
X80350000Y-65300000D03*
X80350000Y-53300000D03*
X92550000Y-53300000D03*
%TD*%
D17*
%TO.C,U4*%
X201025000Y-75325000D03*
X198485000Y-75325000D03*
X195945000Y-75325000D03*
X193405000Y-75325000D03*
X190865000Y-75325000D03*
X188325000Y-75325000D03*
X185785000Y-75325000D03*
X183245000Y-75325000D03*
X183245000Y-57875000D03*
X185785000Y-57875000D03*
X188325000Y-57875000D03*
X201025000Y-57875000D03*
X198485000Y-57875000D03*
X190865000Y-57875000D03*
X195945000Y-57875000D03*
X193405000Y-57875000D03*
%TD*%
%TO.C,C8*%
G36*
G01*
X169225000Y-95350000D02*
X168275000Y-95350000D01*
G75*
G02*
X168025000Y-95100000I0J250000D01*
G01*
X168025000Y-94600000D01*
G75*
G02*
X168275000Y-94350000I250000J0D01*
G01*
X169225000Y-94350000D01*
G75*
G02*
X169475000Y-94600000I0J-250000D01*
G01*
X169475000Y-95100000D01*
G75*
G02*
X169225000Y-95350000I-250000J0D01*
G01*
G37*
G36*
G01*
X169225000Y-97250000D02*
X168275000Y-97250000D01*
G75*
G02*
X168025000Y-97000000I0J250000D01*
G01*
X168025000Y-96500000D01*
G75*
G02*
X168275000Y-96250000I250000J0D01*
G01*
X169225000Y-96250000D01*
G75*
G02*
X169475000Y-96500000I0J-250000D01*
G01*
X169475000Y-97000000D01*
G75*
G02*
X169225000Y-97250000I-250000J0D01*
G01*
G37*
%TD*%
%TO.C,C7*%
G36*
G01*
X168325000Y-80700000D02*
X169275000Y-80700000D01*
G75*
G02*
X169525000Y-80950000I0J-250000D01*
G01*
X169525000Y-81450000D01*
G75*
G02*
X169275000Y-81700000I-250000J0D01*
G01*
X168325000Y-81700000D01*
G75*
G02*
X168075000Y-81450000I0J250000D01*
G01*
X168075000Y-80950000D01*
G75*
G02*
X168325000Y-80700000I250000J0D01*
G01*
G37*
G36*
G01*
X168325000Y-78800000D02*
X169275000Y-78800000D01*
G75*
G02*
X169525000Y-79050000I0J-250000D01*
G01*
X169525000Y-79550000D01*
G75*
G02*
X169275000Y-79800000I-250000J0D01*
G01*
X168325000Y-79800000D01*
G75*
G02*
X168075000Y-79550000I0J250000D01*
G01*
X168075000Y-79050000D01*
G75*
G02*
X168325000Y-78800000I250000J0D01*
G01*
G37*
%TD*%
D13*
%TO.C,K3*%
X94550000Y-97766666D03*
X92550000Y-103766666D03*
X80350000Y-103766666D03*
X80350000Y-91766666D03*
X92550000Y-91766666D03*
%TD*%
D18*
%TO.C,D3*%
X101350000Y-69250000D03*
X101350000Y-65250000D03*
%TD*%
D19*
%TO.C,Q2*%
X105583334Y-67637500D03*
X107583334Y-66687500D03*
X107583334Y-68587500D03*
%TD*%
%TO.C,R25*%
G36*
G01*
X109999999Y-65850000D02*
X110900001Y-65850000D01*
G75*
G02*
X111150000Y-66099999I0J-249999D01*
G01*
X111150000Y-66625001D01*
G75*
G02*
X110900001Y-66875000I-249999J0D01*
G01*
X109999999Y-66875000D01*
G75*
G02*
X109750000Y-66625001I0J249999D01*
G01*
X109750000Y-66099999D01*
G75*
G02*
X109999999Y-65850000I249999J0D01*
G01*
G37*
G36*
G01*
X109999999Y-64025000D02*
X110900001Y-64025000D01*
G75*
G02*
X111150000Y-64274999I0J-249999D01*
G01*
X111150000Y-64800001D01*
G75*
G02*
X110900001Y-65050000I-249999J0D01*
G01*
X109999999Y-65050000D01*
G75*
G02*
X109750000Y-64800001I0J249999D01*
G01*
X109750000Y-64274999D01*
G75*
G02*
X109999999Y-64025000I249999J0D01*
G01*
G37*
%TD*%
%TO.C,R21*%
G36*
G01*
X110900001Y-69337500D02*
X109999999Y-69337500D01*
G75*
G02*
X109750000Y-69087501I0J249999D01*
G01*
X109750000Y-68562499D01*
G75*
G02*
X109999999Y-68312500I249999J0D01*
G01*
X110900001Y-68312500D01*
G75*
G02*
X111150000Y-68562499I0J-249999D01*
G01*
X111150000Y-69087501D01*
G75*
G02*
X110900001Y-69337500I-249999J0D01*
G01*
G37*
G36*
G01*
X110900001Y-71162500D02*
X109999999Y-71162500D01*
G75*
G02*
X109750000Y-70912501I0J249999D01*
G01*
X109750000Y-70387499D01*
G75*
G02*
X109999999Y-70137500I249999J0D01*
G01*
X110900001Y-70137500D01*
G75*
G02*
X111150000Y-70387499I0J-249999D01*
G01*
X111150000Y-70912501D01*
G75*
G02*
X110900001Y-71162500I-249999J0D01*
G01*
G37*
%TD*%
D20*
%TO.C,Q8*%
X161025000Y-65750000D03*
X160075000Y-63750000D03*
X161975000Y-63750000D03*
%TD*%
%TO.C,Q7*%
X167750000Y-65750000D03*
X166800000Y-63750000D03*
X168700000Y-63750000D03*
%TD*%
%TO.C,Q6*%
X174475000Y-65750000D03*
X173525000Y-63750000D03*
X175425000Y-63750000D03*
%TD*%
D19*
%TO.C,Q5*%
X105400000Y-108100000D03*
X107400000Y-107150000D03*
X107400000Y-109050000D03*
%TD*%
%TO.C,Q4*%
X105033334Y-95333332D03*
X107033334Y-94383332D03*
X107033334Y-96283332D03*
%TD*%
%TO.C,Q3*%
X105433334Y-81716666D03*
X107433334Y-80766666D03*
X107433334Y-82666666D03*
%TD*%
D21*
%TO.C,U1*%
X147550000Y-78445000D03*
X147550000Y-79715000D03*
X147550000Y-80985000D03*
X147550000Y-82255000D03*
X147550000Y-83525000D03*
X147550000Y-84795000D03*
X147550000Y-86065000D03*
X147550000Y-87335000D03*
X147550000Y-88605000D03*
X147550000Y-89875000D03*
X147550000Y-91145000D03*
X147550000Y-92415000D03*
X147550000Y-93685000D03*
X147550000Y-94955000D03*
D22*
X144765000Y-95955000D03*
X143495000Y-95955000D03*
X142225000Y-95955000D03*
X140955000Y-95955000D03*
X139685000Y-95955000D03*
X138415000Y-95955000D03*
X137145000Y-95955000D03*
X135875000Y-95955000D03*
X134605000Y-95955000D03*
X133335000Y-95955000D03*
D21*
X130550000Y-94955000D03*
X130550000Y-93685000D03*
X130550000Y-92415000D03*
X130550000Y-91145000D03*
X130550000Y-89875000D03*
X130550000Y-88605000D03*
X130550000Y-87335000D03*
X130550000Y-86065000D03*
X130550000Y-84795000D03*
X130550000Y-83525000D03*
X130550000Y-82255000D03*
X130550000Y-80985000D03*
X130550000Y-79715000D03*
X130550000Y-78445000D03*
D23*
X138050000Y-85945000D03*
%TD*%
%TO.C,D8*%
G36*
G01*
X189475000Y-50893750D02*
X189475000Y-51806250D01*
G75*
G02*
X189231250Y-52050000I-243750J0D01*
G01*
X188743750Y-52050000D01*
G75*
G02*
X188500000Y-51806250I0J243750D01*
G01*
X188500000Y-50893750D01*
G75*
G02*
X188743750Y-50650000I243750J0D01*
G01*
X189231250Y-50650000D01*
G75*
G02*
X189475000Y-50893750I0J-243750D01*
G01*
G37*
G36*
G01*
X191350000Y-50893750D02*
X191350000Y-51806250D01*
G75*
G02*
X191106250Y-52050000I-243750J0D01*
G01*
X190618750Y-52050000D01*
G75*
G02*
X190375000Y-51806250I0J243750D01*
G01*
X190375000Y-50893750D01*
G75*
G02*
X190618750Y-50650000I243750J0D01*
G01*
X191106250Y-50650000D01*
G75*
G02*
X191350000Y-50893750I0J-243750D01*
G01*
G37*
%TD*%
%TO.C,D7*%
G36*
G01*
X194875000Y-51806250D02*
X194875000Y-50893750D01*
G75*
G02*
X195118750Y-50650000I243750J0D01*
G01*
X195606250Y-50650000D01*
G75*
G02*
X195850000Y-50893750I0J-243750D01*
G01*
X195850000Y-51806250D01*
G75*
G02*
X195606250Y-52050000I-243750J0D01*
G01*
X195118750Y-52050000D01*
G75*
G02*
X194875000Y-51806250I0J243750D01*
G01*
G37*
G36*
G01*
X193000000Y-51806250D02*
X193000000Y-50893750D01*
G75*
G02*
X193243750Y-50650000I243750J0D01*
G01*
X193731250Y-50650000D01*
G75*
G02*
X193975000Y-50893750I0J-243750D01*
G01*
X193975000Y-51806250D01*
G75*
G02*
X193731250Y-52050000I-243750J0D01*
G01*
X193243750Y-52050000D01*
G75*
G02*
X193000000Y-51806250I0J243750D01*
G01*
G37*
%TD*%
D24*
%TO.C,J6*%
X172655000Y-53150000D03*
X170115000Y-53150000D03*
X167575000Y-53150000D03*
X165035000Y-53150000D03*
G36*
G01*
X161625000Y-53995001D02*
X161625000Y-52304999D01*
G75*
G02*
X161874999Y-52055000I249999J0D01*
G01*
X163115001Y-52055000D01*
G75*
G02*
X163365000Y-52304999I0J-249999D01*
G01*
X163365000Y-53995001D01*
G75*
G02*
X163115001Y-54245000I-249999J0D01*
G01*
X161874999Y-54245000D01*
G75*
G02*
X161625000Y-53995001I0J249999D01*
G01*
G37*
%TD*%
D25*
%TO.C,J13*%
X161025000Y-72890000D03*
D26*
X161025000Y-70350000D03*
%TD*%
D25*
%TO.C,J12*%
X167775000Y-72890000D03*
D26*
X167775000Y-70350000D03*
%TD*%
D25*
%TO.C,J11*%
X174475000Y-72890000D03*
D26*
X174475000Y-70350000D03*
%TD*%
%TO.C,R31*%
G36*
G01*
X161475001Y-58975000D02*
X160574999Y-58975000D01*
G75*
G02*
X160325000Y-58725001I0J249999D01*
G01*
X160325000Y-58199999D01*
G75*
G02*
X160574999Y-57950000I249999J0D01*
G01*
X161475001Y-57950000D01*
G75*
G02*
X161725000Y-58199999I0J-249999D01*
G01*
X161725000Y-58725001D01*
G75*
G02*
X161475001Y-58975000I-249999J0D01*
G01*
G37*
G36*
G01*
X161475001Y-60800000D02*
X160574999Y-60800000D01*
G75*
G02*
X160325000Y-60550001I0J249999D01*
G01*
X160325000Y-60024999D01*
G75*
G02*
X160574999Y-59775000I249999J0D01*
G01*
X161475001Y-59775000D01*
G75*
G02*
X161725000Y-60024999I0J-249999D01*
G01*
X161725000Y-60550001D01*
G75*
G02*
X161475001Y-60800000I-249999J0D01*
G01*
G37*
%TD*%
%TO.C,R30*%
G36*
G01*
X168200001Y-58975000D02*
X167299999Y-58975000D01*
G75*
G02*
X167050000Y-58725001I0J249999D01*
G01*
X167050000Y-58199999D01*
G75*
G02*
X167299999Y-57950000I249999J0D01*
G01*
X168200001Y-57950000D01*
G75*
G02*
X168450000Y-58199999I0J-249999D01*
G01*
X168450000Y-58725001D01*
G75*
G02*
X168200001Y-58975000I-249999J0D01*
G01*
G37*
G36*
G01*
X168200001Y-60800000D02*
X167299999Y-60800000D01*
G75*
G02*
X167050000Y-60550001I0J249999D01*
G01*
X167050000Y-60024999D01*
G75*
G02*
X167299999Y-59775000I249999J0D01*
G01*
X168200001Y-59775000D01*
G75*
G02*
X168450000Y-60024999I0J-249999D01*
G01*
X168450000Y-60550001D01*
G75*
G02*
X168200001Y-60800000I-249999J0D01*
G01*
G37*
%TD*%
%TO.C,R29*%
G36*
G01*
X174925001Y-58975000D02*
X174024999Y-58975000D01*
G75*
G02*
X173775000Y-58725001I0J249999D01*
G01*
X173775000Y-58199999D01*
G75*
G02*
X174024999Y-57950000I249999J0D01*
G01*
X174925001Y-57950000D01*
G75*
G02*
X175175000Y-58199999I0J-249999D01*
G01*
X175175000Y-58725001D01*
G75*
G02*
X174925001Y-58975000I-249999J0D01*
G01*
G37*
G36*
G01*
X174925001Y-60800000D02*
X174024999Y-60800000D01*
G75*
G02*
X173775000Y-60550001I0J249999D01*
G01*
X173775000Y-60024999D01*
G75*
G02*
X174024999Y-59775000I249999J0D01*
G01*
X174925001Y-59775000D01*
G75*
G02*
X175175000Y-60024999I0J-249999D01*
G01*
X175175000Y-60550001D01*
G75*
G02*
X174925001Y-60800000I-249999J0D01*
G01*
G37*
%TD*%
D27*
%TO.C,SW2*%
X165125000Y-97625000D03*
X158825000Y-97625000D03*
X165125000Y-93825000D03*
X158825000Y-93825000D03*
%TD*%
%TO.C,R28*%
G36*
G01*
X109299999Y-106425000D02*
X110200001Y-106425000D01*
G75*
G02*
X110450000Y-106674999I0J-249999D01*
G01*
X110450000Y-107200001D01*
G75*
G02*
X110200001Y-107450000I-249999J0D01*
G01*
X109299999Y-107450000D01*
G75*
G02*
X109050000Y-107200001I0J249999D01*
G01*
X109050000Y-106674999D01*
G75*
G02*
X109299999Y-106425000I249999J0D01*
G01*
G37*
G36*
G01*
X109299999Y-104600000D02*
X110200001Y-104600000D01*
G75*
G02*
X110450000Y-104849999I0J-249999D01*
G01*
X110450000Y-105375001D01*
G75*
G02*
X110200001Y-105625000I-249999J0D01*
G01*
X109299999Y-105625000D01*
G75*
G02*
X109050000Y-105375001I0J249999D01*
G01*
X109050000Y-104849999D01*
G75*
G02*
X109299999Y-104600000I249999J0D01*
G01*
G37*
%TD*%
%TO.C,R27*%
G36*
G01*
X109449999Y-93637500D02*
X110350001Y-93637500D01*
G75*
G02*
X110600000Y-93887499I0J-249999D01*
G01*
X110600000Y-94412501D01*
G75*
G02*
X110350001Y-94662500I-249999J0D01*
G01*
X109449999Y-94662500D01*
G75*
G02*
X109200000Y-94412501I0J249999D01*
G01*
X109200000Y-93887499D01*
G75*
G02*
X109449999Y-93637500I249999J0D01*
G01*
G37*
G36*
G01*
X109449999Y-91812500D02*
X110350001Y-91812500D01*
G75*
G02*
X110600000Y-92062499I0J-249999D01*
G01*
X110600000Y-92587501D01*
G75*
G02*
X110350001Y-92837500I-249999J0D01*
G01*
X109449999Y-92837500D01*
G75*
G02*
X109200000Y-92587501I0J249999D01*
G01*
X109200000Y-92062499D01*
G75*
G02*
X109449999Y-91812500I249999J0D01*
G01*
G37*
%TD*%
%TO.C,R26*%
G36*
G01*
X109849999Y-80050000D02*
X110750001Y-80050000D01*
G75*
G02*
X111000000Y-80299999I0J-249999D01*
G01*
X111000000Y-80825001D01*
G75*
G02*
X110750001Y-81075000I-249999J0D01*
G01*
X109849999Y-81075000D01*
G75*
G02*
X109600000Y-80825001I0J249999D01*
G01*
X109600000Y-80299999D01*
G75*
G02*
X109849999Y-80050000I249999J0D01*
G01*
G37*
G36*
G01*
X109849999Y-78225000D02*
X110750001Y-78225000D01*
G75*
G02*
X111000000Y-78474999I0J-249999D01*
G01*
X111000000Y-79000001D01*
G75*
G02*
X110750001Y-79250000I-249999J0D01*
G01*
X109849999Y-79250000D01*
G75*
G02*
X109600000Y-79000001I0J249999D01*
G01*
X109600000Y-78474999D01*
G75*
G02*
X109849999Y-78225000I249999J0D01*
G01*
G37*
%TD*%
%TO.C,R24*%
G36*
G01*
X110200001Y-109812500D02*
X109299999Y-109812500D01*
G75*
G02*
X109050000Y-109562501I0J249999D01*
G01*
X109050000Y-109037499D01*
G75*
G02*
X109299999Y-108787500I249999J0D01*
G01*
X110200001Y-108787500D01*
G75*
G02*
X110450000Y-109037499I0J-249999D01*
G01*
X110450000Y-109562501D01*
G75*
G02*
X110200001Y-109812500I-249999J0D01*
G01*
G37*
G36*
G01*
X110200001Y-111637500D02*
X109299999Y-111637500D01*
G75*
G02*
X109050000Y-111387501I0J249999D01*
G01*
X109050000Y-110862499D01*
G75*
G02*
X109299999Y-110612500I249999J0D01*
G01*
X110200001Y-110612500D01*
G75*
G02*
X110450000Y-110862499I0J-249999D01*
G01*
X110450000Y-111387501D01*
G75*
G02*
X110200001Y-111637500I-249999J0D01*
G01*
G37*
%TD*%
%TO.C,R23*%
G36*
G01*
X110350001Y-97012500D02*
X109449999Y-97012500D01*
G75*
G02*
X109200000Y-96762501I0J249999D01*
G01*
X109200000Y-96237499D01*
G75*
G02*
X109449999Y-95987500I249999J0D01*
G01*
X110350001Y-95987500D01*
G75*
G02*
X110600000Y-96237499I0J-249999D01*
G01*
X110600000Y-96762501D01*
G75*
G02*
X110350001Y-97012500I-249999J0D01*
G01*
G37*
G36*
G01*
X110350001Y-98837500D02*
X109449999Y-98837500D01*
G75*
G02*
X109200000Y-98587501I0J249999D01*
G01*
X109200000Y-98062499D01*
G75*
G02*
X109449999Y-97812500I249999J0D01*
G01*
X110350001Y-97812500D01*
G75*
G02*
X110600000Y-98062499I0J-249999D01*
G01*
X110600000Y-98587501D01*
G75*
G02*
X110350001Y-98837500I-249999J0D01*
G01*
G37*
%TD*%
%TO.C,R22*%
G36*
G01*
X110750001Y-83512500D02*
X109849999Y-83512500D01*
G75*
G02*
X109600000Y-83262501I0J249999D01*
G01*
X109600000Y-82737499D01*
G75*
G02*
X109849999Y-82487500I249999J0D01*
G01*
X110750001Y-82487500D01*
G75*
G02*
X111000000Y-82737499I0J-249999D01*
G01*
X111000000Y-83262501D01*
G75*
G02*
X110750001Y-83512500I-249999J0D01*
G01*
G37*
G36*
G01*
X110750001Y-85337500D02*
X109849999Y-85337500D01*
G75*
G02*
X109600000Y-85087501I0J249999D01*
G01*
X109600000Y-84562499D01*
G75*
G02*
X109849999Y-84312500I249999J0D01*
G01*
X110750001Y-84312500D01*
G75*
G02*
X111000000Y-84562499I0J-249999D01*
G01*
X111000000Y-85087501D01*
G75*
G02*
X110750001Y-85337500I-249999J0D01*
G01*
G37*
%TD*%
%TO.C,R20*%
G36*
G01*
X120099999Y-108550000D02*
X121000001Y-108550000D01*
G75*
G02*
X121250000Y-108799999I0J-249999D01*
G01*
X121250000Y-109325001D01*
G75*
G02*
X121000001Y-109575000I-249999J0D01*
G01*
X120099999Y-109575000D01*
G75*
G02*
X119850000Y-109325001I0J249999D01*
G01*
X119850000Y-108799999D01*
G75*
G02*
X120099999Y-108550000I249999J0D01*
G01*
G37*
G36*
G01*
X120099999Y-106725000D02*
X121000001Y-106725000D01*
G75*
G02*
X121250000Y-106974999I0J-249999D01*
G01*
X121250000Y-107500001D01*
G75*
G02*
X121000001Y-107750000I-249999J0D01*
G01*
X120099999Y-107750000D01*
G75*
G02*
X119850000Y-107500001I0J249999D01*
G01*
X119850000Y-106974999D01*
G75*
G02*
X120099999Y-106725000I249999J0D01*
G01*
G37*
%TD*%
%TO.C,R19*%
G36*
G01*
X120074999Y-95050000D02*
X120975001Y-95050000D01*
G75*
G02*
X121225000Y-95299999I0J-249999D01*
G01*
X121225000Y-95825001D01*
G75*
G02*
X120975001Y-96075000I-249999J0D01*
G01*
X120074999Y-96075000D01*
G75*
G02*
X119825000Y-95825001I0J249999D01*
G01*
X119825000Y-95299999D01*
G75*
G02*
X120074999Y-95050000I249999J0D01*
G01*
G37*
G36*
G01*
X120074999Y-93225000D02*
X120975001Y-93225000D01*
G75*
G02*
X121225000Y-93474999I0J-249999D01*
G01*
X121225000Y-94000001D01*
G75*
G02*
X120975001Y-94250000I-249999J0D01*
G01*
X120074999Y-94250000D01*
G75*
G02*
X119825000Y-94000001I0J249999D01*
G01*
X119825000Y-93474999D01*
G75*
G02*
X120074999Y-93225000I249999J0D01*
G01*
G37*
%TD*%
%TO.C,R18*%
G36*
G01*
X120249999Y-79400000D02*
X121150001Y-79400000D01*
G75*
G02*
X121400000Y-79649999I0J-249999D01*
G01*
X121400000Y-80175001D01*
G75*
G02*
X121150001Y-80425000I-249999J0D01*
G01*
X120249999Y-80425000D01*
G75*
G02*
X120000000Y-80175001I0J249999D01*
G01*
X120000000Y-79649999D01*
G75*
G02*
X120249999Y-79400000I249999J0D01*
G01*
G37*
G36*
G01*
X120249999Y-77575000D02*
X121150001Y-77575000D01*
G75*
G02*
X121400000Y-77824999I0J-249999D01*
G01*
X121400000Y-78350001D01*
G75*
G02*
X121150001Y-78600000I-249999J0D01*
G01*
X120249999Y-78600000D01*
G75*
G02*
X120000000Y-78350001I0J249999D01*
G01*
X120000000Y-77824999D01*
G75*
G02*
X120249999Y-77575000I249999J0D01*
G01*
G37*
%TD*%
%TO.C,R17*%
G36*
G01*
X119949999Y-67450000D02*
X120850001Y-67450000D01*
G75*
G02*
X121100000Y-67699999I0J-249999D01*
G01*
X121100000Y-68225001D01*
G75*
G02*
X120850001Y-68475000I-249999J0D01*
G01*
X119949999Y-68475000D01*
G75*
G02*
X119700000Y-68225001I0J249999D01*
G01*
X119700000Y-67699999D01*
G75*
G02*
X119949999Y-67450000I249999J0D01*
G01*
G37*
G36*
G01*
X119949999Y-65625000D02*
X120850001Y-65625000D01*
G75*
G02*
X121100000Y-65874999I0J-249999D01*
G01*
X121100000Y-66400001D01*
G75*
G02*
X120850001Y-66650000I-249999J0D01*
G01*
X119949999Y-66650000D01*
G75*
G02*
X119700000Y-66400001I0J249999D01*
G01*
X119700000Y-65874999D01*
G75*
G02*
X119949999Y-65625000I249999J0D01*
G01*
G37*
%TD*%
D13*
%TO.C,K4*%
X94550000Y-117000000D03*
X92550000Y-123000000D03*
X80350000Y-123000000D03*
X80350000Y-111000000D03*
X92550000Y-111000000D03*
%TD*%
%TO.C,K2*%
X94550000Y-78533333D03*
X92550000Y-84533333D03*
X80350000Y-84533333D03*
X80350000Y-72533333D03*
X92550000Y-72533333D03*
%TD*%
D18*
%TO.C,D6*%
X100650000Y-110100000D03*
X100650000Y-106100000D03*
%TD*%
%TO.C,D5*%
X100800000Y-97333332D03*
X100800000Y-93333332D03*
%TD*%
%TO.C,D4*%
X101200000Y-83716666D03*
X101200000Y-79716666D03*
%TD*%
%TO.C,R16*%
G36*
G01*
X189525001Y-102125000D02*
X188624999Y-102125000D01*
G75*
G02*
X188375000Y-101875001I0J249999D01*
G01*
X188375000Y-101349999D01*
G75*
G02*
X188624999Y-101100000I249999J0D01*
G01*
X189525001Y-101100000D01*
G75*
G02*
X189775000Y-101349999I0J-249999D01*
G01*
X189775000Y-101875001D01*
G75*
G02*
X189525001Y-102125000I-249999J0D01*
G01*
G37*
G36*
G01*
X189525001Y-103950000D02*
X188624999Y-103950000D01*
G75*
G02*
X188375000Y-103700001I0J249999D01*
G01*
X188375000Y-103174999D01*
G75*
G02*
X188624999Y-102925000I249999J0D01*
G01*
X189525001Y-102925000D01*
G75*
G02*
X189775000Y-103174999I0J-249999D01*
G01*
X189775000Y-103700001D01*
G75*
G02*
X189525001Y-103950000I-249999J0D01*
G01*
G37*
%TD*%
%TO.C,R15*%
G36*
G01*
X191899999Y-102925000D02*
X192800001Y-102925000D01*
G75*
G02*
X193050000Y-103174999I0J-249999D01*
G01*
X193050000Y-103700001D01*
G75*
G02*
X192800001Y-103950000I-249999J0D01*
G01*
X191899999Y-103950000D01*
G75*
G02*
X191650000Y-103700001I0J249999D01*
G01*
X191650000Y-103174999D01*
G75*
G02*
X191899999Y-102925000I249999J0D01*
G01*
G37*
G36*
G01*
X191899999Y-101100000D02*
X192800001Y-101100000D01*
G75*
G02*
X193050000Y-101349999I0J-249999D01*
G01*
X193050000Y-101875001D01*
G75*
G02*
X192800001Y-102125000I-249999J0D01*
G01*
X191899999Y-102125000D01*
G75*
G02*
X191650000Y-101875001I0J249999D01*
G01*
X191650000Y-101349999D01*
G75*
G02*
X191899999Y-101100000I249999J0D01*
G01*
G37*
%TD*%
D19*
%TO.C,Q1*%
X184050000Y-102525000D03*
X186050000Y-101575000D03*
X186050000Y-103475000D03*
%TD*%
%TO.C,R14*%
G36*
G01*
X189525000Y-53349999D02*
X189525000Y-54250001D01*
G75*
G02*
X189275001Y-54500000I-249999J0D01*
G01*
X188749999Y-54500000D01*
G75*
G02*
X188500000Y-54250001I0J249999D01*
G01*
X188500000Y-53349999D01*
G75*
G02*
X188749999Y-53100000I249999J0D01*
G01*
X189275001Y-53100000D01*
G75*
G02*
X189525000Y-53349999I0J-249999D01*
G01*
G37*
G36*
G01*
X191350000Y-53349999D02*
X191350000Y-54250001D01*
G75*
G02*
X191100001Y-54500000I-249999J0D01*
G01*
X190574999Y-54500000D01*
G75*
G02*
X190325000Y-54250001I0J249999D01*
G01*
X190325000Y-53349999D01*
G75*
G02*
X190574999Y-53100000I249999J0D01*
G01*
X191100001Y-53100000D01*
G75*
G02*
X191350000Y-53349999I0J-249999D01*
G01*
G37*
%TD*%
%TO.C,R13*%
G36*
G01*
X194785000Y-54250001D02*
X194785000Y-53349999D01*
G75*
G02*
X195034999Y-53100000I249999J0D01*
G01*
X195560001Y-53100000D01*
G75*
G02*
X195810000Y-53349999I0J-249999D01*
G01*
X195810000Y-54250001D01*
G75*
G02*
X195560001Y-54500000I-249999J0D01*
G01*
X195034999Y-54500000D01*
G75*
G02*
X194785000Y-54250001I0J249999D01*
G01*
G37*
G36*
G01*
X192960000Y-54250001D02*
X192960000Y-53349999D01*
G75*
G02*
X193209999Y-53100000I249999J0D01*
G01*
X193735001Y-53100000D01*
G75*
G02*
X193985000Y-53349999I0J-249999D01*
G01*
X193985000Y-54250001D01*
G75*
G02*
X193735001Y-54500000I-249999J0D01*
G01*
X193209999Y-54500000D01*
G75*
G02*
X192960000Y-54250001I0J249999D01*
G01*
G37*
%TD*%
D27*
%TO.C,SW1*%
X165175000Y-82225000D03*
X158875000Y-82225000D03*
X165175000Y-78425000D03*
X158875000Y-78425000D03*
%TD*%
%TO.C,R12*%
G36*
G01*
X158499999Y-114025000D02*
X159400001Y-114025000D01*
G75*
G02*
X159650000Y-114274999I0J-249999D01*
G01*
X159650000Y-114800001D01*
G75*
G02*
X159400001Y-115050000I-249999J0D01*
G01*
X158499999Y-115050000D01*
G75*
G02*
X158250000Y-114800001I0J249999D01*
G01*
X158250000Y-114274999D01*
G75*
G02*
X158499999Y-114025000I249999J0D01*
G01*
G37*
G36*
G01*
X158499999Y-112200000D02*
X159400001Y-112200000D01*
G75*
G02*
X159650000Y-112449999I0J-249999D01*
G01*
X159650000Y-112975001D01*
G75*
G02*
X159400001Y-113225000I-249999J0D01*
G01*
X158499999Y-113225000D01*
G75*
G02*
X158250000Y-112975001I0J249999D01*
G01*
X158250000Y-112449999D01*
G75*
G02*
X158499999Y-112200000I249999J0D01*
G01*
G37*
%TD*%
%TO.C,R11*%
G36*
G01*
X155949999Y-114025000D02*
X156850001Y-114025000D01*
G75*
G02*
X157100000Y-114274999I0J-249999D01*
G01*
X157100000Y-114800001D01*
G75*
G02*
X156850001Y-115050000I-249999J0D01*
G01*
X155949999Y-115050000D01*
G75*
G02*
X155700000Y-114800001I0J249999D01*
G01*
X155700000Y-114274999D01*
G75*
G02*
X155949999Y-114025000I249999J0D01*
G01*
G37*
G36*
G01*
X155949999Y-112200000D02*
X156850001Y-112200000D01*
G75*
G02*
X157100000Y-112449999I0J-249999D01*
G01*
X157100000Y-112975001D01*
G75*
G02*
X156850001Y-113225000I-249999J0D01*
G01*
X155949999Y-113225000D01*
G75*
G02*
X155700000Y-112975001I0J249999D01*
G01*
X155700000Y-112449999D01*
G75*
G02*
X155949999Y-112200000I249999J0D01*
G01*
G37*
%TD*%
%TO.C,R9*%
G36*
G01*
X140075001Y-108525000D02*
X139174999Y-108525000D01*
G75*
G02*
X138925000Y-108275001I0J249999D01*
G01*
X138925000Y-107749999D01*
G75*
G02*
X139174999Y-107500000I249999J0D01*
G01*
X140075001Y-107500000D01*
G75*
G02*
X140325000Y-107749999I0J-249999D01*
G01*
X140325000Y-108275001D01*
G75*
G02*
X140075001Y-108525000I-249999J0D01*
G01*
G37*
G36*
G01*
X140075001Y-110350000D02*
X139174999Y-110350000D01*
G75*
G02*
X138925000Y-110100001I0J249999D01*
G01*
X138925000Y-109574999D01*
G75*
G02*
X139174999Y-109325000I249999J0D01*
G01*
X140075001Y-109325000D01*
G75*
G02*
X140325000Y-109574999I0J-249999D01*
G01*
X140325000Y-110100001D01*
G75*
G02*
X140075001Y-110350000I-249999J0D01*
G01*
G37*
%TD*%
%TO.C,R8*%
G36*
G01*
X129075001Y-108525000D02*
X128174999Y-108525000D01*
G75*
G02*
X127925000Y-108275001I0J249999D01*
G01*
X127925000Y-107749999D01*
G75*
G02*
X128174999Y-107500000I249999J0D01*
G01*
X129075001Y-107500000D01*
G75*
G02*
X129325000Y-107749999I0J-249999D01*
G01*
X129325000Y-108275001D01*
G75*
G02*
X129075001Y-108525000I-249999J0D01*
G01*
G37*
G36*
G01*
X129075001Y-110350000D02*
X128174999Y-110350000D01*
G75*
G02*
X127925000Y-110100001I0J249999D01*
G01*
X127925000Y-109574999D01*
G75*
G02*
X128174999Y-109325000I249999J0D01*
G01*
X129075001Y-109325000D01*
G75*
G02*
X129325000Y-109574999I0J-249999D01*
G01*
X129325000Y-110100001D01*
G75*
G02*
X129075001Y-110350000I-249999J0D01*
G01*
G37*
%TD*%
%TO.C,R7*%
G36*
G01*
X129075001Y-113225000D02*
X128174999Y-113225000D01*
G75*
G02*
X127925000Y-112975001I0J249999D01*
G01*
X127925000Y-112449999D01*
G75*
G02*
X128174999Y-112200000I249999J0D01*
G01*
X129075001Y-112200000D01*
G75*
G02*
X129325000Y-112449999I0J-249999D01*
G01*
X129325000Y-112975001D01*
G75*
G02*
X129075001Y-113225000I-249999J0D01*
G01*
G37*
G36*
G01*
X129075001Y-115050000D02*
X128174999Y-115050000D01*
G75*
G02*
X127925000Y-114800001I0J249999D01*
G01*
X127925000Y-114274999D01*
G75*
G02*
X128174999Y-114025000I249999J0D01*
G01*
X129075001Y-114025000D01*
G75*
G02*
X129325000Y-114274999I0J-249999D01*
G01*
X129325000Y-114800001D01*
G75*
G02*
X129075001Y-115050000I-249999J0D01*
G01*
G37*
%TD*%
%TO.C,R6*%
G36*
G01*
X140075001Y-113225000D02*
X139174999Y-113225000D01*
G75*
G02*
X138925000Y-112975001I0J249999D01*
G01*
X138925000Y-112449999D01*
G75*
G02*
X139174999Y-112200000I249999J0D01*
G01*
X140075001Y-112200000D01*
G75*
G02*
X140325000Y-112449999I0J-249999D01*
G01*
X140325000Y-112975001D01*
G75*
G02*
X140075001Y-113225000I-249999J0D01*
G01*
G37*
G36*
G01*
X140075001Y-115050000D02*
X139174999Y-115050000D01*
G75*
G02*
X138925000Y-114800001I0J249999D01*
G01*
X138925000Y-114274999D01*
G75*
G02*
X139174999Y-114025000I249999J0D01*
G01*
X140075001Y-114025000D01*
G75*
G02*
X140325000Y-114274999I0J-249999D01*
G01*
X140325000Y-114800001D01*
G75*
G02*
X140075001Y-115050000I-249999J0D01*
G01*
G37*
%TD*%
%TO.C,R5*%
G36*
G01*
X154210000Y-68425001D02*
X154210000Y-67524999D01*
G75*
G02*
X154459999Y-67275000I249999J0D01*
G01*
X154985001Y-67275000D01*
G75*
G02*
X155235000Y-67524999I0J-249999D01*
G01*
X155235000Y-68425001D01*
G75*
G02*
X154985001Y-68675000I-249999J0D01*
G01*
X154459999Y-68675000D01*
G75*
G02*
X154210000Y-68425001I0J249999D01*
G01*
G37*
G36*
G01*
X152385000Y-68425001D02*
X152385000Y-67524999D01*
G75*
G02*
X152634999Y-67275000I249999J0D01*
G01*
X153160001Y-67275000D01*
G75*
G02*
X153410000Y-67524999I0J-249999D01*
G01*
X153410000Y-68425001D01*
G75*
G02*
X153160001Y-68675000I-249999J0D01*
G01*
X152634999Y-68675000D01*
G75*
G02*
X152385000Y-68425001I0J249999D01*
G01*
G37*
%TD*%
%TO.C,R4*%
G36*
G01*
X141900000Y-68775001D02*
X141900000Y-67874999D01*
G75*
G02*
X142149999Y-67625000I249999J0D01*
G01*
X142675001Y-67625000D01*
G75*
G02*
X142925000Y-67874999I0J-249999D01*
G01*
X142925000Y-68775001D01*
G75*
G02*
X142675001Y-69025000I-249999J0D01*
G01*
X142149999Y-69025000D01*
G75*
G02*
X141900000Y-68775001I0J249999D01*
G01*
G37*
G36*
G01*
X140075000Y-68775001D02*
X140075000Y-67874999D01*
G75*
G02*
X140324999Y-67625000I249999J0D01*
G01*
X140850001Y-67625000D01*
G75*
G02*
X141100000Y-67874999I0J-249999D01*
G01*
X141100000Y-68775001D01*
G75*
G02*
X140850001Y-69025000I-249999J0D01*
G01*
X140324999Y-69025000D01*
G75*
G02*
X140075000Y-68775001I0J249999D01*
G01*
G37*
%TD*%
%TO.C,R3*%
G36*
G01*
X153410000Y-60674999D02*
X153410000Y-61575001D01*
G75*
G02*
X153160001Y-61825000I-249999J0D01*
G01*
X152634999Y-61825000D01*
G75*
G02*
X152385000Y-61575001I0J249999D01*
G01*
X152385000Y-60674999D01*
G75*
G02*
X152634999Y-60425000I249999J0D01*
G01*
X153160001Y-60425000D01*
G75*
G02*
X153410000Y-60674999I0J-249999D01*
G01*
G37*
G36*
G01*
X155235000Y-60674999D02*
X155235000Y-61575001D01*
G75*
G02*
X154985001Y-61825000I-249999J0D01*
G01*
X154459999Y-61825000D01*
G75*
G02*
X154210000Y-61575001I0J249999D01*
G01*
X154210000Y-60674999D01*
G75*
G02*
X154459999Y-60425000I249999J0D01*
G01*
X154985001Y-60425000D01*
G75*
G02*
X155235000Y-60674999I0J-249999D01*
G01*
G37*
%TD*%
%TO.C,R2*%
G36*
G01*
X141900000Y-61625001D02*
X141900000Y-60724999D01*
G75*
G02*
X142149999Y-60475000I249999J0D01*
G01*
X142675001Y-60475000D01*
G75*
G02*
X142925000Y-60724999I0J-249999D01*
G01*
X142925000Y-61625001D01*
G75*
G02*
X142675001Y-61875000I-249999J0D01*
G01*
X142149999Y-61875000D01*
G75*
G02*
X141900000Y-61625001I0J249999D01*
G01*
G37*
G36*
G01*
X140075000Y-61625001D02*
X140075000Y-60724999D01*
G75*
G02*
X140324999Y-60475000I249999J0D01*
G01*
X140850001Y-60475000D01*
G75*
G02*
X141100000Y-60724999I0J-249999D01*
G01*
X141100000Y-61625001D01*
G75*
G02*
X140850001Y-61875000I-249999J0D01*
G01*
X140324999Y-61875000D01*
G75*
G02*
X140075000Y-61625001I0J249999D01*
G01*
G37*
%TD*%
%TO.C,D2*%
G36*
G01*
X154300000Y-65006250D02*
X154300000Y-64093750D01*
G75*
G02*
X154543750Y-63850000I243750J0D01*
G01*
X155031250Y-63850000D01*
G75*
G02*
X155275000Y-64093750I0J-243750D01*
G01*
X155275000Y-65006250D01*
G75*
G02*
X155031250Y-65250000I-243750J0D01*
G01*
X154543750Y-65250000D01*
G75*
G02*
X154300000Y-65006250I0J243750D01*
G01*
G37*
G36*
G01*
X152425000Y-65006250D02*
X152425000Y-64093750D01*
G75*
G02*
X152668750Y-63850000I243750J0D01*
G01*
X153156250Y-63850000D01*
G75*
G02*
X153400000Y-64093750I0J-243750D01*
G01*
X153400000Y-65006250D01*
G75*
G02*
X153156250Y-65250000I-243750J0D01*
G01*
X152668750Y-65250000D01*
G75*
G02*
X152425000Y-65006250I0J243750D01*
G01*
G37*
%TD*%
%TO.C,D1*%
G36*
G01*
X141990000Y-65206250D02*
X141990000Y-64293750D01*
G75*
G02*
X142233750Y-64050000I243750J0D01*
G01*
X142721250Y-64050000D01*
G75*
G02*
X142965000Y-64293750I0J-243750D01*
G01*
X142965000Y-65206250D01*
G75*
G02*
X142721250Y-65450000I-243750J0D01*
G01*
X142233750Y-65450000D01*
G75*
G02*
X141990000Y-65206250I0J243750D01*
G01*
G37*
G36*
G01*
X140115000Y-65206250D02*
X140115000Y-64293750D01*
G75*
G02*
X140358750Y-64050000I243750J0D01*
G01*
X140846250Y-64050000D01*
G75*
G02*
X141090000Y-64293750I0J-243750D01*
G01*
X141090000Y-65206250D01*
G75*
G02*
X140846250Y-65450000I-243750J0D01*
G01*
X140358750Y-65450000D01*
G75*
G02*
X140115000Y-65206250I0J243750D01*
G01*
G37*
%TD*%
%TO.C,C6*%
G36*
G01*
X127800000Y-78625000D02*
X126850000Y-78625000D01*
G75*
G02*
X126600000Y-78375000I0J250000D01*
G01*
X126600000Y-77875000D01*
G75*
G02*
X126850000Y-77625000I250000J0D01*
G01*
X127800000Y-77625000D01*
G75*
G02*
X128050000Y-77875000I0J-250000D01*
G01*
X128050000Y-78375000D01*
G75*
G02*
X127800000Y-78625000I-250000J0D01*
G01*
G37*
G36*
G01*
X127800000Y-80525000D02*
X126850000Y-80525000D01*
G75*
G02*
X126600000Y-80275000I0J250000D01*
G01*
X126600000Y-79775000D01*
G75*
G02*
X126850000Y-79525000I250000J0D01*
G01*
X127800000Y-79525000D01*
G75*
G02*
X128050000Y-79775000I0J-250000D01*
G01*
X128050000Y-80275000D01*
G75*
G02*
X127800000Y-80525000I-250000J0D01*
G01*
G37*
%TD*%
%TO.C,C5*%
G36*
G01*
X124050000Y-79525000D02*
X125000000Y-79525000D01*
G75*
G02*
X125250000Y-79775000I0J-250000D01*
G01*
X125250000Y-80275000D01*
G75*
G02*
X125000000Y-80525000I-250000J0D01*
G01*
X124050000Y-80525000D01*
G75*
G02*
X123800000Y-80275000I0J250000D01*
G01*
X123800000Y-79775000D01*
G75*
G02*
X124050000Y-79525000I250000J0D01*
G01*
G37*
G36*
G01*
X124050000Y-77625000D02*
X125000000Y-77625000D01*
G75*
G02*
X125250000Y-77875000I0J-250000D01*
G01*
X125250000Y-78375000D01*
G75*
G02*
X125000000Y-78625000I-250000J0D01*
G01*
X124050000Y-78625000D01*
G75*
G02*
X123800000Y-78375000I0J250000D01*
G01*
X123800000Y-77875000D01*
G75*
G02*
X124050000Y-77625000I250000J0D01*
G01*
G37*
%TD*%
D28*
%TO.C,U3*%
X147400000Y-57325000D03*
X152000000Y-57325000D03*
X149700000Y-57325000D03*
D29*
X149700000Y-51025000D03*
%TD*%
D28*
%TO.C,U2*%
X135050000Y-57425000D03*
X139650000Y-57425000D03*
X137350000Y-57425000D03*
D29*
X137350000Y-51125000D03*
%TD*%
%TO.C,R1*%
G36*
G01*
X148400001Y-113225000D02*
X147499999Y-113225000D01*
G75*
G02*
X147250000Y-112975001I0J249999D01*
G01*
X147250000Y-112449999D01*
G75*
G02*
X147499999Y-112200000I249999J0D01*
G01*
X148400001Y-112200000D01*
G75*
G02*
X148650000Y-112449999I0J-249999D01*
G01*
X148650000Y-112975001D01*
G75*
G02*
X148400001Y-113225000I-249999J0D01*
G01*
G37*
G36*
G01*
X148400001Y-115050000D02*
X147499999Y-115050000D01*
G75*
G02*
X147250000Y-114800001I0J249999D01*
G01*
X147250000Y-114274999D01*
G75*
G02*
X147499999Y-114025000I249999J0D01*
G01*
X148400001Y-114025000D01*
G75*
G02*
X148650000Y-114274999I0J-249999D01*
G01*
X148650000Y-114800001D01*
G75*
G02*
X148400001Y-115050000I-249999J0D01*
G01*
G37*
%TD*%
D24*
%TO.C,J5*%
X137063333Y-120775000D03*
X139603333Y-120775000D03*
G36*
G01*
X143013333Y-119929999D02*
X143013333Y-121620001D01*
G75*
G02*
X142763334Y-121870000I-249999J0D01*
G01*
X141523332Y-121870000D01*
G75*
G02*
X141273333Y-121620001I0J249999D01*
G01*
X141273333Y-119929999D01*
G75*
G02*
X141523332Y-119680000I249999J0D01*
G01*
X142763334Y-119680000D01*
G75*
G02*
X143013333Y-119929999I0J-249999D01*
G01*
G37*
%TD*%
%TO.C,J4*%
X156420000Y-120775000D03*
X158960000Y-120775000D03*
X161500000Y-120775000D03*
G36*
G01*
X164910000Y-119929999D02*
X164910000Y-121620001D01*
G75*
G02*
X164660001Y-121870000I-249999J0D01*
G01*
X163419999Y-121870000D01*
G75*
G02*
X163170000Y-121620001I0J249999D01*
G01*
X163170000Y-119929999D01*
G75*
G02*
X163419999Y-119680000I249999J0D01*
G01*
X164660001Y-119680000D01*
G75*
G02*
X164910000Y-119929999I0J-249999D01*
G01*
G37*
%TD*%
%TO.C,J3*%
X126085000Y-120775000D03*
X128625000Y-120775000D03*
G36*
G01*
X132035000Y-119929999D02*
X132035000Y-121620001D01*
G75*
G02*
X131785001Y-121870000I-249999J0D01*
G01*
X130544999Y-121870000D01*
G75*
G02*
X130295000Y-121620001I0J249999D01*
G01*
X130295000Y-119929999D01*
G75*
G02*
X130544999Y-119680000I249999J0D01*
G01*
X131785001Y-119680000D01*
G75*
G02*
X132035000Y-119929999I0J-249999D01*
G01*
G37*
%TD*%
%TO.C,J2*%
X148011666Y-120775000D03*
G36*
G01*
X151421666Y-119929999D02*
X151421666Y-121620001D01*
G75*
G02*
X151171667Y-121870000I-249999J0D01*
G01*
X149931665Y-121870000D01*
G75*
G02*
X149681666Y-121620001I0J249999D01*
G01*
X149681666Y-119929999D01*
G75*
G02*
X149931665Y-119680000I249999J0D01*
G01*
X151171667Y-119680000D01*
G75*
G02*
X151421666Y-119929999I0J-249999D01*
G01*
G37*
%TD*%
%TO.C,J1*%
X129290000Y-53150000D03*
X126750000Y-53150000D03*
G36*
G01*
X123340000Y-53995001D02*
X123340000Y-52304999D01*
G75*
G02*
X123589999Y-52055000I249999J0D01*
G01*
X124830001Y-52055000D01*
G75*
G02*
X125080000Y-52304999I0J-249999D01*
G01*
X125080000Y-53995001D01*
G75*
G02*
X124830001Y-54245000I-249999J0D01*
G01*
X123589999Y-54245000D01*
G75*
G02*
X123340000Y-53995001I0J249999D01*
G01*
G37*
%TD*%
%TO.C,C4*%
G36*
G01*
X135550000Y-60700000D02*
X135550000Y-61650000D01*
G75*
G02*
X135300000Y-61900000I-250000J0D01*
G01*
X134800000Y-61900000D01*
G75*
G02*
X134550000Y-61650000I0J250000D01*
G01*
X134550000Y-60700000D01*
G75*
G02*
X134800000Y-60450000I250000J0D01*
G01*
X135300000Y-60450000D01*
G75*
G02*
X135550000Y-60700000I0J-250000D01*
G01*
G37*
G36*
G01*
X137450000Y-60700000D02*
X137450000Y-61650000D01*
G75*
G02*
X137200000Y-61900000I-250000J0D01*
G01*
X136700000Y-61900000D01*
G75*
G02*
X136450000Y-61650000I0J250000D01*
G01*
X136450000Y-60700000D01*
G75*
G02*
X136700000Y-60450000I250000J0D01*
G01*
X137200000Y-60450000D01*
G75*
G02*
X137450000Y-60700000I0J-250000D01*
G01*
G37*
%TD*%
%TO.C,C3*%
G36*
G01*
X147900000Y-60650000D02*
X147900000Y-61600000D01*
G75*
G02*
X147650000Y-61850000I-250000J0D01*
G01*
X147150000Y-61850000D01*
G75*
G02*
X146900000Y-61600000I0J250000D01*
G01*
X146900000Y-60650000D01*
G75*
G02*
X147150000Y-60400000I250000J0D01*
G01*
X147650000Y-60400000D01*
G75*
G02*
X147900000Y-60650000I0J-250000D01*
G01*
G37*
G36*
G01*
X149800000Y-60650000D02*
X149800000Y-61600000D01*
G75*
G02*
X149550000Y-61850000I-250000J0D01*
G01*
X149050000Y-61850000D01*
G75*
G02*
X148800000Y-61600000I0J250000D01*
G01*
X148800000Y-60650000D01*
G75*
G02*
X149050000Y-60400000I250000J0D01*
G01*
X149550000Y-60400000D01*
G75*
G02*
X149800000Y-60650000I0J-250000D01*
G01*
G37*
%TD*%
%TO.C,C2*%
G36*
G01*
X147900000Y-64350000D02*
X147900000Y-65300000D01*
G75*
G02*
X147650000Y-65550000I-250000J0D01*
G01*
X147150000Y-65550000D01*
G75*
G02*
X146900000Y-65300000I0J250000D01*
G01*
X146900000Y-64350000D01*
G75*
G02*
X147150000Y-64100000I250000J0D01*
G01*
X147650000Y-64100000D01*
G75*
G02*
X147900000Y-64350000I0J-250000D01*
G01*
G37*
G36*
G01*
X149800000Y-64350000D02*
X149800000Y-65300000D01*
G75*
G02*
X149550000Y-65550000I-250000J0D01*
G01*
X149050000Y-65550000D01*
G75*
G02*
X148800000Y-65300000I0J250000D01*
G01*
X148800000Y-64350000D01*
G75*
G02*
X149050000Y-64100000I250000J0D01*
G01*
X149550000Y-64100000D01*
G75*
G02*
X149800000Y-64350000I0J-250000D01*
G01*
G37*
%TD*%
%TO.C,C1*%
G36*
G01*
X135550000Y-64350000D02*
X135550000Y-65300000D01*
G75*
G02*
X135300000Y-65550000I-250000J0D01*
G01*
X134800000Y-65550000D01*
G75*
G02*
X134550000Y-65300000I0J250000D01*
G01*
X134550000Y-64350000D01*
G75*
G02*
X134800000Y-64100000I250000J0D01*
G01*
X135300000Y-64100000D01*
G75*
G02*
X135550000Y-64350000I0J-250000D01*
G01*
G37*
G36*
G01*
X137450000Y-64350000D02*
X137450000Y-65300000D01*
G75*
G02*
X137200000Y-65550000I-250000J0D01*
G01*
X136700000Y-65550000D01*
G75*
G02*
X136450000Y-65300000I0J250000D01*
G01*
X136450000Y-64350000D01*
G75*
G02*
X136700000Y-64100000I250000J0D01*
G01*
X137200000Y-64100000D01*
G75*
G02*
X137450000Y-64350000I0J-250000D01*
G01*
G37*
%TD*%
M02*
